<?xml version="1.0" encoding="UTF-8"?>
<!DOCTYPE svg PUBLIC "-//W3C//DTD SVG 1.1//EN" "http://www.w3.org/Graphics/SVG/1.1/DTD/svg11.dtd">
<svg xmlns="http://www.w3.org/2000/svg" version="1.1" width="170px" height="140px" style="shape-rendering:geometricPrecision; text-rendering:geometricPrecision; image-rendering:optimizeQuality; fill-rule:evenodd; clip-rule:evenodd" xmlns:xlink="http://www.w3.org/1999/xlink">
<g><path style="opacity:0.988" fill="#bee4d0" d="M 110.5,42.5 C 109.811,41.2264 108.977,41.2264 108,42.5C 107.517,41.552 107.351,40.552 107.5,39.5C 106.127,39.6567 104.793,39.49 103.5,39C 97.1667,34.8333 90.8333,30.6667 84.5,26.5C 83.537,26.9698 83.537,27.6365 84.5,28.5C 83.8333,28.5 83.1667,28.5 82.5,28.5C 82.0825,27.7784 81.4158,27.2784 80.5,27C 82.8808,25.7535 82.5475,25.4202 79.5,26C 71.4402,32.3513 63.1069,38.1846 54.5,43.5C 53.1974,41.2431 53.864,39.4098 56.5,38C 63.1667,33.3333 69.8333,28.6667 76.5,24C 79.366,22.5432 82.366,22.2099 85.5,23C 94,28.8333 102.5,34.6667 111,40.5C 111.692,41.4368 111.525,42.1034 110.5,42.5 Z"/></g>
<g><path style="opacity:1" fill="#529571" d="M 52.5,48.5 C 59.8469,53.1718 67.1803,57.8385 74.5,62.5C 73.4653,65.2656 71.7986,65.9323 69.5,64.5C 68.391,64.4431 67.391,64.1098 66.5,63.5C 61.9787,60.3095 57.4787,56.9762 53,53.5C 52.5065,51.8659 52.3398,50.1992 52.5,48.5 Z"/></g>
<g><path style="opacity:1" fill="#4f8e6d" d="M 111.5,53.5 C 111.5,53.8333 111.5,54.1667 111.5,54.5C 109.973,54.427 108.973,55.0937 108.5,56.5C 106.973,56.427 105.973,57.0937 105.5,58.5C 104.833,58.5 104.5,58.8333 104.5,59.5C 102.031,60.5686 99.6979,61.9019 97.5,63.5C 95.3193,63.7163 93.6526,62.883 92.5,61C 98.2509,55.8017 104.584,51.635 111.5,48.5C 111.5,50.1667 111.5,51.8333 111.5,53.5 Z"/></g>
<g><path style="opacity:1" fill="#6cb58e" d="M 110.5,44.5 C 111.117,44.6107 111.617,44.944 112,45.5C 112.801,48.367 112.634,51.0336 111.5,53.5C 111.5,51.8333 111.5,50.1667 111.5,48.5C 104.584,51.635 98.2509,55.8017 92.5,61C 93.6526,62.883 95.3193,63.7163 97.5,63.5C 97.7553,66.0163 98.5886,68.3496 100,70.5C 100.72,68.9443 101.887,67.9443 103.5,67.5C 112.259,72.6293 121.092,77.6293 130,82.5C 131.627,82.3749 133.127,81.8749 134.5,81C 141.5,76 148.5,71 155.5,66C 156.577,65.5304 157.577,65.6971 158.5,66.5C 161.429,69.0991 162.096,72.0991 160.5,75.5C 160.785,73.712 160.452,72.0453 159.5,70.5C 149.965,77.0962 140.299,83.4296 130.5,89.5C 120.874,84.0509 111.374,78.3842 102,72.5C 101.616,74.1966 101.782,75.8632 102.5,77.5C 101.25,77.4226 100.417,76.756 100,75.5C 99.0302,81.2462 97.1969,86.5795 94.5,91.5C 92.3991,94.1789 90.3991,97.0123 88.5,100C 86.3046,101.373 83.9712,101.706 81.5,101C 78.9627,98.0937 76.796,94.927 75,91.5C 73.065,85.1772 70.8984,79.1772 68.5,73.5C 70.0022,70.5386 70.3356,67.5386 69.5,64.5C 71.7986,65.9323 73.4653,65.2656 74.5,62.5C 67.1803,57.8385 59.8469,53.1718 52.5,48.5C 53.4056,46.0863 55.0722,45.253 57.5,46C 63.5,50 69.5,54 75.5,58C 80.1391,59.9318 84.8058,59.9318 89.5,58C 95.5,53.3333 101.5,48.6667 107.5,44C 108.577,43.5304 109.577,43.6971 110.5,44.5 Z"/></g>
<g><path style="opacity:1" fill="#b5e0c9" d="M 82.5,28.5 C 80.3453,28.372 78.3453,28.872 76.5,30C 70.9739,34.3597 65.3072,38.5264 59.5,42.5C 67.0957,47.8807 74.9291,52.8807 83,57.5C 90.5937,53.0665 97.7604,48.0665 104.5,42.5C 97.8043,37.8236 91.1376,33.157 84.5,28.5C 83.537,27.6365 83.537,26.9698 84.5,26.5C 90.8333,30.6667 97.1667,34.8333 103.5,39C 104.793,39.49 106.127,39.6567 107.5,39.5C 107.351,40.552 107.517,41.552 108,42.5C 108.977,41.2264 109.811,41.2264 110.5,42.5C 110.5,43.1667 110.5,43.8333 110.5,44.5C 109.577,43.6971 108.577,43.5304 107.5,44C 101.5,48.6667 95.5,53.3333 89.5,58C 84.8058,59.9318 80.1391,59.9318 75.5,58C 69.5,54 63.5,50 57.5,46C 55.0722,45.253 53.4056,46.0863 52.5,48.5C 52.3398,50.1992 52.5065,51.8659 53,53.5C 57.4787,56.9762 61.9787,60.3095 66.5,63.5C 65.4625,64.9303 64.7959,66.597 64.5,68.5C 63.2618,67.5876 61.9285,67.4209 60.5,68C 53.169,74.0104 45.3357,79.1771 37,83.5C 27.6949,78.3519 18.5282,73.0186 9.5,67.5C 7.92574,64.5696 8.59241,62.0696 11.5,60C 18.672,55.5814 25.672,50.9148 32.5,46C 34.3646,44.6986 36.3646,44.3653 38.5,45C 42.6682,47.2497 46.6682,49.7497 50.5,52.5C 50.6023,49.2688 51.9357,46.2688 54.5,43.5C 63.1069,38.1846 71.4402,32.3513 79.5,26C 82.5475,25.4202 82.8808,25.7535 80.5,27C 81.4158,27.2784 82.0825,27.7784 82.5,28.5 Z"/></g>
<g><path style="opacity:1" fill="#7fc9a1" d="M 82.5,28.5 C 83.1667,28.5 83.8333,28.5 84.5,28.5C 91.1376,33.157 97.8043,37.8236 104.5,42.5C 97.7604,48.0665 90.5937,53.0665 83,57.5C 74.9291,52.8807 67.0957,47.8807 59.5,42.5C 65.3072,38.5264 70.9739,34.3597 76.5,30C 78.3453,28.872 80.3453,28.372 82.5,28.5 Z"/></g>
<g><path style="opacity:1" fill="#76c299" d="M 34.5,51.5 C 37.0163,51.7553 39.3496,52.5886 41.5,54C 47.3947,57.5651 53.0613,61.3984 58.5,65.5C 51.7138,70.7331 44.7138,75.7331 37.5,80.5C 29.8333,75.6667 22.1667,70.8333 14.5,66C 21.3483,61.3035 28.015,56.4701 34.5,51.5 Z"/></g>
<g><path style="opacity:1" fill="#549572" d="M 66.5,76.5 C 61.417,80.8883 56.0836,85.055 50.5,89C 46.1292,91.516 41.7959,94.016 37.5,96.5C 27.9681,91.5735 18.9681,85.9068 10.5,79.5C 7.85149,77.4414 7.01816,74.7747 8,71.5C 9.36035,73.1054 10.8603,74.6054 12.5,76C 20.6008,80.4637 28.4342,85.2971 36,90.5C 37.8114,89.9221 39.6447,89.4221 41.5,89C 49.3227,82.9221 57.3227,77.0888 65.5,71.5C 66.4519,73.0453 66.7852,74.712 66.5,76.5 Z"/></g>
<g><path style="opacity:1" fill="#6fb991" d="M 9.5,67.5 C 18.5282,73.0186 27.6949,78.3519 37,83.5C 45.3357,79.1771 53.169,74.0104 60.5,68C 61.9285,67.4209 63.2618,67.5876 64.5,68.5C 67.5172,70.6154 68.1839,73.282 66.5,76.5C 66.7852,74.712 66.4519,73.0453 65.5,71.5C 57.3227,77.0888 49.3227,82.9221 41.5,89C 39.6447,89.4221 37.8114,89.9221 36,90.5C 28.4342,85.2971 20.6008,80.4637 12.5,76C 10.8603,74.6054 9.36035,73.1054 8,71.5C 7.01816,74.7747 7.85149,77.4414 10.5,79.5C 4.31113,76.0564 3.97779,72.0564 9.5,67.5 Z"/></g>
<g><path style="opacity:1" fill="#b6e1ca" d="M 158.5,66.5 C 157.577,65.6971 156.577,65.5304 155.5,66C 148.5,71 141.5,76 134.5,81C 133.127,81.8749 131.627,82.3749 130,82.5C 121.092,77.6293 112.259,72.6293 103.5,67.5C 100.805,64.549 101.138,61.8823 104.5,59.5C 105.167,59.5 105.5,59.1667 105.5,58.5C 107.027,58.573 108.027,57.9063 108.5,56.5C 110.027,56.573 111.027,55.9063 111.5,54.5C 116.444,51.3548 121.444,48.1882 126.5,45C 128.5,44.3333 130.5,44.3333 132.5,45C 140.333,49.4155 148,54.0822 155.5,59C 158.839,60.7638 159.839,63.2638 158.5,66.5 Z"/></g>
<g><path style="opacity:1" fill="#84cca5" d="M 128.5,50.5 C 130.308,50.4914 131.975,50.9914 133.5,52C 139.833,56.3333 146.167,60.6667 152.5,65C 145.596,70.24 138.429,75.0733 131,79.5C 123.05,75.113 115.55,70.113 108.5,64.5C 115.485,60.1649 122.151,55.4982 128.5,50.5 Z"/></g>
<g><path style="opacity:1" fill="#508f6d" d="M 160.5,75.5 C 151.734,81.7519 143.068,88.2519 134.5,95C 132.5,95.6667 130.5,95.6667 128.5,95C 119.595,89.3913 110.928,83.5579 102.5,77.5C 101.782,75.8632 101.616,74.1966 102,72.5C 111.374,78.3842 120.874,84.0509 130.5,89.5C 140.299,83.4296 149.965,77.0962 159.5,70.5C 160.452,72.0453 160.785,73.712 160.5,75.5 Z"/></g>
<g><path style="opacity:1" fill="#83cba4" d="M 68.5,73.5 C 70.8984,79.1772 73.065,85.1772 75,91.5C 76.796,94.927 78.9627,98.0937 81.5,101C 83.9712,101.706 86.3046,101.373 88.5,100C 90.3991,97.0123 92.3991,94.1789 94.5,91.5C 101.167,96.5 107.833,101.5 114.5,106.5C 113.448,106.351 112.448,106.517 111.5,107C 103.471,115.017 94.3044,121.517 84,126.5C 74.6489,121.051 65.4822,115.384 56.5,109.5C 56.1667,110 55.8333,110.5 55.5,111C 56.3146,112.643 57.3146,114.143 58.5,115.5C 53.6854,113.524 52.5188,110.191 55,105.5C 61.6161,101.378 67.7828,96.7115 73.5,91.5C 71.0123,85.7067 69.3456,79.7067 68.5,73.5 Z"/></g>
<g><path style="opacity:1" fill="#5ea17c" d="M 114.5,106.5 C 115.886,108.938 115.553,111.271 113.5,113.5C 104.413,120.46 94.9133,126.793 85,132.5C 75.6941,127.439 66.8608,121.772 58.5,115.5C 57.3146,114.143 56.3146,112.643 55.5,111C 55.8333,110.5 56.1667,110 56.5,109.5C 65.4822,115.384 74.6489,121.051 84,126.5C 94.3044,121.517 103.471,115.017 111.5,107C 112.448,106.517 113.448,106.351 114.5,106.5 Z"/></g>
</svg>
