<svg id="svg" version="1.1" xmlns="http://www.w3.org/2000/svg" xmlns:xlink="http://www.w3.org/1999/xlink" width="400" height="420" viewBox="0, 0, 400,420"><g id="svgg"><path id="path0" d="M186.013 130.900 L 186.027 132.200 186.831 131.234 C 187.459 130.480,187.521 130.197,187.117 129.940 C 186.220 129.371,186.000 129.563,186.013 130.900 M181.850 136.050 C 181.713 136.738,181.600 137.971,181.600 138.790 C 181.600 141.535,180.904 142.800,179.394 142.800 C 177.557 142.800,177.296 144.265,176.962 156.451 C 176.750 164.213,176.574 166.339,176.101 166.883 C 174.099 169.184,163.535 170.375,144.806 170.411 C 133.320 170.433,118.976 171.892,117.403 173.198 C 117.099 173.450,116.186 174.948,115.374 176.528 L 113.898 179.400 113.519 194.800 C 113.310 203.270,113.231 228.920,113.343 251.800 C 113.565 297.098,113.488 295.632,115.818 299.065 C 116.358 299.861,116.800 300.824,116.800 301.207 C 116.800 303.089,111.728 302.992,217.561 303.120 C 321.215 303.245,321.645 303.240,322.736 301.933 C 323.101 301.495,324.120 300.417,325.000 299.537 L 326.600 297.938 326.600 238.469 C 326.600 205.761,326.456 178.484,326.281 177.854 C 325.923 176.570,324.171 176.559,322.764 177.832 C 322.139 178.398,321.935 178.383,320.538 177.672 C 316.807 175.773,306.390 174.480,294.200 174.403 C 288.637 174.367,281.375 173.731,276.600 172.860 C 275.500 172.659,273.540 172.591,272.245 172.708 L 269.891 172.921 266.045 176.913 C 263.930 179.108,261.772 181.286,261.248 181.752 C 260.724 182.218,259.464 183.341,258.448 184.247 C 257.432 185.153,256.060 186.170,255.400 186.507 C 254.740 186.844,253.374 187.848,252.364 188.737 C 251.354 189.627,249.734 190.670,248.764 191.055 C 247.794 191.440,246.007 192.335,244.793 193.043 C 242.770 194.222,240.273 194.965,230.134 197.406 C 225.997 198.402,219.660 198.204,216.770 196.987 C 215.447 196.430,212.458 195.524,210.129 194.974 C 206.851 194.200,205.723 193.756,205.138 193.012 C 204.722 192.483,203.365 191.585,202.122 191.016 C 200.880 190.447,199.025 189.198,198.001 188.240 C 196.977 187.282,195.745 186.373,195.263 186.220 C 194.781 186.067,194.034 185.250,193.602 184.405 C 193.171 183.559,192.269 182.476,191.598 181.998 C 190.850 181.466,189.835 179.988,188.977 178.180 C 188.208 176.557,187.218 174.978,186.779 174.670 C 186.292 174.329,185.667 172.983,185.180 171.224 C 184.740 169.636,183.863 167.314,183.232 166.064 C 180.861 161.366,180.749 146.980,183.041 141.512 C 184.150 138.866,184.261 136.950,183.377 135.689 C 182.531 134.480,182.146 134.571,181.850 136.050 M192.296 155.900 C 190.207 158.080,189.397 164.204,190.639 168.427 C 191.212 170.376,191.788 171.096,196.217 175.400 C 208.035 186.883,214.235 190.028,218.800 186.856 C 219.350 186.474,220.803 185.677,222.030 185.086 C 225.660 183.334,226.230 181.112,223.182 180.597 C 221.095 180.244,217.907 178.871,217.478 178.140 C 217.300 177.838,216.220 177.118,215.078 176.540 C 213.935 175.962,212.240 174.749,211.312 173.845 C 209.522 172.100,207.186 169.991,203.614 166.895 C 202.412 165.853,200.522 164.087,199.414 162.970 C 198.306 161.854,196.912 160.640,196.316 160.271 C 195.596 159.827,195.084 159.030,194.792 157.901 C 193.839 154.213,193.880 154.246,192.296 155.900 M167.646 200.874 C 169.470 201.899,169.581 202.633,168.227 204.709 C 167.292 206.141,167.239 206.599,166.872 216.322 C 166.472 226.893,166.398 227.370,165.318 226.289 C 164.788 225.759,164.597 224.401,164.365 219.513 C 163.964 211.038,163.278 206.120,162.451 205.780 C 162.093 205.633,156.760 205.366,150.600 205.186 C 135.784 204.755,134.096 204.575,132.700 203.275 C 130.365 201.100,131.874 200.835,148.800 200.450 C 156.610 200.272,163.695 200.098,164.546 200.063 C 165.493 200.024,166.692 200.338,167.646 200.874 M306.068 201.323 C 313.357 206.463,315.802 212.132,313.248 217.968 C 312.615 219.416,311.902 221.088,311.664 221.685 C 311.425 222.282,310.459 223.250,309.515 223.836 C 308.572 224.422,307.440 225.314,307.000 225.818 C 304.765 228.379,295.249 227.962,293.327 225.218 C 291.618 222.778,288.368 222.671,285.374 224.958 C 283.552 226.349,283.367 226.400,280.134 226.400 L 276.782 226.400 275.005 224.762 C 274.028 223.861,272.461 222.897,271.524 222.621 C 269.835 222.122,269.815 222.094,269.313 219.559 C 269.035 218.151,268.516 216.224,268.161 215.275 C 267.058 212.331,268.815 204.381,270.562 204.406 C 270.803 204.410,271.630 203.696,272.400 202.820 C 274.943 199.929,283.904 200.072,286.974 203.053 C 288.842 204.868,290.297 204.852,292.353 202.995 C 295.237 200.389,303.342 199.401,306.068 201.323 " stroke="none" fill="#6fc148" fill-rule="evenodd"></path><path id="path1" d="M216.000 110.143 C 215.230 110.447,213.957 110.978,213.170 111.324 C 212.384 111.669,210.494 112.157,208.970 112.407 C 205.056 113.049,202.508 113.928,201.428 115.008 C 200.916 115.520,199.757 116.161,198.852 116.432 C 197.947 116.703,196.279 117.716,195.145 118.684 C 194.012 119.651,192.395 120.795,191.551 121.225 C 190.707 121.656,189.743 122.537,189.409 123.183 C 189.074 123.830,188.181 124.832,187.422 125.410 C 186.664 125.988,185.492 127.322,184.817 128.373 C 184.143 129.424,183.216 130.623,182.758 131.038 C 182.301 131.452,181.740 132.139,181.512 132.565 C 180.690 134.101,183.222 131.722,184.421 129.832 C 185.042 128.852,186.417 127.174,187.475 126.103 C 188.534 125.032,189.819 123.676,190.331 123.090 C 190.842 122.503,192.218 121.476,193.388 120.807 C 194.557 120.138,195.808 119.142,196.167 118.594 C 196.619 117.905,197.565 117.391,199.241 116.925 C 200.771 116.499,202.192 115.766,203.104 114.930 C 204.629 113.533,204.759 113.498,210.946 112.817 C 213.116 112.578,215.726 112.036,216.746 111.611 C 221.532 109.618,223.239 109.649,227.796 111.811 C 230.608 113.145,234.326 113.991,237.407 113.997 C 238.742 113.999,239.368 114.310,241.109 115.833 C 242.261 116.841,243.806 117.832,244.542 118.035 C 245.289 118.241,246.747 119.287,247.840 120.402 C 248.918 121.500,250.043 122.399,250.340 122.399 C 251.197 122.400,253.600 125.034,253.600 125.973 C 253.600 127.029,253.431 127.082,249.015 127.415 C 245.625 127.671,245.363 127.758,244.215 129.002 C 243.547 129.725,242.332 130.594,241.514 130.932 C 240.413 131.388,239.814 132.005,239.197 133.317 C 238.739 134.291,237.932 135.285,237.404 135.526 C 236.875 135.766,236.134 136.467,235.757 137.082 C 235.380 137.697,234.383 138.920,233.542 139.800 C 232.701 140.680,230.931 142.531,229.609 143.914 C 228.287 145.297,226.950 146.917,226.636 147.514 C 226.323 148.111,225.339 149.195,224.451 149.923 C 223.562 150.650,222.615 151.855,222.346 152.600 C 221.351 155.349,216.024 155.135,216.002 152.346 C 216.001 152.206,215.415 151.812,214.700 151.472 C 213.985 151.131,212.775 150.206,212.011 149.415 C 208.319 145.596,202.068 145.815,198.046 149.906 L 195.800 152.190 195.825 155.112 L 195.850 158.035 197.714 159.820 C 198.739 160.802,199.477 161.344,199.354 161.024 C 199.231 160.704,198.542 159.993,197.824 159.445 C 194.968 157.267,195.503 153.608,199.220 149.900 L 201.526 147.600 204.383 147.600 C 208.097 147.600,211.375 149.434,216.060 154.135 C 217.690 155.770,217.860 155.806,220.400 155.056 C 221.732 154.662,222.356 154.209,222.800 153.311 C 223.130 152.645,224.167 151.312,225.104 150.350 C 226.042 149.387,227.752 147.508,228.904 146.173 C 231.358 143.332,235.048 139.127,237.621 136.242 C 238.622 135.119,239.723 133.748,240.067 133.196 C 240.411 132.645,241.211 131.930,241.846 131.609 C 242.481 131.288,243.720 130.540,244.600 129.945 C 246.853 128.424,249.876 128.073,251.272 129.171 C 251.847 129.623,253.103 130.330,254.064 130.742 C 256.415 131.750,256.836 132.362,257.088 135.141 C 257.615 140.953,257.312 141.645,251.800 147.192 C 251.360 147.634,250.460 148.540,249.800 149.204 C 246.954 152.067,244.800 154.468,244.800 154.779 C 244.800 154.963,243.945 156.007,242.900 157.099 C 240.535 159.571,236.959 163.636,235.842 165.122 C 235.379 165.738,234.428 166.863,233.729 167.621 C 233.029 168.380,231.102 170.517,229.445 172.370 C 225.988 176.239,223.406 177.654,220.319 177.372 L 218.600 177.214 220.200 177.623 C 222.841 178.297,227.230 176.502,228.583 174.193 C 229.144 173.236,229.964 172.338,230.406 172.198 C 230.847 172.058,231.492 171.396,231.838 170.727 C 232.184 170.058,233.307 168.654,234.333 167.606 C 235.360 166.558,237.370 164.309,238.800 162.607 C 240.230 160.906,242.230 158.673,243.245 157.646 C 244.259 156.619,245.213 155.388,245.365 154.909 C 245.517 154.431,246.244 153.667,246.980 153.212 C 247.773 152.722,248.572 151.754,248.938 150.839 C 249.371 149.756,249.915 149.169,250.755 148.876 C 251.449 148.634,252.378 147.786,252.962 146.861 C 253.516 145.982,254.313 145.155,254.732 145.022 C 256.686 144.401,258.501 139.397,257.931 136.200 C 257.535 133.977,257.536 131.687,257.933 131.441 C 258.637 131.006,261.224 133.283,262.099 135.108 C 262.824 136.622,263.273 137.063,264.400 137.363 C 265.170 137.568,265.843 137.763,265.896 137.797 C 265.948 137.830,266.173 139.608,266.394 141.747 C 266.835 145.990,267.401 147.471,269.092 148.801 L 270.200 149.672 270.294 157.936 C 270.435 170.337,268.972 169.231,285.080 169.111 L 297.000 169.023 284.711 168.811 C 269.221 168.545,270.726 169.544,270.767 159.557 C 270.802 151.010,270.397 147.474,269.243 146.245 C 268.093 145.022,267.297 142.913,266.793 139.757 C 266.416 137.395,266.170 136.860,265.029 135.920 C 263.534 134.687,262.400 132.585,262.400 131.045 C 262.400 130.241,262.088 129.880,261.001 129.426 C 260.147 129.069,259.429 128.405,259.158 127.721 C 258.341 125.657,258.123 125.408,256.796 125.027 C 255.814 124.746,255.313 124.266,254.838 123.151 C 254.346 121.995,253.915 121.599,252.955 121.419 C 251.579 121.160,250.560 120.221,250.338 119.009 C 250.229 118.414,249.581 118.059,247.723 117.573 C 245.206 116.915,243.200 115.871,243.200 115.219 C 243.200 114.317,241.827 113.675,239.327 113.407 C 236.064 113.057,231.917 111.839,230.000 110.665 C 228.212 109.570,218.380 109.204,216.000 110.143 M255.371 128.629 C 256.275 129.532,256.148 130.000,255.000 130.000 C 254.200 130.000,254.000 129.800,254.000 129.000 C 254.000 127.852,254.468 127.725,255.371 128.629 M180.377 135.073 C 180.100 135.913,179.272 137.475,178.537 138.545 C 177.802 139.615,177.214 140.785,177.232 141.145 C 177.253 141.588,177.331 141.632,177.471 141.281 C 177.585 140.996,178.285 139.862,179.026 138.761 C 180.257 136.932,181.393 134.060,181.029 133.696 C 180.947 133.614,180.653 134.233,180.377 135.073 M175.424 150.479 C 174.946 153.560,174.709 156.821,174.789 159.200 C 174.859 161.290,174.935 163.838,174.958 164.862 C 174.981 165.886,175.129 166.644,175.286 166.547 C 175.444 166.449,175.463 164.082,175.329 161.285 C 175.148 157.494,175.264 154.958,175.783 151.319 C 176.166 148.634,176.413 146.240,176.333 145.998 C 176.252 145.757,175.843 147.773,175.424 150.479 M168.305 168.683 C 168.802 168.779,169.522 168.775,169.905 168.675 C 170.287 168.575,169.880 168.496,169.000 168.501 C 168.120 168.505,167.807 168.587,168.305 168.683 M139.127 169.100 C 143.817 169.164,151.377 169.164,155.927 169.099 C 160.477 169.035,156.640 168.983,147.400 168.983 C 138.160 168.983,134.437 169.036,139.127 169.100 M122.500 169.487 C 123.105 169.578,124.095 169.578,124.700 169.487 C 125.305 169.395,124.810 169.320,123.600 169.320 C 122.390 169.320,121.895 169.395,122.500 169.487 M307.900 169.497 C 309.495 169.573,312.105 169.573,313.700 169.497 C 315.295 169.421,313.990 169.359,310.800 169.359 C 307.610 169.359,306.305 169.421,307.900 169.497 M119.248 170.032 C 117.614 170.686,114.315 173.706,113.745 175.071 C 112.908 177.073,113.116 177.624,113.986 175.708 C 114.903 173.686,117.018 171.720,119.550 170.533 C 121.364 169.684,121.122 169.282,119.248 170.032 M317.514 169.853 C 318.017 169.966,319.547 170.694,320.914 171.469 C 322.281 172.244,324.030 173.086,324.800 173.339 C 326.091 173.764,326.252 174.002,326.873 176.400 C 327.243 177.830,327.558 178.628,327.573 178.173 C 327.656 175.654,326.442 173.418,324.502 172.515 C 323.456 172.028,322.126 171.244,321.546 170.771 C 320.873 170.223,319.787 169.864,318.546 169.779 C 317.476 169.706,317.011 169.739,317.514 169.853 M112.901 179.400 C 112.905 180.280,112.987 180.593,113.083 180.095 C 113.179 179.598,113.175 178.878,113.075 178.495 C 112.975 178.113,112.896 178.520,112.901 179.400 M327.734 182.000 C 327.734 183.650,327.805 184.325,327.891 183.500 C 327.978 182.675,327.978 181.325,327.891 180.500 C 327.805 179.675,327.734 180.350,327.734 182.000 M112.579 197.000 C 112.579 204.260,112.633 207.286,112.699 203.725 C 112.765 200.164,112.766 194.224,112.699 190.525 C 112.633 186.826,112.579 189.740,112.579 197.000 M328.194 238.200 C 328.194 267.460,328.242 279.371,328.300 264.669 C 328.358 249.967,328.358 226.027,328.300 211.469 C 328.242 196.911,328.194 208.940,328.194 238.200 M112.591 256.800 C 112.591 275.830,112.640 283.615,112.700 274.100 C 112.760 264.585,112.760 249.015,112.700 239.500 C 112.640 229.985,112.591 237.770,112.591 256.800 M327.714 295.000 C 327.717 296.100,327.795 296.503,327.887 295.895 C 327.979 295.286,327.977 294.386,327.882 293.895 C 327.787 293.403,327.711 293.900,327.714 295.000 M113.200 297.864 C 113.200 298.082,113.695 298.697,114.300 299.230 L 115.400 300.200 114.400 299.000 C 113.850 298.340,113.355 297.725,113.300 297.633 C 113.245 297.542,113.200 297.645,113.200 297.864 M324.981 301.300 L 323.400 303.000 325.100 301.419 C 326.681 299.948,326.984 299.600,326.681 299.600 C 326.616 299.600,325.851 300.365,324.981 301.300 M173.700 304.300 C 198.945 304.357,240.255 304.357,265.500 304.300 C 290.745 304.243,270.090 304.197,219.600 304.197 C 169.110 304.197,148.455 304.243,173.700 304.300 " stroke="none" fill="#a4e084" fill-rule="evenodd"></path><path id="path2" d="M214.000 108.078 C 212.350 108.284,210.190 108.819,209.200 109.267 C 208.210 109.715,205.892 110.600,204.048 111.233 C 202.204 111.866,200.134 112.812,199.448 113.335 C 198.762 113.859,197.292 114.746,196.183 115.308 C 192.833 117.004,186.217 122.864,183.883 126.200 C 183.422 126.860,182.358 128.191,181.520 129.158 C 180.682 130.126,179.731 131.809,179.407 132.900 C 179.084 133.990,178.224 135.540,177.498 136.344 C 176.353 137.611,176.057 138.415,175.276 142.374 C 174.780 144.886,174.015 147.755,173.575 148.750 C 172.099 152.085,171.783 160.252,172.918 165.702 C 173.165 166.890,170.118 167.139,154.600 167.203 C 129.917 167.304,118.743 167.683,117.555 168.462 C 114.600 170.398,112.078 173.412,111.738 175.412 C 111.312 177.920,111.289 297.001,111.714 298.525 C 111.887 299.144,112.563 300.224,113.217 300.925 C 113.871 301.626,114.815 302.712,115.315 303.338 C 116.919 305.346,114.721 305.290,204.400 305.571 C 286.602 305.828,316.616 305.634,321.720 304.812 C 326.356 304.065,328.332 301.847,329.432 296.154 C 330.713 289.520,331.191 195.301,330.004 183.200 C 329.126 174.244,328.644 173.035,324.726 169.959 C 321.845 167.698,323.197 167.815,297.561 167.600 C 269.531 167.365,272.183 167.915,272.557 162.409 C 273.111 154.265,271.798 142.126,270.222 140.818 C 269.905 140.555,269.163 138.868,268.574 137.070 C 267.958 135.191,267.031 133.290,266.394 132.600 C 265.785 131.940,264.900 130.628,264.427 129.684 C 262.489 125.815,254.972 118.476,250.195 115.790 C 249.011 115.124,247.611 114.174,247.083 113.678 C 246.555 113.182,244.611 112.261,242.762 111.630 C 240.913 110.999,238.320 110.025,237.000 109.466 C 232.998 107.771,221.851 107.098,214.000 108.078 M230.000 110.665 C 231.917 111.839,236.064 113.057,239.327 113.407 C 241.827 113.675,243.200 114.317,243.200 115.219 C 243.200 115.871,245.206 116.915,247.723 117.573 C 249.581 118.059,250.229 118.414,250.338 119.009 C 250.560 120.221,251.579 121.160,252.955 121.419 C 253.915 121.599,254.346 121.995,254.838 123.151 C 255.313 124.266,255.814 124.746,256.796 125.027 C 258.123 125.408,258.341 125.657,259.158 127.721 C 259.429 128.405,260.147 129.069,261.001 129.426 C 262.088 129.880,262.400 130.241,262.400 131.045 C 262.400 132.585,263.534 134.687,265.029 135.920 C 266.170 136.860,266.416 137.395,266.793 139.757 C 267.297 142.913,268.093 145.022,269.243 146.245 C 270.398 147.475,270.802 151.011,270.766 159.593 C 270.725 169.810,267.738 168.614,294.185 168.976 C 317.125 169.290,319.966 169.478,321.579 170.796 C 322.140 171.255,323.456 172.028,324.502 172.515 C 328.438 174.346,328.474 175.014,328.301 242.200 C 328.149 301.279,328.295 297.985,325.703 300.854 C 322.326 304.592,326.550 304.463,213.280 304.300 C 111.667 304.154,117.352 304.294,116.065 301.912 C 115.699 301.236,114.909 300.104,114.308 299.397 C 112.426 297.183,112.340 294.089,112.493 233.600 C 112.652 170.744,112.370 175.590,116.065 172.296 C 119.653 169.096,118.949 169.177,146.200 168.846 L 170.200 168.555 172.600 167.572 L 175.000 166.589 174.939 164.595 C 174.692 156.462,174.785 154.229,175.566 149.600 C 176.820 142.172,177.387 140.112,178.682 138.269 C 179.327 137.351,180.176 135.734,180.570 134.675 C 180.963 133.616,181.958 131.972,182.781 131.022 C 183.604 130.071,184.667 128.662,185.145 127.889 C 185.622 127.117,186.640 126.007,187.407 125.422 C 188.173 124.837,189.074 123.830,189.409 123.183 C 189.743 122.537,190.707 121.656,191.551 121.225 C 192.395 120.795,194.012 119.651,195.145 118.684 C 196.279 117.716,197.947 116.703,198.852 116.432 C 199.757 116.161,200.916 115.520,201.428 115.008 C 202.508 113.928,205.056 113.049,208.970 112.407 C 210.494 112.157,212.384 111.669,213.170 111.324 C 216.986 109.647,217.335 109.590,223.000 109.699 C 227.907 109.795,228.773 109.914,230.000 110.665 M247.171 128.771 C 246.385 128.925,245.125 129.499,244.371 130.046 C 243.617 130.593,242.481 131.300,241.846 131.617 C 241.211 131.934,240.411 132.645,240.067 133.196 C 239.723 133.748,238.622 135.119,237.621 136.242 C 235.048 139.127,231.358 143.332,228.904 146.173 C 227.752 147.508,226.042 149.387,225.104 150.350 C 224.167 151.312,223.130 152.645,222.800 153.311 C 222.356 154.209,221.732 154.662,220.400 155.056 C 217.860 155.806,217.690 155.770,216.060 154.135 C 211.375 149.434,208.097 147.600,204.383 147.600 L 201.526 147.600 199.220 149.900 C 196.245 152.869,195.975 153.430,196.260 156.050 C 196.519 158.419,196.508 158.405,202.462 164.200 C 204.270 165.960,206.571 168.222,207.575 169.226 C 208.579 170.231,209.971 171.386,210.669 171.794 C 211.366 172.202,212.170 172.971,212.455 173.503 C 212.759 174.071,214.051 174.972,215.586 175.685 C 221.682 178.519,224.568 177.828,229.445 172.370 C 231.102 170.517,233.029 168.380,233.729 167.621 C 234.428 166.863,235.379 165.738,235.842 165.122 C 236.959 163.636,240.535 159.571,242.900 157.099 C 243.945 156.007,244.800 154.963,244.800 154.779 C 244.800 154.468,246.954 152.067,249.800 149.204 C 257.122 141.839,256.693 142.395,257.012 139.846 C 257.704 134.302,256.952 131.980,254.064 130.742 C 253.103 130.330,251.862 129.635,251.305 129.196 C 250.253 128.370,249.580 128.300,247.171 128.771 M252.310 134.002 C 255.140 135.727,255.174 138.737,252.400 141.800 C 251.300 143.015,250.400 144.331,250.400 144.724 C 250.400 145.619,249.646 146.400,248.782 146.400 C 247.909 146.400,246.930 147.530,246.577 148.943 C 246.385 149.712,245.874 150.261,245.014 150.620 C 243.501 151.252,243.002 151.818,242.648 153.298 C 242.467 154.055,241.950 154.577,240.979 154.983 C 240.032 155.379,239.384 156.019,239.000 156.937 C 238.674 157.718,237.815 158.666,236.995 159.150 C 236.153 159.647,235.316 160.582,234.968 161.415 C 234.642 162.196,234.065 162.944,233.687 163.077 C 232.735 163.413,231.200 164.844,231.200 165.396 C 231.200 165.647,230.120 166.984,228.800 168.367 C 227.480 169.750,226.400 171.025,226.400 171.201 C 226.400 171.948,223.442 174.393,222.273 174.612 C 219.383 175.153,216.160 174.194,214.371 172.261 C 213.300 171.104,212.252 170.386,211.399 170.226 C 210.394 170.038,210.017 169.721,209.810 168.890 C 209.462 167.498,208.475 166.400,207.571 166.400 C 206.295 166.400,205.600 165.928,205.594 165.057 C 205.585 163.760,205.074 163.200,203.364 162.612 C 202.041 162.157,201.748 161.840,201.404 160.490 C 201.182 159.617,200.767 158.626,200.481 158.288 C 198.132 155.503,203.778 149.427,206.460 151.854 C 206.831 152.190,207.915 152.694,208.868 152.973 C 209.845 153.260,210.781 153.837,211.016 154.298 C 211.730 155.702,212.491 156.427,213.842 156.992 C 214.559 157.292,215.422 158.069,215.759 158.720 C 216.870 160.870,218.760 160.979,220.626 159.000 C 221.352 158.230,222.208 157.600,222.529 157.600 C 223.507 157.600,224.890 156.216,225.357 154.770 C 225.661 153.831,226.080 153.360,226.692 153.273 C 227.644 153.138,229.200 151.449,229.200 150.551 C 229.200 150.254,229.934 149.547,230.831 148.981 C 231.778 148.382,232.698 147.385,233.026 146.600 C 233.336 145.856,234.085 145.011,234.689 144.722 C 235.293 144.432,236.206 143.435,236.719 142.505 C 237.232 141.575,238.135 140.526,238.726 140.174 C 239.317 139.822,240.250 138.812,240.800 137.929 C 243.647 133.361,248.527 131.695,252.310 134.002 M145.500 137.030 C 144.868 137.669,145.247 138.779,146.371 139.579 C 147.015 140.038,147.748 141.035,147.998 141.794 C 148.253 142.567,149.147 143.724,150.027 144.421 C 150.892 145.107,151.600 145.888,151.600 146.158 C 151.600 146.427,152.365 147.568,153.300 148.693 C 154.235 149.819,155.595 151.473,156.323 152.370 C 157.966 154.395,158.401 154.399,160.400 152.400 C 162.543 150.257,163.307 151.426,152.000 139.537 C 149.825 137.249,146.537 135.982,145.500 137.030 M293.323 141.100 C 291.122 143.245,289.008 145.488,288.625 146.084 C 288.242 146.681,287.540 147.287,287.064 147.430 C 283.629 148.470,283.824 154.135,287.272 153.446 C 287.947 153.311,289.095 153.200,289.821 153.200 C 291.427 153.200,292.400 152.315,292.400 150.855 C 292.400 150.164,292.903 149.233,293.778 148.305 C 294.536 147.502,295.434 146.308,295.772 145.654 C 296.111 144.999,296.924 144.081,297.579 143.615 C 298.402 143.029,298.844 142.309,299.010 141.283 C 299.143 140.468,299.414 139.398,299.613 138.908 C 299.898 138.206,299.813 137.928,299.214 137.608 C 297.844 136.874,297.372 137.155,293.323 141.100 M128.546 144.010 C 127.262 145.949,127.592 147.172,129.683 148.226 C 130.407 148.591,131.557 149.417,132.237 150.062 C 132.940 150.728,134.528 151.554,135.911 151.973 C 137.668 152.505,138.773 153.153,139.874 154.297 C 141.025 155.494,141.831 155.950,143.152 156.155 C 144.325 156.336,145.251 156.798,145.957 157.554 C 147.743 159.466,149.422 160.114,151.815 159.815 C 155.753 159.323,156.317 156.982,152.926 155.200 C 151.879 154.650,149.973 153.523,148.690 152.695 C 147.408 151.868,145.243 150.632,143.879 149.950 C 142.516 149.268,141.130 148.480,140.800 148.198 C 140.153 147.646,130.247 142.400,129.851 142.400 C 129.719 142.400,129.132 143.124,128.546 144.010 M313.600 144.914 C 311.510 145.590,309.658 146.377,309.484 146.663 C 309.061 147.363,306.159 148.997,304.288 149.590 C 303.457 149.854,301.887 150.669,300.799 151.401 C 299.711 152.133,298.231 152.846,297.510 152.986 C 292.836 153.893,292.207 154.274,291.803 156.439 C 291.010 160.681,297.679 161.541,300.801 157.599 C 301.831 156.298,302.391 155.979,304.313 155.598 C 306.169 155.230,306.864 154.852,308.000 153.596 C 309.079 152.402,309.996 151.876,311.999 151.302 C 313.753 150.799,314.733 150.285,315.015 149.721 C 315.705 148.337,316.459 147.600,317.187 147.600 C 318.555 147.600,319.453 146.087,318.787 144.905 C 317.999 143.508,317.952 143.508,313.600 144.914 " stroke="none" fill="#b0e494" fill-rule="evenodd"></path><path id="path3" d="M246.000 1.000 L 246.000 2.000 237.300 2.040 C 226.785 2.088,226.713 2.103,226.243 4.318 L 225.886 6.000 220.572 6.000 C 214.594 6.000,214.000 6.237,214.000 8.629 L 214.000 10.000 209.300 10.040 C 203.078 10.093,202.688 10.218,202.243 12.318 L 201.886 14.000 198.423 14.000 C 194.479 14.000,194.000 14.268,194.000 16.480 L 194.000 18.000 189.300 18.040 C 183.078 18.093,182.688 18.218,182.243 20.318 L 181.886 22.000 179.243 22.040 C 175.207 22.101,174.661 22.349,174.243 24.318 L 173.886 26.000 171.243 26.040 C 167.207 26.101,166.661 26.349,166.243 28.318 L 165.886 30.000 163.243 30.040 C 159.216 30.101,158.660 30.352,158.247 32.298 C 157.901 33.932,157.863 33.963,156.047 34.080 L 154.200 34.200 154.078 36.100 L 153.956 38.000 150.458 38.000 C 146.476 38.000,146.000 38.265,146.000 40.480 L 146.000 42.000 143.300 42.040 C 139.204 42.100,138.662 42.344,138.243 44.318 C 137.903 45.922,137.819 46.000,136.423 46.000 C 134.564 46.000,134.000 46.578,134.000 48.480 L 134.000 50.000 131.300 50.040 C 127.204 50.100,126.662 50.344,126.243 52.318 C 125.903 53.922,125.819 54.000,124.423 54.000 C 122.564 54.000,122.000 54.578,122.000 56.480 L 122.000 58.000 119.300 58.040 C 115.204 58.100,114.662 58.344,114.243 60.318 C 113.903 61.922,113.819 62.000,112.423 62.000 C 110.569 62.000,110.000 62.577,110.000 64.458 L 110.000 65.956 108.100 66.078 L 106.200 66.200 106.078 68.100 L 105.956 70.000 102.607 70.000 C 98.765 70.000,98.000 70.437,98.000 72.629 C 98.000 73.950,97.944 74.000,96.480 74.000 C 94.569 74.000,94.000 74.564,94.000 76.458 L 94.000 77.956 92.100 78.078 L 90.200 78.200 90.078 80.100 L 89.956 82.000 87.278 82.040 C 83.205 82.101,82.661 82.346,82.243 84.318 C 81.912 85.880,81.793 86.000,80.572 86.000 C 78.883 86.000,78.000 86.903,78.000 88.629 C 78.000 89.924,77.924 90.000,76.629 90.000 C 74.886 90.000,74.000 90.886,74.000 92.629 C 74.000 93.950,73.944 94.000,72.480 94.000 C 70.569 94.000,70.000 94.564,70.000 96.458 L 70.000 97.956 68.100 98.078 L 66.200 98.200 66.079 100.079 L 65.958 101.958 64.079 102.079 L 62.200 102.200 62.079 104.079 L 61.958 105.958 60.079 106.079 L 58.200 106.200 58.079 108.079 L 57.958 109.958 56.079 110.079 L 54.200 110.200 54.079 112.079 L 53.958 113.958 52.079 114.079 L 50.200 114.200 50.079 116.079 L 49.958 117.958 48.079 118.079 L 46.200 118.200 46.079 120.079 L 45.958 121.958 44.079 122.079 L 42.200 122.200 42.078 124.100 C 41.958 125.967,41.933 126.000,40.607 126.000 C 38.885 126.000,38.000 126.892,38.000 128.629 C 38.000 129.924,37.924 130.000,36.629 130.000 C 34.437 130.000,34.000 130.765,34.000 134.607 L 34.000 137.956 32.100 138.078 L 30.200 138.200 30.079 140.079 L 29.958 141.958 28.079 142.079 L 26.200 142.200 26.078 144.100 C 25.958 145.967,25.933 146.000,24.607 146.000 C 22.438 146.000,22.000 146.773,22.000 150.607 L 22.000 153.956 20.100 154.078 L 18.200 154.200 18.086 158.079 L 17.972 161.957 16.086 162.079 L 14.200 162.200 14.078 164.100 C 13.958 165.967,13.933 166.000,12.607 166.000 C 10.237 166.000,10.000 166.600,10.000 172.607 L 10.000 177.956 8.100 178.078 L 6.200 178.200 6.086 182.100 L 5.971 186.000 4.614 186.000 C 2.122 186.000,2.000 186.403,2.000 194.629 L 2.000 202.000 1.000 202.000 L 0.000 202.000 0.000 230.000 L 0.000 258.000 1.000 258.000 L 2.000 258.000 2.040 264.700 C 2.090 273.065,2.148 273.297,4.318 273.757 L 6.000 274.114 6.040 278.757 C 6.093 284.919,6.221 285.312,8.318 285.757 L 10.000 286.114 10.000 289.428 C 10.000 293.232,10.442 294.000,12.629 294.000 L 14.000 294.000 14.000 297.520 C 14.000 301.525,14.263 302.000,16.480 302.000 L 18.000 302.000 18.000 305.371 C 18.000 309.237,18.434 310.000,20.629 310.000 L 22.000 310.000 22.040 312.700 C 22.100 316.787,22.347 317.339,24.298 317.753 C 25.932 318.099,25.963 318.137,26.080 319.953 L 26.200 321.800 28.100 321.922 L 30.000 322.044 30.000 325.393 C 30.000 329.235,30.437 330.000,32.629 330.000 C 33.950 330.000,34.000 330.056,34.000 331.520 C 34.000 333.431,34.564 334.000,36.458 334.000 L 37.956 334.000 38.078 335.900 L 38.200 337.800 40.100 337.922 L 42.000 338.044 42.040 340.722 C 42.101 344.795,42.346 345.339,44.318 345.757 C 45.880 346.088,46.000 346.207,46.000 347.428 C 46.000 349.117,46.903 350.000,48.629 350.000 C 49.924 350.000,50.000 350.076,50.000 351.371 C 50.000 353.114,50.886 354.000,52.629 354.000 C 53.924 354.000,54.000 354.076,54.000 355.371 C 54.000 357.114,54.886 358.000,56.629 358.000 C 57.924 358.000,58.000 358.076,58.000 359.371 C 58.000 361.114,58.886 362.000,60.629 362.000 C 61.924 362.000,62.000 362.076,62.000 363.371 C 62.000 365.097,62.883 366.000,64.572 366.000 C 65.793 366.000,65.912 366.120,66.243 367.682 C 66.661 369.654,67.205 369.899,71.278 369.960 L 73.956 370.000 74.078 371.900 L 74.200 373.800 76.100 373.922 L 78.000 374.044 78.000 375.542 C 78.000 377.436,78.569 378.000,80.480 378.000 C 81.944 378.000,82.000 378.050,82.000 379.371 C 82.000 381.563,82.765 382.000,86.607 382.000 L 89.956 382.000 90.078 383.900 L 90.200 385.800 92.047 385.920 C 93.863 386.037,93.901 386.068,94.247 387.702 C 94.661 389.653,95.213 389.900,99.300 389.960 L 102.000 390.000 102.000 391.371 C 102.000 393.566,102.763 394.000,106.629 394.000 L 110.000 394.000 110.000 395.371 C 110.000 397.566,110.763 398.000,114.629 398.000 L 118.000 398.000 118.000 399.371 C 118.000 401.558,118.768 402.000,122.572 402.000 L 125.886 402.000 126.243 403.682 C 126.688 405.782,127.078 405.907,133.300 405.960 L 138.000 406.000 138.000 407.371 C 138.000 409.763,138.594 410.000,144.572 410.000 L 149.886 410.000 150.243 411.682 C 150.713 413.897,150.785 413.912,161.300 413.960 L 170.000 414.000 170.000 415.520 C 170.000 418.163,167.573 418.004,207.180 417.960 C 247.401 417.916,245.256 418.043,245.757 415.682 L 246.114 414.000 251.577 414.000 C 257.679 414.000,258.000 413.876,258.000 411.520 L 258.000 410.000 262.700 409.960 C 268.922 409.907,269.312 409.782,269.757 407.682 L 270.114 406.000 272.757 405.960 C 276.784 405.899,277.340 405.648,277.753 403.702 C 278.099 402.068,278.137 402.037,279.953 401.920 L 281.800 401.800 281.922 399.900 L 282.044 398.000 285.393 398.000 C 289.227 398.000,290.000 397.562,290.000 395.393 C 290.000 394.067,290.033 394.042,291.900 393.922 L 293.800 393.800 293.921 391.921 L 294.042 390.042 295.921 389.921 L 297.800 389.800 297.922 387.900 L 298.044 386.000 300.722 385.960 C 304.795 385.899,305.339 385.654,305.757 383.682 C 306.088 382.120,306.207 382.000,307.428 382.000 C 309.117 382.000,310.000 381.097,310.000 379.371 C 310.000 378.076,310.076 378.000,311.371 378.000 C 313.114 378.000,314.000 377.114,314.000 375.371 C 314.000 374.076,314.076 374.000,315.371 374.000 C 317.097 374.000,318.000 373.117,318.000 371.428 C 318.000 370.207,318.120 370.088,319.682 369.757 C 321.654 369.339,321.899 368.795,321.960 364.722 L 322.000 362.044 323.900 361.922 L 325.800 361.800 325.921 359.921 L 326.042 358.042 327.921 357.921 L 329.800 357.800 329.922 355.900 C 330.042 354.033,330.067 354.000,331.393 354.000 C 333.562 354.000,334.000 353.227,334.000 349.393 L 334.000 346.044 335.900 345.922 L 337.800 345.800 337.922 343.900 C 338.042 342.033,338.067 342.000,339.393 342.000 C 341.562 342.000,342.000 341.227,342.000 337.393 L 342.000 334.044 343.900 333.922 L 345.800 333.800 345.914 329.921 L 346.028 326.043 347.914 325.921 L 349.800 325.800 349.922 323.900 C 350.042 322.033,350.067 322.000,351.393 322.000 C 353.565 322.000,354.000 321.228,354.000 317.371 L 354.000 314.000 355.371 314.000 C 357.566 314.000,358.000 313.237,358.000 309.371 L 358.000 306.000 359.371 306.000 C 361.566 306.000,362.000 305.237,362.000 301.371 L 362.000 298.000 363.371 298.000 C 365.765 298.000,366.000 297.410,366.000 291.393 L 366.000 286.044 367.900 285.922 L 369.800 285.800 369.914 281.900 L 370.029 278.000 371.386 278.000 C 373.765 278.000,374.000 277.405,374.000 271.371 L 374.000 266.000 375.520 266.000 C 377.878 266.000,378.000 265.682,378.000 259.542 L 378.000 254.044 379.900 253.922 L 381.800 253.800 381.914 249.954 L 382.028 246.108 383.696 245.754 C 385.850 245.297,385.910 245.056,385.960 236.700 L 386.000 230.000 387.520 230.000 C 389.876 230.000,390.000 229.679,390.000 223.577 L 390.000 218.114 391.682 217.757 C 393.897 217.287,393.912 217.215,393.960 206.700 L 394.000 198.000 395.520 198.000 C 398.040 198.000,398.000 198.200,398.000 185.520 L 398.000 174.000 399.000 174.000 L 400.000 174.000 400.000 142.000 L 400.000 110.000 399.000 110.000 L 398.000 110.000 398.000 100.480 C 398.000 89.975,398.006 90.000,395.520 90.000 L 394.000 90.000 394.000 84.480 C 394.000 78.316,393.879 78.000,391.520 78.000 L 390.000 78.000 389.960 73.300 C 389.907 67.078,389.782 66.688,387.682 66.243 L 386.000 65.886 385.960 63.243 C 385.899 59.216,385.648 58.660,383.702 58.247 C 382.068 57.901,382.037 57.863,381.920 56.047 L 381.800 54.200 379.900 54.078 L 378.000 53.956 378.000 50.607 C 378.000 46.773,377.562 46.000,375.393 46.000 C 374.067 46.000,374.042 45.967,373.922 44.100 L 373.800 42.200 371.921 42.079 L 370.042 41.958 369.921 40.079 L 369.800 38.200 367.921 38.079 L 366.042 37.958 365.921 36.079 L 365.800 34.200 363.921 34.079 L 362.042 33.958 361.921 32.079 L 361.800 30.200 359.921 30.079 L 358.042 29.958 357.921 28.079 L 357.800 26.200 355.900 26.078 L 354.000 25.956 354.000 24.458 C 354.000 22.564,353.431 22.000,351.520 22.000 C 350.056 22.000,350.000 21.950,350.000 20.629 C 350.000 18.437,349.235 18.000,345.393 18.000 L 342.044 18.000 341.922 16.100 L 341.800 14.200 337.921 14.086 L 334.043 13.972 333.921 12.086 L 333.800 10.200 329.921 10.086 L 326.043 9.972 325.921 8.086 L 325.800 6.200 321.900 6.086 L 318.000 5.971 318.000 4.614 C 318.000 2.122,317.597 2.000,309.371 2.000 L 302.000 2.000 302.000 1.000 L 302.000 0.000 274.000 0.000 L 246.000 0.000 246.000 1.000 M230.458 108.025 C 233.218 108.308,235.401 108.789,237.000 109.466 C 238.320 110.025,240.913 110.999,242.762 111.630 C 244.611 112.261,246.555 113.182,247.083 113.678 C 247.611 114.174,249.011 115.124,250.195 115.790 C 254.972 118.476,262.489 125.815,264.427 129.684 C 264.900 130.628,265.785 131.940,266.394 132.600 C 267.031 133.290,267.958 135.191,268.574 137.070 C 269.163 138.868,269.905 140.555,270.222 140.818 C 271.798 142.126,273.111 154.265,272.557 162.409 C 272.183 167.915,269.531 167.365,297.561 167.600 C 323.197 167.815,321.845 167.698,324.726 169.959 C 328.644 173.035,329.126 174.244,330.004 183.200 C 331.191 195.301,330.713 289.520,329.432 296.154 C 328.332 301.847,326.356 304.065,321.720 304.812 C 316.616 305.634,286.602 305.828,204.400 305.571 C 114.721 305.290,116.919 305.346,115.315 303.338 C 114.815 302.712,113.871 301.626,113.217 300.925 C 112.563 300.224,111.887 299.144,111.714 298.525 C 111.289 297.001,111.312 177.920,111.738 175.412 C 112.078 173.412,114.600 170.398,117.555 168.462 C 118.743 167.683,129.917 167.304,154.600 167.203 C 170.118 167.139,173.165 166.890,172.918 165.702 C 171.783 160.252,172.099 152.085,173.575 148.750 C 174.015 147.755,174.780 144.886,175.276 142.374 C 176.057 138.415,176.353 137.611,177.498 136.344 C 178.224 135.540,179.084 133.990,179.407 132.900 C 179.731 131.809,180.682 130.126,181.520 129.158 C 182.358 128.191,183.422 126.860,183.883 126.200 C 186.217 122.864,192.833 117.004,196.183 115.308 C 197.292 114.746,198.762 113.859,199.448 113.335 C 200.134 112.812,202.204 111.866,204.048 111.233 C 205.892 110.600,208.210 109.715,209.200 109.267 C 212.546 107.752,222.262 107.184,230.458 108.025 M243.491 134.762 C 242.561 135.622,241.350 137.047,240.800 137.929 C 240.250 138.812,239.317 139.822,238.726 140.174 C 238.135 140.526,237.232 141.575,236.719 142.505 C 236.206 143.435,235.293 144.432,234.689 144.722 C 234.085 145.011,233.336 145.856,233.026 146.600 C 232.698 147.385,231.778 148.382,230.831 148.981 C 229.934 149.547,229.200 150.254,229.200 150.551 C 229.200 151.449,227.644 153.138,226.692 153.273 C 226.080 153.360,225.661 153.831,225.357 154.770 C 224.890 156.216,223.507 157.600,222.529 157.600 C 222.208 157.600,221.352 158.230,220.626 159.000 C 218.760 160.979,216.870 160.870,215.759 158.720 C 215.422 158.069,214.559 157.292,213.842 156.992 C 212.491 156.427,211.730 155.702,211.016 154.298 C 210.781 153.837,209.845 153.260,208.868 152.973 C 207.915 152.694,206.831 152.190,206.460 151.854 C 203.778 149.427,198.132 155.503,200.481 158.288 C 200.767 158.626,201.182 159.617,201.404 160.490 C 201.748 161.840,202.041 162.157,203.364 162.612 C 205.074 163.200,205.585 163.760,205.594 165.057 C 205.600 165.928,206.295 166.400,207.571 166.400 C 208.475 166.400,209.462 167.498,209.810 168.890 C 210.017 169.721,210.394 170.038,211.399 170.226 C 212.252 170.386,213.300 171.104,214.371 172.261 C 216.160 174.194,219.383 175.153,222.273 174.612 C 223.442 174.393,226.400 171.948,226.400 171.201 C 226.400 171.025,227.480 169.750,228.800 168.367 C 230.120 166.984,231.200 165.647,231.200 165.396 C 231.200 164.844,232.735 163.413,233.687 163.077 C 234.065 162.944,234.642 162.196,234.968 161.415 C 235.316 160.582,236.153 159.647,236.995 159.150 C 237.815 158.666,238.674 157.718,239.000 156.937 C 239.384 156.019,240.032 155.379,240.979 154.983 C 241.950 154.577,242.467 154.055,242.648 153.298 C 243.002 151.818,243.501 151.252,245.014 150.620 C 245.874 150.261,246.385 149.712,246.577 148.943 C 246.930 147.530,247.909 146.400,248.782 146.400 C 249.646 146.400,250.400 145.619,250.400 144.724 C 250.400 144.331,251.300 143.015,252.400 141.800 C 256.478 137.297,254.427 133.205,248.091 133.201 C 245.263 133.200,245.135 133.244,243.491 134.762 M152.000 139.537 C 163.307 151.426,162.543 150.257,160.400 152.400 C 158.401 154.399,157.966 154.395,156.323 152.370 C 155.595 151.473,154.235 149.819,153.300 148.693 C 152.365 147.568,151.600 146.427,151.600 146.158 C 151.600 145.888,150.892 145.107,150.027 144.421 C 149.147 143.724,148.253 142.567,147.998 141.794 C 147.748 141.035,147.015 140.038,146.371 139.579 C 144.146 137.995,144.903 136.615,147.800 136.975 C 149.583 137.196,150.039 137.475,152.000 139.537 M299.214 137.608 C 299.813 137.928,299.898 138.206,299.613 138.908 C 299.414 139.398,299.143 140.468,299.010 141.283 C 298.844 142.309,298.402 143.029,297.579 143.615 C 296.924 144.081,296.111 144.999,295.772 145.654 C 295.434 146.308,294.536 147.502,293.778 148.305 C 292.903 149.233,292.400 150.164,292.400 150.855 C 292.400 152.315,291.427 153.200,289.821 153.200 C 289.095 153.200,287.947 153.311,287.272 153.446 C 283.824 154.135,283.629 148.470,287.064 147.430 C 287.540 147.287,288.242 146.681,288.625 146.084 C 289.667 144.462,297.239 137.200,297.889 137.200 C 298.199 137.200,298.795 137.383,299.214 137.608 M135.145 145.043 C 137.925 146.496,140.470 147.916,140.800 148.198 C 141.130 148.480,142.516 149.268,143.879 149.950 C 145.243 150.632,147.408 151.868,148.690 152.695 C 149.973 153.523,151.879 154.650,152.926 155.200 C 156.317 156.982,155.753 159.323,151.815 159.815 C 149.422 160.114,147.743 159.466,145.957 157.554 C 145.251 156.798,144.325 156.336,143.152 156.155 C 141.831 155.950,141.025 155.494,139.874 154.297 C 138.773 153.153,137.668 152.505,135.911 151.973 C 134.528 151.554,132.940 150.728,132.237 150.062 C 131.557 149.417,130.407 148.591,129.683 148.226 C 127.592 147.172,127.262 145.949,128.546 144.010 C 129.859 142.026,129.166 141.917,135.145 145.043 M318.787 144.905 C 319.453 146.087,318.555 147.600,317.187 147.600 C 316.459 147.600,315.705 148.337,315.015 149.721 C 314.733 150.285,313.753 150.799,311.999 151.302 C 309.996 151.876,309.079 152.402,308.000 153.596 C 306.864 154.852,306.169 155.230,304.313 155.598 C 302.391 155.979,301.831 156.298,300.801 157.599 C 297.679 161.541,291.010 160.681,291.803 156.439 C 292.207 154.274,292.836 153.893,297.510 152.986 C 298.231 152.846,299.711 152.133,300.799 151.401 C 301.887 150.669,303.457 149.854,304.288 149.590 C 306.159 148.997,309.061 147.363,309.484 146.663 C 309.805 146.134,317.066 143.612,317.800 143.775 C 318.020 143.824,318.464 144.332,318.787 144.905 " stroke="none" fill="#fcfcfc" fill-rule="evenodd"></path><path id="path4" d="M219.600 110.570 C 218.610 110.867,217.138 111.397,216.328 111.748 C 215.518 112.100,213.088 112.582,210.928 112.820 C 204.762 113.498,204.628 113.534,203.104 114.930 C 202.192 115.766,200.771 116.499,199.241 116.925 C 197.565 117.391,196.619 117.905,196.167 118.594 C 195.808 119.142,194.557 120.138,193.388 120.807 C 192.218 121.476,190.842 122.503,190.331 123.090 C 189.819 123.676,188.534 125.032,187.475 126.103 C 186.417 127.174,185.042 128.852,184.421 129.832 C 183.799 130.812,182.843 131.966,182.296 132.396 C 181.721 132.848,181.113 133.923,180.857 134.939 C 180.613 135.907,179.776 137.647,178.996 138.805 C 177.352 141.249,177.097 142.189,175.965 150.000 C 175.344 154.283,175.160 157.210,175.262 161.190 L 175.400 166.580 172.600 167.742 L 169.800 168.903 145.800 169.189 L 121.800 169.475 119.600 170.521 C 112.187 174.045,112.382 171.605,112.796 255.671 L 113.000 297.142 113.898 298.271 C 114.392 298.892,115.160 300.072,115.603 300.894 C 117.340 304.109,106.237 303.800,219.982 303.800 C 314.045 303.800,321.489 303.751,322.621 303.131 C 324.595 302.048,327.115 299.041,327.475 297.336 C 327.654 296.491,327.795 269.610,327.788 237.600 C 327.774 171.461,327.909 174.362,324.800 173.339 C 324.030 173.086,322.230 172.204,320.800 171.380 L 318.200 169.881 310.600 169.571 C 306.420 169.401,296.286 169.247,288.080 169.230 C 268.479 169.190,270.436 170.433,270.294 157.936 L 270.200 149.672 269.092 148.801 C 267.401 147.471,266.835 145.990,266.394 141.747 C 266.173 139.608,265.948 137.830,265.896 137.797 C 265.843 137.763,265.170 137.568,264.400 137.363 C 263.273 137.063,262.824 136.622,262.099 135.108 C 261.224 133.283,258.637 131.006,257.933 131.441 C 257.536 131.687,257.535 133.977,257.931 136.200 C 258.501 139.397,256.686 144.401,254.732 145.022 C 254.313 145.155,253.516 145.982,252.962 146.861 C 252.378 147.786,251.449 148.634,250.755 148.876 C 249.915 149.169,249.371 149.756,248.938 150.839 C 248.572 151.754,247.773 152.722,246.980 153.212 C 246.244 153.667,245.517 154.431,245.365 154.909 C 245.213 155.388,244.259 156.619,243.245 157.646 C 242.230 158.673,240.230 160.906,238.800 162.607 C 237.370 164.309,235.360 166.558,234.333 167.606 C 233.307 168.654,232.184 170.058,231.838 170.727 C 231.492 171.396,230.847 172.058,230.406 172.198 C 229.964 172.338,229.146 173.233,228.587 174.185 C 225.761 179.008,217.476 178.631,212.110 173.436 C 210.242 171.628,207.864 169.484,202.900 165.133 C 201.085 163.542,199.600 162.103,199.600 161.934 C 199.600 161.766,198.756 160.819,197.725 159.831 L 195.850 158.035 195.825 155.112 L 195.800 152.190 198.046 149.906 C 202.068 145.815,208.319 145.596,212.011 149.415 C 212.775 150.206,213.985 151.131,214.700 151.472 C 215.415 151.812,216.001 152.206,216.002 152.346 C 216.024 155.135,221.351 155.349,222.346 152.600 C 222.615 151.855,223.562 150.650,224.451 149.923 C 225.339 149.195,226.323 148.111,226.636 147.514 C 226.950 146.917,228.287 145.297,229.609 143.914 C 230.931 142.531,232.701 140.680,233.542 139.800 C 234.383 138.920,235.380 137.697,235.757 137.082 C 236.134 136.467,236.875 135.766,237.404 135.526 C 237.932 135.285,238.739 134.291,239.197 133.317 C 239.814 132.005,240.413 131.388,241.514 130.932 C 242.332 130.594,243.547 129.725,244.215 129.002 C 245.363 127.758,245.625 127.671,249.015 127.415 C 253.431 127.082,253.600 127.029,253.600 125.973 C 253.600 125.034,251.197 122.400,250.340 122.399 C 250.043 122.399,248.918 121.500,247.840 120.402 C 246.747 119.287,245.289 118.241,244.542 118.035 C 243.806 117.832,242.261 116.841,241.109 115.833 C 239.368 114.310,238.742 113.999,237.407 113.997 C 234.300 113.991,230.599 113.141,227.707 111.769 C 224.292 110.148,222.093 109.823,219.600 110.570 M254.000 129.000 C 254.000 129.800,254.200 130.000,255.000 130.000 C 256.148 130.000,256.275 129.532,255.371 128.629 C 254.468 127.725,254.000 127.852,254.000 129.000 M187.117 129.940 C 187.521 130.197,187.459 130.480,186.831 131.234 L 186.027 132.200 186.013 130.900 C 186.000 129.563,186.220 129.371,187.117 129.940 M183.377 135.689 C 184.261 136.950,184.150 138.866,183.041 141.512 C 180.749 146.980,180.861 161.366,183.232 166.064 C 183.863 167.314,184.740 169.636,185.180 171.224 C 185.667 172.983,186.292 174.329,186.779 174.670 C 187.218 174.978,188.208 176.557,188.977 178.180 C 189.835 179.988,190.850 181.466,191.598 181.998 C 192.269 182.476,193.171 183.559,193.602 184.405 C 194.034 185.250,194.781 186.067,195.263 186.220 C 195.745 186.373,196.977 187.282,198.001 188.240 C 199.025 189.198,200.880 190.447,202.122 191.016 C 203.365 191.585,204.722 192.483,205.138 193.012 C 205.723 193.756,206.851 194.200,210.129 194.974 C 212.458 195.524,215.447 196.430,216.770 196.987 C 219.660 198.204,225.997 198.402,230.134 197.406 C 240.273 194.965,242.770 194.222,244.793 193.043 C 246.007 192.335,247.794 191.440,248.764 191.055 C 249.734 190.670,251.354 189.627,252.364 188.737 C 253.374 187.848,254.740 186.844,255.400 186.507 C 256.060 186.170,257.432 185.153,258.448 184.247 C 259.464 183.341,260.724 182.218,261.248 181.752 C 261.772 181.286,263.930 179.108,266.045 176.913 L 269.891 172.921 272.245 172.708 C 273.540 172.591,275.500 172.659,276.600 172.860 C 281.375 173.731,288.637 174.367,294.200 174.403 C 306.390 174.480,316.807 175.773,320.538 177.672 C 321.935 178.383,322.139 178.398,322.764 177.832 C 324.171 176.559,325.923 176.570,326.281 177.854 C 326.456 178.484,326.600 205.761,326.600 238.469 L 326.600 297.938 325.000 299.537 C 324.120 300.417,323.101 301.495,322.736 301.933 C 321.645 303.240,321.215 303.245,217.561 303.120 C 111.728 302.992,116.800 303.089,116.800 301.207 C 116.800 300.824,116.358 299.861,115.818 299.065 C 113.488 295.632,113.565 297.098,113.343 251.800 C 113.231 228.920,113.310 203.270,113.519 194.800 L 113.898 179.400 115.374 176.528 C 116.186 174.948,117.099 173.450,117.403 173.198 C 118.976 171.892,133.320 170.433,144.806 170.411 C 163.535 170.375,174.099 169.184,176.101 166.883 C 176.574 166.339,176.750 164.213,176.962 156.451 C 177.296 144.265,177.557 142.800,179.394 142.800 C 180.904 142.800,181.600 141.535,181.600 138.790 C 181.600 135.222,182.253 134.083,183.377 135.689 M194.149 155.500 C 194.261 155.885,194.550 156.965,194.792 157.901 C 195.084 159.030,195.596 159.827,196.316 160.271 C 196.912 160.640,198.306 161.854,199.414 162.970 C 200.522 164.087,202.412 165.853,203.614 166.895 C 207.186 169.991,209.522 172.100,211.312 173.845 C 212.240 174.749,213.935 175.962,215.078 176.540 C 216.220 177.118,217.300 177.838,217.478 178.140 C 217.907 178.871,221.095 180.244,223.182 180.597 C 226.230 181.112,225.660 183.334,222.030 185.086 C 220.803 185.677,219.350 186.474,218.800 186.856 C 215.626 189.062,209.121 187.122,203.601 182.324 C 190.524 170.958,188.526 167.426,190.621 159.384 C 191.447 156.212,193.652 153.785,194.149 155.500 M148.800 200.450 C 131.874 200.835,130.365 201.100,132.700 203.275 C 134.096 204.575,135.784 204.755,150.600 205.186 C 156.760 205.366,162.093 205.633,162.451 205.780 C 163.278 206.120,163.964 211.038,164.365 219.513 C 164.597 224.401,164.788 225.759,165.318 226.289 C 166.398 227.370,166.472 226.893,166.872 216.322 C 167.239 206.599,167.292 206.141,168.227 204.709 C 169.953 202.063,168.248 199.912,164.546 200.063 C 163.695 200.098,156.610 200.272,148.800 200.450 M295.454 200.998 C 294.604 201.324,293.208 202.222,292.353 202.995 C 290.297 204.852,288.842 204.868,286.974 203.053 C 283.904 200.072,274.943 199.929,272.400 202.820 C 271.630 203.696,270.803 204.410,270.562 204.406 C 268.815 204.381,267.058 212.331,268.161 215.275 C 268.516 216.224,269.035 218.151,269.313 219.559 C 269.815 222.094,269.835 222.122,271.524 222.621 C 272.461 222.897,274.028 223.861,275.005 224.762 L 276.782 226.400 280.134 226.400 C 283.367 226.400,283.552 226.349,285.374 224.958 C 288.368 222.671,291.618 222.778,293.327 225.218 C 295.249 227.962,304.765 228.379,307.000 225.818 C 307.440 225.314,308.572 224.422,309.515 223.836 C 310.459 223.250,311.425 222.282,311.664 221.685 C 311.902 221.088,312.615 219.416,313.248 217.968 C 315.802 212.132,313.357 206.463,306.068 201.323 C 304.751 200.395,297.601 200.175,295.454 200.998 " stroke="none" fill="#9cdc7c" fill-rule="evenodd"></path></g></svg>