<svg id="svg" version="1.1" xmlns="http://www.w3.org/2000/svg" xmlns:xlink="http://www.w3.org/1999/xlink" width="400" height="416" viewBox="0, 0, 400,416"><g id="svgg"><path id="path0" d="M73.627 111.900 C 73.402 112.395,72.988 112.814,72.709 112.831 C 69.909 112.999,69.548 113.365,69.680 115.895 L 69.800 118.200 71.200 118.322 C 72.880 118.469,73.600 119.295,73.600 121.076 C 73.600 122.231,73.731 122.400,74.626 122.400 C 76.327 122.400,77.176 123.108,77.437 124.744 C 77.660 126.138,77.817 126.293,79.339 126.632 C 80.537 126.898,81.031 127.222,81.115 127.800 C 81.461 130.181,81.573 130.325,83.290 130.615 C 85.383 130.969,86.667 131.782,87.416 133.230 C 87.883 134.134,88.421 134.430,90.295 134.815 C 93.169 135.407,93.695 135.683,94.377 136.957 C 94.927 137.985,96.991 138.865,100.042 139.374 C 100.981 139.531,101.922 140.096,102.737 140.990 C 103.943 142.316,105.115 142.803,108.483 143.377 C 109.512 143.552,110.322 144.061,111.125 145.036 C 112.194 146.333,112.561 146.486,115.842 147.012 C 118.350 147.413,119.518 147.784,119.800 148.267 C 120.805 149.990,121.981 150.800,123.482 150.802 C 127.063 150.808,129.760 151.534,130.905 152.801 C 132.354 154.405,133.081 154.640,137.600 154.967 C 142.286 155.306,143.902 155.780,145.245 157.214 C 146.367 158.411,146.964 158.531,154.200 159.007 C 158.624 159.298,160.702 159.879,161.461 161.037 C 162.188 162.147,162.619 162.251,169.447 162.970 C 175.649 163.623,176.070 163.727,177.852 165.043 C 180.342 166.882,188.869 167.409,192.800 165.967 C 197.731 164.158,198.052 164.152,199.400 165.852 C 200.060 166.684,201.290 168.093,202.133 168.982 C 202.977 169.872,204.031 171.320,204.476 172.200 C 204.922 173.080,205.795 174.340,206.416 175.000 C 207.038 175.660,207.922 177.209,208.380 178.442 C 208.839 179.675,209.744 181.485,210.392 182.463 C 211.109 183.545,211.891 185.616,212.389 187.754 C 212.840 189.687,213.652 192.205,214.194 193.351 C 216.559 198.350,216.547 212.066,214.161 232.000 C 213.771 235.254,213.480 242.798,213.327 253.600 C 213.018 275.452,213.071 275.289,205.843 276.619 C 202.324 277.267,201.720 277.505,200.399 278.774 C 199.581 279.558,198.477 280.493,197.945 280.852 C 196.304 281.958,194.147 285.996,194.448 287.400 C 194.590 288.060,194.727 289.809,194.753 291.288 L 194.800 293.975 192.500 295.439 C 191.235 296.244,189.439 297.600,188.509 298.451 C 187.579 299.303,186.636 300.000,186.413 300.000 C 186.191 300.000,185.019 300.855,183.809 301.900 C 181.785 303.648,178.848 306.122,175.123 309.216 C 173.167 310.841,171.825 311.221,166.686 311.604 C 162.860 311.890,162.204 312.052,160.886 313.039 C 157.805 315.346,154.120 319.469,153.022 321.838 C 152.421 323.137,151.539 325.010,151.064 326.000 C 149.105 330.081,150.057 333.903,153.445 335.558 C 154.520 336.083,155.992 336.952,156.717 337.489 C 158.203 338.592,162.084 339.340,168.600 339.779 C 170.800 339.927,176.470 340.658,181.200 341.403 C 191.171 342.973,192.875 343.093,212.400 343.607 C 220.430 343.818,230.719 344.198,235.264 344.451 C 247.755 345.147,261.852 343.835,266.168 341.575 C 267.470 340.893,270.170 339.980,272.168 339.545 C 274.166 339.111,276.700 338.251,277.800 337.633 C 278.900 337.016,280.790 336.214,282.000 335.850 C 285.406 334.828,288.150 332.151,290.724 327.341 C 292.725 323.604,291.723 312.582,289.052 308.933 C 288.465 308.132,287.929 306.516,287.592 304.533 C 287.127 301.802,286.863 301.195,285.535 299.800 C 284.697 298.920,283.100 297.184,281.987 295.941 C 280.873 294.699,279.205 293.177,278.281 292.559 C 277.356 291.941,276.115 290.933,275.523 290.318 C 274.930 289.703,274.070 289.200,273.613 289.200 C 272.272 289.200,268.340 287.684,267.407 286.807 C 266.296 285.763,265.576 285.790,262.240 287.000 C 258.545 288.340,257.616 288.284,255.600 286.600 C 254.678 285.830,253.552 285.200,253.097 285.200 C 252.012 285.200,248.922 283.376,248.421 282.440 C 248.205 282.035,247.066 281.314,245.891 280.837 C 244.521 280.281,243.512 279.559,243.079 278.825 C 242.505 277.855,241.931 277.576,239.302 276.991 C 236.808 276.436,235.962 276.047,234.975 275.001 C 234.301 274.286,233.345 273.573,232.852 273.416 C 231.464 272.976,230.860 271.029,230.455 265.691 C 230.250 262.991,229.883 260.541,229.639 260.247 C 226.928 256.981,226.256 243.444,227.193 211.000 C 227.552 198.542,227.729 197.225,229.361 194.835 C 230.583 193.046,231.353 189.187,231.123 186.009 C 230.893 182.822,230.535 182.511,228.370 183.616 C 224.365 185.658,221.806 184.339,216.400 177.445 C 215.410 176.182,214.038 174.486,213.350 173.675 C 212.663 172.864,211.763 171.650,211.350 170.978 C 210.259 169.201,207.476 165.966,203.600 161.971 C 195.535 153.657,194.996 152.699,194.614 146.000 C 194.429 142.751,194.229 141.709,193.730 141.400 C 191.589 140.072,191.169 139.385,190.674 136.400 C 190.196 133.513,190.122 133.374,188.705 132.705 C 187.217 132.002,186.894 131.368,186.165 127.723 C 185.972 126.760,185.581 126.357,184.385 125.887 C 183.070 125.370,182.815 125.066,182.593 123.742 C 182.451 122.894,182.294 122.033,182.244 121.830 C 182.194 121.626,181.444 121.261,180.577 121.019 C 179.209 120.638,178.929 120.355,178.462 118.890 C 178.046 117.584,177.726 117.200,177.051 117.200 C 175.745 117.200,174.535 116.177,174.269 114.847 C 173.988 113.442,172.849 113.510,171.200 115.030 C 170.308 115.852,169.705 115.971,165.600 116.135 C 163.070 116.236,160.330 116.446,159.511 116.602 C 158.692 116.758,157.162 116.694,156.111 116.459 C 155.060 116.225,152.317 115.981,150.016 115.917 L 145.832 115.800 145.463 117.083 C 144.769 119.498,137.030 119.428,136.210 117.000 C 135.459 114.776,135.172 114.674,130.479 114.963 C 124.502 115.331,119.069 114.740,116.275 113.418 C 113.149 111.939,111.160 111.704,99.179 111.395 C 76.916 110.820,74.093 110.876,73.627 111.900 M94.600 116.761 L 104.600 117.100 108.797 118.560 C 112.313 119.782,122.629 121.600,126.049 121.600 C 126.211 121.600,126.965 122.186,127.724 122.902 C 129.224 124.317,130.591 124.898,134.033 125.584 C 135.715 125.919,136.672 126.407,137.909 127.561 C 138.919 128.502,140.247 129.268,141.354 129.547 C 142.344 129.796,143.390 130.330,143.677 130.734 C 144.503 131.893,147.259 133.521,148.900 133.818 C 149.733 133.968,150.400 134.322,150.400 134.614 C 150.400 135.477,152.413 137.600,153.232 137.600 C 153.653 137.600,154.384 138.196,154.868 138.935 C 155.349 139.670,156.386 140.615,157.172 141.036 C 158.566 141.783,158.600 141.859,158.600 144.201 L 158.600 146.600 156.800 146.706 C 155.810 146.764,153.908 147.097,152.574 147.445 C 150.659 147.945,149.817 147.987,148.574 147.642 C 147.708 147.401,146.067 147.203,144.926 147.202 C 142.846 147.200,138.149 146.357,136.357 145.665 C 134.580 144.978,130.220 143.594,126.800 142.631 C 122.309 141.367,112.625 137.935,110.525 136.864 C 109.608 136.396,107.360 135.575,105.529 135.040 C 103.698 134.504,100.818 133.431,99.129 132.656 C 97.439 131.881,95.364 131.060,94.517 130.832 C 93.671 130.604,91.813 129.719,90.389 128.865 C 88.965 128.011,87.123 127.093,86.296 126.824 C 85.469 126.555,84.569 126.122,84.296 125.862 C 84.023 125.602,82.990 124.775,82.000 124.026 C 74.202 118.124,74.381 115.812,82.600 116.302 C 83.700 116.368,89.100 116.574,94.600 116.761 M154.275 119.514 C 155.167 120.081,155.627 121.904,154.944 122.166 C 153.879 122.575,149.378 122.418,148.916 121.956 C 147.184 120.224,151.966 118.046,154.275 119.514 M160.721 125.788 C 160.838 125.904,160.189 126.000,159.279 126.000 C 158.020 126.000,157.677 125.865,157.841 125.436 C 158.046 124.903,160.085 125.151,160.721 125.788 M320.800 137.463 C 320.470 137.573,319.930 137.758,319.600 137.875 C 318.878 138.129,321.477 139.124,323.577 139.396 C 329.425 140.157,329.895 140.144,330.391 139.217 C 330.652 138.730,330.762 138.229,330.636 138.103 C 329.978 137.445,322.343 136.949,320.800 137.463 M302.400 141.064 C 297.673 141.305,295.680 142.131,297.833 142.957 C 299.856 143.734,309.200 142.917,309.200 141.964 C 309.200 141.277,306.147 140.873,302.400 141.064 M286.484 144.852 C 285.718 145.073,284.986 145.633,284.730 146.193 C 284.172 147.418,283.695 147.593,279.818 147.990 C 276.769 148.302,276.577 148.383,275.218 149.920 C 273.868 151.447,273.665 151.534,271.000 151.724 C 268.313 151.916,268.143 151.991,266.783 153.569 C 265.462 155.102,263.133 155.975,260.305 155.998 C 260.143 155.999,259.570 156.698,259.031 157.551 C 258.180 158.900,257.802 159.137,256.126 159.373 C 253.155 159.793,252.838 159.956,251.809 161.586 C 251.013 162.847,250.494 163.194,248.793 163.602 C 247.331 163.952,246.315 164.529,245.269 165.600 C 244.461 166.428,243.260 167.383,242.600 167.723 C 240.202 168.958,235.537 174.141,235.753 175.330 C 235.919 176.244,235.809 176.400,234.996 176.400 C 233.250 176.400,232.059 179.809,233.184 181.588 C 233.649 182.323,233.739 182.205,234.350 180.079 C 234.622 179.132,235.105 178.258,235.422 178.136 C 235.740 178.014,236.000 177.667,236.000 177.365 C 236.000 176.729,236.579 176.574,241.189 175.977 C 243.052 175.735,244.760 175.425,244.982 175.287 C 245.205 175.150,250.070 174.920,255.794 174.778 C 266.920 174.501,267.600 174.400,267.600 173.019 C 267.600 171.133,268.479 170.895,276.200 170.685 C 284.424 170.462,285.336 170.292,284.976 169.050 C 284.277 166.633,279.232 166.121,272.200 167.754 C 270.880 168.060,268.900 168.439,267.800 168.595 C 266.700 168.751,265.080 169.111,264.200 169.396 C 262.354 169.994,253.600 170.506,253.600 170.017 C 253.600 169.836,254.213 169.574,254.961 169.434 C 256.371 169.169,256.800 168.601,256.800 166.998 C 256.800 166.269,257.132 165.955,258.300 165.579 C 260.236 164.955,260.808 164.478,261.446 162.952 C 261.868 161.941,262.326 161.613,263.844 161.231 C 266.462 160.571,267.736 159.840,268.388 158.623 C 268.823 157.810,269.597 157.389,271.860 156.731 C 274.655 155.919,275.417 155.456,276.851 153.702 C 277.255 153.208,278.241 152.802,279.451 152.631 C 282.696 152.175,283.919 151.618,285.290 149.972 C 286.545 148.465,286.741 148.381,289.958 147.980 C 294.656 147.393,297.390 145.572,294.967 144.643 C 294.005 144.274,287.974 144.422,286.484 144.852 M325.055 153.140 C 324.402 153.861,324.410 153.909,325.208 154.118 C 326.134 154.360,326.773 153.413,326.124 152.764 C 325.880 152.520,325.491 152.657,325.055 153.140 M308.846 161.357 L 307.892 161.886 309.021 162.102 C 310.589 162.402,311.357 162.071,310.761 161.353 C 310.205 160.683,310.061 160.684,308.846 161.357 M293.343 164.782 C 289.554 165.685,290.303 166.385,295.067 166.394 C 299.224 166.402,299.894 166.188,298.955 165.151 C 298.233 164.352,295.811 164.193,293.343 164.782 M173.035 297.725 C 172.557 298.075,172.366 298.534,172.526 298.951 C 172.903 299.933,173.933 300.184,174.715 299.483 C 175.092 299.145,175.996 298.715,176.724 298.528 C 177.453 298.341,178.040 298.011,178.029 297.794 C 177.997 297.149,173.900 297.092,173.035 297.725 " stroke="none" fill="#6eb64b" fill-rule="evenodd"></path><path id="path1" d="M246.000 1.000 L 246.000 2.000 237.300 2.040 C 226.785 2.088,226.713 2.103,226.243 4.318 L 225.886 6.000 220.572 6.000 C 214.594 6.000,214.000 6.237,214.000 8.629 L 214.000 10.000 209.300 10.040 C 203.078 10.093,202.688 10.218,202.243 12.318 L 201.886 14.000 198.423 14.000 C 194.479 14.000,194.000 14.268,194.000 16.480 L 194.000 18.000 189.300 18.040 C 183.078 18.093,182.688 18.218,182.243 20.318 L 181.886 22.000 179.243 22.040 C 175.207 22.101,174.661 22.349,174.243 24.318 L 173.886 26.000 171.243 26.040 C 167.207 26.101,166.661 26.349,166.243 28.318 L 165.886 30.000 163.243 30.040 C 159.216 30.101,158.660 30.352,158.247 32.298 C 157.901 33.932,157.863 33.963,156.047 34.080 L 154.200 34.200 154.078 36.100 L 153.956 38.000 150.458 38.000 C 146.476 38.000,146.000 38.265,146.000 40.480 L 146.000 42.000 143.300 42.040 C 139.204 42.100,138.662 42.344,138.243 44.318 C 137.903 45.922,137.819 46.000,136.423 46.000 C 134.564 46.000,134.000 46.578,134.000 48.480 L 134.000 50.000 131.300 50.040 C 127.204 50.100,126.662 50.344,126.243 52.318 C 125.903 53.922,125.819 54.000,124.423 54.000 C 122.564 54.000,122.000 54.578,122.000 56.480 L 122.000 58.000 119.300 58.040 C 115.204 58.100,114.662 58.344,114.243 60.318 C 113.903 61.922,113.819 62.000,112.423 62.000 C 110.569 62.000,110.000 62.577,110.000 64.458 L 110.000 65.956 108.100 66.078 L 106.200 66.200 106.078 68.100 L 105.956 70.000 102.607 70.000 C 98.765 70.000,98.000 70.437,98.000 72.629 C 98.000 73.950,97.944 74.000,96.480 74.000 C 94.569 74.000,94.000 74.564,94.000 76.458 L 94.000 77.956 92.100 78.078 L 90.200 78.200 90.078 80.100 L 89.956 82.000 87.278 82.040 C 83.205 82.101,82.661 82.346,82.243 84.318 C 81.912 85.880,81.793 86.000,80.572 86.000 C 78.883 86.000,78.000 86.903,78.000 88.629 C 78.000 89.924,77.924 90.000,76.629 90.000 C 74.886 90.000,74.000 90.886,74.000 92.629 C 74.000 93.950,73.944 94.000,72.480 94.000 C 70.569 94.000,70.000 94.564,70.000 96.458 L 70.000 97.956 68.100 98.078 L 66.200 98.200 66.079 100.079 L 65.958 101.958 64.079 102.079 L 62.200 102.200 62.079 104.079 L 61.958 105.958 60.079 106.079 L 58.200 106.200 58.079 108.079 L 57.958 109.958 56.079 110.079 L 54.200 110.200 54.079 112.079 L 53.958 113.958 52.079 114.079 L 50.200 114.200 50.079 116.079 L 49.958 117.958 48.079 118.079 L 46.200 118.200 46.079 120.079 L 45.958 121.958 44.079 122.079 L 42.200 122.200 42.078 124.100 C 41.958 125.967,41.933 126.000,40.607 126.000 C 38.885 126.000,38.000 126.892,38.000 128.629 C 38.000 129.924,37.924 130.000,36.629 130.000 C 34.437 130.000,34.000 130.765,34.000 134.607 L 34.000 137.956 32.100 138.078 L 30.200 138.200 30.079 140.079 L 29.958 141.958 28.079 142.079 L 26.200 142.200 26.078 144.100 C 25.958 145.967,25.933 146.000,24.607 146.000 C 22.438 146.000,22.000 146.773,22.000 150.607 L 22.000 153.956 20.100 154.078 L 18.200 154.200 18.086 158.079 L 17.972 161.957 16.086 162.079 L 14.200 162.200 14.078 164.100 C 13.958 165.967,13.933 166.000,12.607 166.000 C 10.237 166.000,10.000 166.600,10.000 172.607 L 10.000 177.956 8.100 178.078 L 6.200 178.200 6.086 182.100 L 5.971 186.000 4.614 186.000 C 2.122 186.000,2.000 186.403,2.000 194.629 L 2.000 202.000 1.000 202.000 L 0.000 202.000 0.000 230.000 L 0.000 258.000 1.000 258.000 L 2.000 258.000 2.040 264.700 C 2.090 273.065,2.148 273.297,4.318 273.757 L 6.000 274.114 6.040 278.757 C 6.093 284.919,6.221 285.312,8.318 285.757 L 10.000 286.114 10.000 289.428 C 10.000 293.232,10.442 294.000,12.629 294.000 L 14.000 294.000 14.000 297.520 C 14.000 301.525,14.263 302.000,16.480 302.000 L 18.000 302.000 18.000 305.371 C 18.000 309.237,18.434 310.000,20.629 310.000 L 22.000 310.000 22.040 312.700 C 22.100 316.787,22.347 317.339,24.298 317.753 C 25.932 318.099,25.963 318.137,26.080 319.953 L 26.200 321.800 28.100 321.922 L 30.000 322.044 30.000 325.393 C 30.000 329.235,30.437 330.000,32.629 330.000 C 33.950 330.000,34.000 330.056,34.000 331.520 C 34.000 333.431,34.564 334.000,36.458 334.000 L 37.956 334.000 38.078 335.900 L 38.200 337.800 40.100 337.922 L 42.000 338.044 42.040 340.722 C 42.101 344.795,42.346 345.339,44.318 345.757 C 45.880 346.088,46.000 346.207,46.000 347.428 C 46.000 349.117,46.903 350.000,48.629 350.000 C 49.924 350.000,50.000 350.076,50.000 351.371 C 50.000 353.114,50.886 354.000,52.629 354.000 C 53.924 354.000,54.000 354.076,54.000 355.371 C 54.000 357.114,54.886 358.000,56.629 358.000 C 57.924 358.000,58.000 358.076,58.000 359.371 C 58.000 361.114,58.886 362.000,60.629 362.000 C 61.924 362.000,62.000 362.076,62.000 363.371 C 62.000 365.097,62.883 366.000,64.572 366.000 C 65.793 366.000,65.912 366.120,66.243 367.682 C 66.661 369.654,67.205 369.899,71.278 369.960 L 73.956 370.000 74.078 371.900 L 74.200 373.800 76.100 373.922 L 78.000 374.044 78.000 375.542 C 78.000 377.436,78.569 378.000,80.480 378.000 C 81.944 378.000,82.000 378.050,82.000 379.371 C 82.000 381.563,82.765 382.000,86.607 382.000 L 89.956 382.000 90.078 383.900 L 90.200 385.800 92.047 385.920 C 93.863 386.037,93.901 386.068,94.247 387.702 C 94.661 389.653,95.213 389.900,99.300 389.960 L 102.000 390.000 102.000 391.371 C 102.000 393.566,102.763 394.000,106.629 394.000 L 110.000 394.000 110.000 395.371 C 110.000 397.566,110.763 398.000,114.629 398.000 L 118.000 398.000 118.000 399.371 C 118.000 401.558,118.768 402.000,122.572 402.000 L 125.886 402.000 126.243 403.682 C 126.688 405.782,127.078 405.907,133.300 405.960 L 138.000 406.000 138.000 407.371 C 138.000 409.763,138.594 410.000,144.572 410.000 L 149.886 410.000 150.243 411.682 C 150.713 413.897,150.785 413.912,161.300 413.960 L 170.000 414.000 170.000 415.000 L 170.000 416.000 208.000 416.000 L 246.000 416.000 246.000 415.000 L 246.000 414.000 251.520 414.000 C 257.684 414.000,258.000 413.879,258.000 411.520 L 258.000 410.000 262.700 409.960 C 268.922 409.907,269.312 409.782,269.757 407.682 L 270.114 406.000 272.757 405.960 C 276.784 405.899,277.340 405.648,277.753 403.702 C 278.099 402.068,278.137 402.037,279.953 401.920 L 281.800 401.800 281.922 399.900 L 282.044 398.000 285.393 398.000 C 289.227 398.000,290.000 397.562,290.000 395.393 C 290.000 394.067,290.033 394.042,291.900 393.922 L 293.800 393.800 293.921 391.921 L 294.042 390.042 295.921 389.921 L 297.800 389.800 297.922 387.900 L 298.044 386.000 300.722 385.960 C 304.795 385.899,305.339 385.654,305.757 383.682 C 306.088 382.120,306.207 382.000,307.428 382.000 C 309.117 382.000,310.000 381.097,310.000 379.371 C 310.000 378.076,310.076 378.000,311.371 378.000 C 313.114 378.000,314.000 377.114,314.000 375.371 C 314.000 374.076,314.076 374.000,315.371 374.000 C 317.097 374.000,318.000 373.117,318.000 371.428 C 318.000 370.207,318.120 370.088,319.682 369.757 C 321.654 369.339,321.899 368.795,321.960 364.722 L 322.000 362.044 323.900 361.922 L 325.800 361.800 325.921 359.921 L 326.042 358.042 327.921 357.921 L 329.800 357.800 329.922 355.900 C 330.042 354.033,330.067 354.000,331.393 354.000 C 333.562 354.000,334.000 353.227,334.000 349.393 L 334.000 346.044 335.900 345.922 L 337.800 345.800 337.922 343.900 C 338.042 342.033,338.067 342.000,339.393 342.000 C 341.562 342.000,342.000 341.227,342.000 337.393 L 342.000 334.044 343.900 333.922 L 345.800 333.800 345.914 329.921 L 346.028 326.043 347.914 325.921 L 349.800 325.800 349.922 323.900 C 350.042 322.033,350.067 322.000,351.393 322.000 C 353.565 322.000,354.000 321.228,354.000 317.371 L 354.000 314.000 355.371 314.000 C 357.566 314.000,358.000 313.237,358.000 309.371 L 358.000 306.000 359.371 306.000 C 361.566 306.000,362.000 305.237,362.000 301.371 L 362.000 298.000 363.371 298.000 C 365.765 298.000,366.000 297.410,366.000 291.393 L 366.000 286.044 367.900 285.922 L 369.800 285.800 369.914 281.900 L 370.029 278.000 371.386 278.000 C 373.765 278.000,374.000 277.405,374.000 271.371 L 374.000 266.000 375.520 266.000 C 377.878 266.000,378.000 265.682,378.000 259.542 L 378.000 254.044 379.900 253.922 L 381.800 253.800 381.914 249.954 L 382.028 246.108 383.696 245.754 C 385.850 245.297,385.910 245.056,385.960 236.700 L 386.000 230.000 387.520 230.000 C 389.876 230.000,390.000 229.679,390.000 223.577 L 390.000 218.114 391.682 217.757 C 393.897 217.287,393.912 217.215,393.960 206.700 L 394.000 198.000 395.520 198.000 C 398.040 198.000,398.000 198.200,398.000 185.520 L 398.000 174.000 399.000 174.000 L 400.000 174.000 400.000 142.000 L 400.000 110.000 399.000 110.000 L 398.000 110.000 398.000 100.480 C 398.000 89.975,398.006 90.000,395.520 90.000 L 394.000 90.000 394.000 84.480 C 394.000 78.316,393.879 78.000,391.520 78.000 L 390.000 78.000 389.960 73.300 C 389.907 67.078,389.782 66.688,387.682 66.243 L 386.000 65.886 385.960 63.243 C 385.899 59.216,385.648 58.660,383.702 58.247 C 382.068 57.901,382.037 57.863,381.920 56.047 L 381.800 54.200 379.900 54.078 L 378.000 53.956 378.000 50.607 C 378.000 46.773,377.562 46.000,375.393 46.000 C 374.067 46.000,374.042 45.967,373.922 44.100 L 373.800 42.200 371.921 42.079 L 370.042 41.958 369.921 40.079 L 369.800 38.200 367.921 38.079 L 366.042 37.958 365.921 36.079 L 365.800 34.200 363.921 34.079 L 362.042 33.958 361.921 32.079 L 361.800 30.200 359.921 30.079 L 358.042 29.958 357.921 28.079 L 357.800 26.200 355.900 26.078 L 354.000 25.956 354.000 24.458 C 354.000 22.564,353.431 22.000,351.520 22.000 C 350.056 22.000,350.000 21.950,350.000 20.629 C 350.000 18.437,349.235 18.000,345.393 18.000 L 342.044 18.000 341.922 16.100 L 341.800 14.200 337.921 14.086 L 334.043 13.972 333.921 12.086 L 333.800 10.200 329.921 10.086 L 326.043 9.972 325.921 8.086 L 325.800 6.200 321.900 6.086 L 318.000 5.971 318.000 4.614 C 318.000 2.122,317.597 2.000,309.371 2.000 L 302.000 2.000 302.000 1.000 L 302.000 0.000 274.000 0.000 L 246.000 0.000 246.000 1.000 M134.012 86.972 C 144.936 88.444,145.082 88.476,147.200 89.856 C 147.970 90.358,149.849 91.058,151.375 91.411 C 154.496 92.132,155.364 92.512,156.800 93.783 C 157.350 94.270,158.656 94.984,159.703 95.369 C 160.750 95.754,162.353 96.693,163.266 97.455 C 164.179 98.218,165.494 99.079,166.188 99.369 C 166.883 99.660,168.040 100.640,168.759 101.549 C 169.479 102.457,170.314 103.200,170.615 103.200 C 170.916 103.200,171.747 103.928,172.462 104.817 C 173.177 105.707,174.334 106.789,175.034 107.221 C 175.733 107.653,176.526 108.539,176.796 109.189 C 177.065 109.839,177.886 110.726,178.621 111.159 C 179.356 111.593,180.316 112.652,180.755 113.513 C 181.195 114.374,182.012 115.378,182.572 115.745 C 183.132 116.112,183.978 117.174,184.452 118.106 C 184.926 119.038,185.977 120.554,186.787 121.476 C 187.597 122.398,188.476 123.876,188.741 124.760 C 189.005 125.643,189.837 127.019,190.589 127.816 C 191.413 128.690,192.298 130.291,192.815 131.846 C 193.288 133.266,194.081 134.916,194.578 135.513 C 195.910 137.116,196.225 137.878,196.981 141.327 C 197.358 143.048,198.100 145.298,198.629 146.327 C 199.158 147.357,199.793 149.581,200.039 151.270 C 200.474 154.239,200.559 154.409,202.654 156.470 C 206.426 160.180,212.850 167.355,213.478 168.561 C 213.811 169.200,214.629 170.181,215.296 170.742 C 215.963 171.304,216.756 172.354,217.058 173.076 C 217.443 173.998,218.194 174.687,219.575 175.387 C 220.658 175.936,221.643 176.545,221.764 176.742 C 222.085 177.261,226.209 176.212,227.287 175.337 C 231.628 171.814,234.396 168.627,235.402 165.995 C 235.977 164.490,236.722 163.031,237.058 162.752 C 237.393 162.474,238.287 161.015,239.045 159.511 C 239.803 158.006,240.885 156.376,241.450 155.888 C 242.016 155.399,242.816 154.342,243.228 153.538 C 243.640 152.734,244.466 151.692,245.063 151.222 C 245.659 150.753,246.609 149.573,247.174 148.600 C 249.378 144.802,261.294 132.785,264.455 131.172 C 265.368 130.706,266.541 129.818,267.063 129.198 C 267.584 128.579,268.843 127.788,269.860 127.441 C 270.878 127.095,272.303 126.359,273.028 125.806 C 278.046 121.978,307.491 121.819,312.788 125.592 C 313.423 126.043,315.426 126.782,317.241 127.234 C 320.479 128.040,323.321 129.226,323.775 129.960 C 323.902 130.165,325.243 130.805,326.756 131.383 C 328.269 131.961,329.843 132.813,330.254 133.275 C 330.664 133.737,331.922 134.527,333.049 135.030 C 336.274 136.470,336.801 137.416,336.794 141.754 C 336.785 146.766,336.038 149.706,334.306 151.539 C 333.547 152.342,332.521 153.591,332.027 154.312 C 331.501 155.080,330.114 156.137,328.686 156.858 C 327.343 157.535,325.911 158.514,325.504 159.032 C 325.055 159.602,323.762 160.274,322.221 160.736 C 320.823 161.155,318.980 162.061,318.124 162.748 C 316.974 163.673,315.665 164.196,313.091 164.758 C 310.723 165.275,309.222 165.847,308.388 166.548 C 307.022 167.698,305.352 168.220,301.800 168.609 C 298.259 168.996,296.356 169.566,295.115 170.610 C 293.925 171.611,292.302 171.999,285.330 172.948 C 282.366 173.351,280.210 173.884,278.930 174.529 C 276.725 175.641,274.033 176.119,265.000 177.005 C 260.528 177.444,257.713 177.938,255.656 178.643 C 253.196 179.487,251.527 179.714,245.487 180.027 C 237.454 180.444,237.017 180.597,236.554 183.155 C 236.240 184.891,235.387 186.693,234.329 187.852 C 233.781 188.452,233.370 189.932,232.940 192.852 C 232.605 195.133,231.797 198.620,231.145 200.600 C 228.808 207.701,228.362 241.846,230.527 247.925 C 231.974 251.989,232.357 254.380,232.808 262.184 C 233.289 270.514,233.166 270.143,235.856 271.374 C 237.074 271.932,238.592 272.827,239.230 273.364 C 239.869 273.901,241.390 274.631,242.612 274.986 C 243.918 275.366,245.455 276.193,246.342 276.995 C 247.171 277.744,248.771 278.820,249.897 279.386 C 251.022 279.951,252.271 280.849,252.672 281.381 C 253.866 282.967,257.467 283.945,260.491 283.504 C 266.139 282.681,270.554 283.435,273.114 285.659 C 273.837 286.286,274.699 286.800,275.030 286.800 C 276.919 286.800,281.602 290.751,286.283 296.295 C 288.265 298.642,288.589 299.331,289.375 302.852 C 289.798 304.749,290.299 305.838,291.133 306.672 C 292.079 307.617,292.388 308.405,292.759 310.820 C 293.012 312.459,293.551 315.600,293.958 317.800 C 294.565 321.086,294.608 321.979,294.199 322.800 C 293.925 323.350,293.413 325.240,293.062 327.000 C 292.514 329.745,292.223 330.385,291.015 331.502 C 290.241 332.218,289.159 333.515,288.610 334.385 C 287.436 336.244,286.786 336.641,283.931 337.248 C 282.408 337.571,281.429 338.080,280.498 339.032 C 279.743 339.805,278.650 340.450,277.898 340.568 C 277.184 340.681,275.280 340.978,273.666 341.228 C 271.452 341.572,270.422 341.954,269.466 342.785 C 267.713 344.309,266.213 344.693,260.046 345.198 C 255.754 345.549,254.206 345.848,252.246 346.707 C 249.041 348.112,237.204 348.304,233.000 347.020 C 228.542 345.658,227.436 345.584,206.200 345.211 C 182.958 344.802,178.075 344.461,175.000 343.032 C 171.877 341.581,171.810 341.570,164.255 341.160 C 156.714 340.752,155.289 340.419,153.067 338.550 C 152.374 337.966,151.051 337.165,150.129 336.769 C 147.490 335.638,147.134 334.770,147.157 329.522 C 147.179 324.526,147.844 321.537,149.340 319.719 C 149.847 319.104,150.821 317.388,151.506 315.906 C 152.191 314.425,153.277 312.535,153.919 311.706 C 154.562 310.878,155.488 309.179,155.977 307.932 C 156.467 306.684,157.218 305.346,157.647 304.958 C 158.075 304.570,158.816 303.611,159.292 302.826 C 160.848 300.264,169.420 292.280,171.510 291.446 C 172.550 291.031,174.210 290.192,175.200 289.581 C 176.190 288.971,178.572 287.922,180.493 287.250 C 182.415 286.577,184.395 285.772,184.893 285.459 C 185.392 285.146,186.790 284.576,188.000 284.191 C 191.321 283.135,192.427 282.495,194.447 280.460 C 198.366 276.514,199.601 275.633,202.382 274.805 C 203.881 274.359,205.316 273.743,205.570 273.436 C 205.825 273.129,207.011 272.415,208.207 271.849 C 210.955 270.547,210.708 272.517,211.006 249.600 C 211.144 238.930,211.425 226.780,211.628 222.600 C 212.493 204.859,212.521 201.203,211.826 196.600 C 210.669 188.932,210.124 186.847,208.915 185.469 C 208.191 184.643,207.537 183.146,207.051 181.198 C 206.474 178.889,206.026 177.963,205.100 177.168 C 204.438 176.601,203.515 175.399,203.049 174.497 C 201.409 171.329,198.317 167.997,197.200 168.195 C 191.996 169.116,188.277 169.271,181.459 168.851 L 174.200 168.403 170.946 166.790 C 168.025 165.342,167.232 165.136,163.189 164.782 C 157.635 164.294,157.191 164.186,154.153 162.583 C 152.321 161.616,150.965 161.226,148.753 161.030 C 143.136 160.532,140.446 159.956,138.930 158.927 C 136.906 157.553,136.179 157.317,132.354 156.794 C 128.835 156.312,128.054 156.025,126.305 154.570 C 125.702 154.069,124.172 153.446,122.905 153.185 C 119.296 152.441,118.214 152.050,116.343 150.817 C 115.385 150.184,113.434 149.366,112.009 148.999 C 109.010 148.226,108.175 147.841,106.800 146.598 C 106.250 146.101,104.402 145.286,102.693 144.787 C 100.984 144.288,99.120 143.446,98.548 142.917 C 97.976 142.387,96.338 141.529,94.907 141.009 C 93.476 140.490,91.741 139.528,91.052 138.872 C 90.358 138.211,88.751 137.354,87.445 136.949 C 85.731 136.418,84.805 135.852,84.045 134.871 C 83.470 134.129,82.229 133.183,81.286 132.769 C 80.293 132.333,79.284 131.512,78.886 130.817 C 78.509 130.157,77.689 129.405,77.065 129.145 C 76.441 128.886,75.497 127.988,74.967 127.149 C 74.438 126.309,73.457 125.340,72.787 124.993 C 72.118 124.647,71.288 123.773,70.944 123.051 C 70.599 122.328,69.715 121.413,68.980 121.017 C 68.191 120.593,67.383 119.702,67.011 118.848 C 66.664 118.052,66.025 116.734,65.590 115.921 C 64.581 114.032,64.603 113.600,65.763 112.501 C 66.284 112.006,67.090 110.797,67.552 109.813 C 68.058 108.736,68.869 107.778,69.591 107.405 C 70.305 107.036,70.894 106.344,71.049 105.693 C 71.396 104.239,71.963 103.577,73.364 102.988 C 74.129 102.666,74.677 102.037,74.964 101.149 C 75.311 100.077,75.741 99.682,77.061 99.226 C 78.262 98.811,78.897 98.287,79.350 97.336 C 79.759 96.479,80.364 95.930,81.089 95.759 C 82.850 95.345,86.000 93.935,86.000 93.561 C 86.000 93.023,88.011 92.122,90.818 91.403 C 92.238 91.039,94.120 90.328,95.000 89.824 C 97.265 88.527,98.775 88.122,104.000 87.411 C 106.530 87.067,109.860 86.538,111.400 86.237 C 116.397 85.260,122.859 85.470,134.012 86.972 " stroke="none" fill="#fbfcfb" fill-rule="evenodd"></path><path id="path2" d="M109.200 89.227 C 103.257 89.540,102.148 89.790,100.387 91.210 C 99.732 91.738,97.697 92.360,94.627 92.970 C 91.409 93.610,89.764 94.121,89.519 94.560 C 89.065 95.370,86.786 96.515,84.267 97.198 C 82.997 97.543,82.048 98.109,81.501 98.848 C 81.044 99.467,79.901 100.335,78.962 100.776 C 77.984 101.235,77.028 102.047,76.727 102.674 C 76.437 103.277,75.570 104.193,74.800 104.711 C 74.030 105.228,73.077 106.333,72.683 107.167 C 72.289 108.001,71.532 108.915,71.002 109.199 C 67.646 110.995,67.308 116.530,70.359 119.696 C 72.452 121.867,74.476 123.902,77.030 126.400 C 77.592 126.950,78.895 128.234,79.926 129.252 C 80.957 130.271,82.225 131.234,82.744 131.393 C 83.264 131.552,84.367 132.295,85.196 133.044 C 86.025 133.793,88.030 134.950,89.651 135.616 C 91.273 136.282,92.870 137.171,93.200 137.591 C 93.530 138.011,95.412 139.001,97.383 139.791 C 99.354 140.580,101.247 141.480,101.590 141.791 C 101.932 142.101,103.687 142.917,105.488 143.605 C 107.289 144.293,109.180 145.183,109.688 145.584 C 110.911 146.546,112.906 147.358,115.600 147.991 C 116.810 148.275,118.610 149.083,119.600 149.787 C 120.689 150.561,122.347 151.260,123.800 151.556 C 126.767 152.163,128.283 152.726,129.684 153.742 C 130.281 154.174,132.981 155.019,135.684 155.620 C 138.388 156.221,141.710 157.183,143.066 157.758 C 144.564 158.394,147.555 159.110,150.688 159.583 C 153.860 160.062,156.991 160.815,158.823 161.538 C 160.614 162.246,163.931 163.052,167.148 163.561 C 170.122 164.031,173.585 164.854,174.948 165.414 C 181.761 168.213,193.696 168.200,196.000 165.393 C 196.691 164.551,196.647 164.559,192.800 165.968 C 188.867 167.409,180.341 166.881,177.852 165.043 C 176.070 163.727,175.649 163.623,169.447 162.970 C 162.619 162.251,162.188 162.147,161.461 161.037 C 160.702 159.879,158.624 159.298,154.200 159.007 C 146.964 158.531,146.367 158.411,145.245 157.214 C 143.902 155.780,142.286 155.306,137.600 154.967 C 133.081 154.640,132.354 154.405,130.905 152.801 C 129.760 151.534,127.063 150.808,123.482 150.802 C 121.981 150.800,120.805 149.990,119.800 148.267 C 119.518 147.784,118.350 147.413,115.842 147.012 C 112.561 146.486,112.194 146.333,111.125 145.036 C 110.322 144.061,109.512 143.552,108.483 143.377 C 105.115 142.803,103.943 142.316,102.737 140.990 C 101.922 140.096,100.981 139.531,100.042 139.374 C 96.991 138.865,94.927 137.985,94.377 136.957 C 93.695 135.683,93.169 135.407,90.295 134.815 C 88.421 134.430,87.883 134.134,87.416 133.230 C 86.667 131.782,85.383 130.969,83.290 130.615 C 81.573 130.325,81.461 130.181,81.115 127.800 C 81.031 127.222,80.537 126.898,79.339 126.632 C 77.817 126.293,77.660 126.138,77.437 124.744 C 77.176 123.108,76.327 122.400,74.626 122.400 C 73.731 122.400,73.600 122.231,73.600 121.076 C 73.600 119.295,72.880 118.469,71.200 118.322 L 69.800 118.200 69.680 115.895 C 69.548 113.365,69.909 112.999,72.709 112.831 C 72.988 112.814,73.402 112.395,73.627 111.900 C 74.093 110.876,76.916 110.820,99.179 111.395 C 111.160 111.704,113.149 111.939,116.275 113.418 C 119.069 114.740,124.502 115.331,130.479 114.963 C 135.172 114.674,135.459 114.776,136.210 117.000 C 137.030 119.428,144.769 119.498,145.463 117.083 L 145.832 115.800 150.016 115.917 C 152.317 115.981,155.060 116.225,156.111 116.459 C 157.162 116.694,158.692 116.758,159.511 116.602 C 160.330 116.446,163.070 116.236,165.600 116.135 C 169.705 115.971,170.308 115.852,171.200 115.030 C 172.849 113.510,173.988 113.442,174.269 114.847 C 174.535 116.177,175.745 117.200,177.051 117.200 C 177.726 117.200,178.046 117.584,178.462 118.890 C 178.929 120.355,179.209 120.638,180.577 121.019 C 181.444 121.261,182.194 121.626,182.244 121.830 C 182.294 122.033,182.451 122.894,182.593 123.742 C 182.815 125.066,183.070 125.370,184.385 125.887 C 185.581 126.357,185.972 126.760,186.165 127.723 C 186.894 131.368,187.217 132.002,188.705 132.705 C 190.122 133.374,190.196 133.513,190.674 136.400 C 191.169 139.385,191.589 140.072,193.730 141.400 C 194.229 141.709,194.429 142.751,194.614 146.000 C 194.996 152.699,195.535 153.657,203.600 161.971 C 207.476 165.966,210.259 169.201,211.350 170.978 C 211.763 171.650,212.663 172.864,213.350 173.675 C 214.038 174.486,215.410 176.182,216.400 177.445 C 221.806 184.339,224.365 185.658,228.370 183.616 C 230.535 182.511,230.893 182.822,231.123 186.009 C 231.353 189.187,230.583 193.046,229.361 194.835 C 227.729 197.225,227.552 198.542,227.193 211.000 C 226.256 243.444,226.928 256.981,229.639 260.247 C 229.883 260.541,230.250 262.991,230.455 265.691 C 230.860 271.029,231.464 272.976,232.852 273.416 C 233.345 273.573,234.301 274.286,234.975 275.001 C 235.962 276.047,236.808 276.436,239.302 276.991 C 241.931 277.576,242.505 277.855,243.079 278.825 C 243.512 279.559,244.521 280.281,245.891 280.837 C 247.066 281.314,248.205 282.035,248.421 282.440 C 248.922 283.376,252.012 285.200,253.097 285.200 C 253.552 285.200,254.678 285.830,255.600 286.600 C 257.616 288.284,258.545 288.340,262.240 287.000 C 265.576 285.790,266.296 285.763,267.407 286.807 C 268.340 287.684,272.272 289.200,273.613 289.200 C 274.070 289.200,274.930 289.703,275.523 290.318 C 276.115 290.933,277.356 291.941,278.281 292.559 C 280.121 293.789,284.000 297.716,284.000 298.349 C 284.000 298.567,284.567 299.149,285.260 299.643 C 286.245 300.344,285.984 299.879,284.059 297.504 C 280.507 293.123,276.631 289.714,273.400 288.128 C 271.860 287.372,269.915 286.384,269.078 285.933 C 267.045 284.838,262.855 284.875,259.967 286.013 C 258.121 286.741,257.824 286.764,257.234 286.231 C 256.870 285.902,255.506 285.161,254.203 284.584 C 252.899 284.008,251.236 283.012,250.505 282.371 C 249.775 281.729,248.495 280.857,247.661 280.431 C 246.827 280.006,245.389 279.026,244.466 278.255 C 243.504 277.451,241.810 276.574,240.494 276.198 C 237.447 275.327,232.908 272.292,232.207 270.656 C 231.910 269.965,231.470 266.834,231.229 263.697 C 230.916 259.631,230.500 257.105,229.779 254.898 C 228.062 249.638,227.898 247.474,227.796 228.800 C 227.661 204.209,227.876 200.159,229.498 196.693 C 230.189 195.215,231.132 192.250,231.593 190.103 C 232.155 187.486,232.797 185.673,233.542 184.600 C 234.154 183.720,234.978 182.130,235.373 181.066 C 236.681 177.547,237.922 177.193,252.400 176.208 C 264.834 175.362,267.949 174.963,270.965 173.829 C 273.468 172.889,275.392 172.498,283.000 171.384 C 285.776 170.977,288.360 170.319,290.000 169.601 C 291.430 168.974,294.130 168.168,296.000 167.809 C 297.870 167.449,300.294 166.979,301.388 166.763 C 302.481 166.547,304.191 165.852,305.188 165.218 C 306.397 164.449,308.197 163.837,310.600 163.378 C 313.565 162.812,314.447 162.466,315.600 161.411 C 316.971 160.158,319.396 159.200,321.199 159.200 C 321.712 159.200,322.663 158.608,323.391 157.837 C 324.098 157.087,325.746 155.934,327.053 155.274 C 331.126 153.218,334.755 147.707,334.898 143.359 C 335.059 138.510,334.762 137.839,332.013 136.837 C 330.709 136.362,328.896 135.349,327.984 134.586 C 327.071 133.824,326.080 133.200,325.782 133.200 C 323.672 133.200,321.183 132.229,319.741 130.844 C 318.279 129.438,317.947 129.311,315.182 129.090 C 311.973 128.835,307.910 127.604,306.721 126.529 C 304.569 124.581,280.221 124.875,278.126 126.875 C 276.760 128.179,275.611 128.635,272.211 129.227 C 270.004 129.612,269.528 129.844,269.102 130.741 C 268.826 131.323,267.853 132.160,266.939 132.600 C 266.026 133.040,264.676 133.969,263.939 134.665 C 263.203 135.361,261.647 136.801,260.483 137.865 C 257.331 140.747,252.747 145.461,252.021 146.568 C 251.670 147.103,250.895 147.925,250.299 148.393 C 249.703 148.862,248.939 149.828,248.601 150.540 C 248.264 151.252,247.436 152.161,246.762 152.559 C 246.048 152.981,245.232 153.992,244.808 154.981 C 244.408 155.915,243.613 157.046,243.042 157.495 C 241.977 158.333,240.011 162.071,240.004 163.271 C 240.002 163.640,239.479 164.360,238.843 164.871 C 237.990 165.555,237.565 166.379,237.228 168.000 C 236.598 171.026,226.647 181.014,224.650 180.625 C 224.018 180.501,223.066 180.400,222.535 180.400 C 220.993 180.400,214.585 174.002,211.463 169.345 C 210.853 168.435,208.061 165.285,205.259 162.345 C 197.975 154.704,197.595 154.001,196.038 145.305 C 195.242 140.859,194.829 139.611,193.736 138.355 C 193.427 138.000,192.566 136.244,191.822 134.454 C 191.079 132.664,189.987 130.624,189.396 129.922 C 188.805 129.220,187.888 127.664,187.357 126.466 C 186.827 125.267,185.959 123.883,185.428 123.391 C 184.897 122.898,183.979 121.529,183.388 120.348 C 182.797 119.167,181.772 117.765,181.109 117.233 C 180.446 116.701,179.649 115.656,179.337 114.911 C 179.026 114.166,178.175 113.204,177.447 112.774 C 176.718 112.345,175.780 111.353,175.361 110.570 C 174.943 109.788,174.060 108.888,173.400 108.569 C 172.740 108.251,171.801 107.374,171.313 106.620 C 170.824 105.866,169.797 104.952,169.030 104.587 C 168.263 104.223,167.299 103.357,166.889 102.663 C 166.346 101.743,165.663 101.270,164.372 100.920 C 163.397 100.655,161.728 99.713,160.663 98.825 C 159.598 97.937,157.978 97.017,157.063 96.780 C 156.148 96.543,154.490 95.732,153.377 94.979 C 151.798 93.909,150.569 93.474,147.777 92.995 C 145.508 92.605,143.137 91.866,141.291 90.974 L 138.383 89.567 130.091 89.194 C 120.838 88.778,117.623 88.783,109.200 89.227 M78.800 116.410 C 74.559 116.945,75.452 119.070,82.000 124.026 C 82.990 124.775,84.023 125.602,84.296 125.862 C 84.569 126.122,85.469 126.555,86.296 126.824 C 87.123 127.093,88.965 128.011,90.389 128.865 C 91.813 129.719,93.671 130.604,94.517 130.832 C 95.364 131.060,97.439 131.881,99.129 132.656 C 100.818 133.431,103.698 134.504,105.529 135.040 C 107.360 135.575,109.608 136.396,110.525 136.864 C 112.625 137.935,122.309 141.367,126.800 142.631 C 130.220 143.594,134.580 144.978,136.357 145.665 C 138.149 146.357,142.846 147.200,144.926 147.202 C 146.067 147.203,147.708 147.401,148.574 147.642 C 149.817 147.987,150.659 147.945,152.574 147.445 C 153.908 147.097,155.810 146.764,156.800 146.706 L 158.600 146.600 158.600 144.201 C 158.600 141.859,158.566 141.783,157.172 141.036 C 156.386 140.615,155.349 139.670,154.868 138.935 C 154.384 138.196,153.653 137.600,153.232 137.600 C 152.413 137.600,150.400 135.477,150.400 134.614 C 150.400 134.322,149.733 133.968,148.900 133.818 C 147.259 133.521,144.503 131.893,143.677 130.734 C 143.390 130.330,142.344 129.796,141.354 129.547 C 140.247 129.268,138.919 128.502,137.909 127.561 C 136.672 126.407,135.715 125.919,134.033 125.584 C 130.591 124.898,129.224 124.317,127.724 122.902 C 126.965 122.186,126.211 121.600,126.049 121.600 C 122.629 121.600,112.313 119.782,108.797 118.560 L 104.600 117.100 94.600 116.761 C 89.100 116.574,83.700 116.368,82.600 116.302 C 81.500 116.237,79.790 116.285,78.800 116.410 M148.875 120.356 C 148.306 121.990,148.902 122.400,151.847 122.400 C 155.232 122.400,155.658 122.203,155.152 120.874 C 154.324 118.696,149.590 118.305,148.875 120.356 M157.841 125.436 C 157.677 125.865,158.020 126.000,159.279 126.000 C 161.121 126.000,161.122 125.751,159.283 125.224 C 158.354 124.957,158.005 125.009,157.841 125.436 M328.504 137.561 C 330.823 137.943,330.993 138.092,330.391 139.217 C 329.895 140.144,329.425 140.157,323.577 139.396 C 321.477 139.124,318.878 138.129,319.600 137.875 C 319.930 137.758,320.470 137.573,320.800 137.463 C 321.729 137.153,326.386 137.212,328.504 137.561 M308.500 141.448 C 310.900 142.153,307.187 143.200,302.286 143.200 C 298.152 143.200,297.200 143.008,297.200 142.175 C 297.200 141.089,305.467 140.557,308.500 141.448 M294.967 144.643 C 297.390 145.572,294.656 147.393,289.958 147.980 C 286.741 148.381,286.545 148.465,285.290 149.972 C 283.919 151.618,282.696 152.175,279.451 152.631 C 278.241 152.802,277.255 153.208,276.851 153.702 C 275.417 155.456,274.655 155.919,271.860 156.731 C 269.597 157.389,268.823 157.810,268.388 158.623 C 267.736 159.840,266.462 160.571,263.844 161.231 C 262.326 161.613,261.868 161.941,261.446 162.952 C 260.808 164.478,260.236 164.955,258.300 165.579 C 257.132 165.955,256.800 166.269,256.800 166.998 C 256.800 168.601,256.371 169.169,254.961 169.434 C 254.213 169.574,253.600 169.836,253.600 170.017 C 253.600 170.506,262.354 169.994,264.200 169.396 C 265.080 169.111,266.700 168.751,267.800 168.595 C 268.900 168.439,270.880 168.060,272.200 167.754 C 279.232 166.121,284.277 166.633,284.976 169.050 C 285.336 170.292,284.424 170.462,276.200 170.685 C 268.479 170.895,267.600 171.133,267.600 173.019 C 267.600 174.400,266.920 174.501,255.794 174.778 C 250.070 174.920,245.205 175.150,244.982 175.287 C 244.760 175.425,243.052 175.735,241.189 175.977 C 236.579 176.574,236.000 176.729,236.000 177.365 C 236.000 177.667,235.740 178.014,235.422 178.136 C 235.105 178.258,234.622 179.132,234.350 180.079 C 233.739 182.205,233.649 182.323,233.184 181.588 C 232.059 179.809,233.250 176.400,234.996 176.400 C 235.809 176.400,235.919 176.244,235.753 175.330 C 235.537 174.141,240.202 168.958,242.600 167.723 C 243.260 167.383,244.461 166.428,245.269 165.600 C 246.315 164.529,247.331 163.952,248.793 163.602 C 250.494 163.194,251.013 162.847,251.809 161.586 C 252.838 159.956,253.155 159.793,256.126 159.373 C 257.802 159.137,258.180 158.900,259.031 157.551 C 259.570 156.698,260.143 155.999,260.305 155.998 C 263.133 155.975,265.462 155.102,266.783 153.569 C 268.143 151.991,268.313 151.916,271.000 151.724 C 273.665 151.534,273.868 151.447,275.218 149.920 C 276.577 148.383,276.769 148.302,279.818 147.990 C 283.695 147.593,284.172 147.418,284.730 146.193 C 285.395 144.734,292.429 143.669,294.967 144.643 M326.278 153.742 C 326.133 154.120,325.741 154.257,325.208 154.118 C 324.410 153.909,324.402 153.861,325.055 153.140 C 325.810 152.305,326.667 152.727,326.278 153.742 M310.761 161.353 C 311.357 162.071,310.589 162.402,309.021 162.102 L 307.892 161.886 308.846 161.357 C 310.061 160.684,310.205 160.683,310.761 161.353 M298.955 165.151 C 299.894 166.188,299.224 166.402,295.067 166.394 C 291.677 166.388,289.940 165.905,291.354 165.362 C 294.325 164.222,298.022 164.119,298.955 165.151 M215.519 207.000 C 215.365 210.960,214.969 216.270,214.639 218.800 C 213.549 227.160,213.174 233.998,212.789 252.537 C 212.316 275.382,212.802 273.950,204.819 276.019 C 201.172 276.964,197.460 279.651,195.518 282.751 C 194.997 283.583,193.967 284.411,192.836 284.907 C 191.826 285.350,190.418 286.219,189.706 286.839 C 188.422 287.956,185.080 289.200,183.361 289.200 C 182.869 289.200,181.312 289.813,179.900 290.561 C 178.489 291.310,176.449 292.221,175.367 292.587 C 169.945 294.417,163.856 300.353,160.420 307.160 C 159.785 308.418,158.967 309.695,158.603 309.997 C 158.239 310.299,157.594 311.229,157.168 312.062 C 156.743 312.896,155.840 314.210,155.162 314.982 C 154.484 315.754,153.336 317.514,152.611 318.893 C 151.885 320.272,150.716 322.480,150.012 323.800 C 148.792 326.088,148.739 326.371,148.883 329.859 C 149.054 334.019,149.306 334.488,151.825 335.347 C 153.958 336.074,154.060 335.951,152.223 334.866 C 151.192 334.259,150.729 333.620,150.382 332.335 C 149.616 329.487,149.868 328.528,153.309 321.223 C 154.162 319.412,158.202 315.048,160.886 313.039 C 162.204 312.052,162.860 311.890,166.686 311.604 C 171.825 311.221,173.167 310.841,175.123 309.216 C 178.848 306.122,181.785 303.648,183.809 301.900 C 185.019 300.855,186.191 300.000,186.413 300.000 C 186.636 300.000,187.579 299.303,188.509 298.451 C 189.439 297.600,191.235 296.244,192.500 295.439 L 194.800 293.975 194.753 291.288 C 194.727 289.809,194.590 288.060,194.448 287.400 C 194.147 285.996,196.304 281.958,197.945 280.852 C 198.477 280.493,199.581 279.558,200.399 278.774 C 201.720 277.505,202.324 277.267,205.843 276.619 C 213.071 275.289,213.018 275.452,213.327 253.600 C 213.481 242.760,213.770 235.265,214.162 232.000 C 215.235 223.072,216.045 210.725,215.921 205.200 L 215.800 199.800 215.519 207.000 M178.029 297.794 C 178.040 298.011,177.453 298.341,176.724 298.528 C 175.996 298.715,175.092 299.145,174.715 299.483 C 173.933 300.184,172.903 299.933,172.526 298.951 C 172.106 297.856,173.533 297.151,175.904 297.283 C 177.062 297.347,178.018 297.577,178.029 297.794 M288.000 306.967 C 288.000 307.449,288.861 308.956,289.617 309.800 C 290.012 310.240,290.513 311.230,290.731 312.000 C 290.949 312.770,291.144 313.079,291.164 312.687 C 291.184 312.295,290.929 311.395,290.597 310.687 C 289.940 309.285,288.000 306.506,288.000 306.967 M291.301 315.000 C 291.305 315.880,291.387 316.193,291.483 315.695 C 291.579 315.198,291.575 314.478,291.475 314.095 C 291.375 313.713,291.296 314.120,291.301 315.000 " stroke="none" fill="#9cdc7c" fill-rule="evenodd"></path><path id="path3" d="M111.700 89.087 C 112.305 89.178,113.295 89.178,113.900 89.087 C 114.505 88.995,114.010 88.920,112.800 88.920 C 111.590 88.920,111.095 88.995,111.700 89.087 M125.891 89.089 C 126.601 89.177,127.861 89.179,128.691 89.092 C 129.521 89.005,128.940 88.933,127.400 88.931 C 125.860 88.929,125.181 89.000,125.891 89.089 M100.041 91.034 C 99.293 91.565,98.878 92.000,99.119 92.000 C 99.359 92.000,100.060 91.556,100.678 91.013 C 102.091 89.769,101.808 89.779,100.041 91.034 M68.412 112.270 C 66.813 114.979,67.595 117.818,70.562 120.079 C 72.194 121.323,72.193 121.321,70.348 119.564 C 67.961 117.292,67.406 114.653,68.812 112.270 C 69.289 111.462,69.589 110.800,69.479 110.800 C 69.369 110.800,68.889 111.462,68.412 112.270 M74.626 124.273 C 75.080 124.673,75.746 125.475,76.105 126.055 C 76.465 126.635,77.367 127.485,78.111 127.945 C 78.854 128.404,79.667 129.228,79.916 129.776 C 80.169 130.330,81.259 131.222,82.378 131.789 C 83.482 132.348,84.673 133.245,85.024 133.781 C 85.441 134.416,86.576 135.060,88.287 135.629 C 89.730 136.109,91.561 137.077,92.355 137.779 C 93.150 138.481,94.970 139.474,96.400 139.985 C 97.830 140.496,99.564 141.344,100.253 141.869 C 100.942 142.394,102.887 143.288,104.574 143.855 C 106.261 144.422,108.127 145.289,108.720 145.781 C 109.853 146.720,111.894 147.543,115.648 148.574 C 116.884 148.914,118.131 149.476,118.419 149.822 C 119.270 150.848,120.904 151.525,123.705 152.013 C 125.437 152.314,127.047 152.928,128.410 153.807 C 129.863 154.743,131.339 155.283,133.342 155.613 C 137.226 156.254,140.126 157.070,141.692 157.965 C 143.235 158.845,145.669 159.402,150.600 160.001 C 153.017 160.295,155.032 160.825,156.732 161.613 C 159.149 162.734,160.142 162.959,167.326 164.010 C 169.054 164.262,171.559 164.981,172.926 165.616 C 175.535 166.828,179.394 167.618,182.400 167.557 C 183.878 167.527,183.625 167.431,180.982 167.021 C 179.212 166.746,176.573 166.044,175.118 165.462 C 173.632 164.867,170.131 164.033,167.136 163.559 C 163.929 163.052,160.612 162.245,158.823 161.538 C 156.991 160.815,153.860 160.062,150.688 159.583 C 147.555 159.110,144.564 158.394,143.066 157.758 C 141.710 157.183,138.388 156.221,135.684 155.620 C 132.981 155.019,130.281 154.174,129.684 153.742 C 128.283 152.726,126.767 152.163,123.800 151.556 C 122.347 151.260,120.689 150.561,119.600 149.787 C 118.610 149.083,116.810 148.275,115.600 147.991 C 112.906 147.358,110.911 146.546,109.688 145.584 C 109.180 145.183,107.289 144.293,105.488 143.605 C 103.687 142.917,101.932 142.101,101.590 141.791 C 101.247 141.480,99.354 140.580,97.383 139.791 C 95.412 139.001,93.530 138.011,93.200 137.591 C 92.870 137.171,91.250 136.273,89.600 135.595 C 87.950 134.917,86.060 133.840,85.400 133.202 C 84.740 132.563,83.554 131.771,82.764 131.442 C 81.974 131.112,80.839 130.203,80.243 129.421 C 79.647 128.639,78.631 127.726,77.986 127.393 C 77.341 127.059,76.539 126.255,76.203 125.605 C 75.867 124.955,75.189 124.226,74.696 123.985 L 73.800 123.546 74.626 124.273 M284.705 125.483 C 285.202 125.579,285.922 125.575,286.305 125.475 C 286.687 125.375,286.280 125.296,285.400 125.301 C 284.520 125.305,284.207 125.387,284.705 125.483 M300.305 125.483 C 300.802 125.579,301.522 125.575,301.905 125.475 C 302.287 125.375,301.880 125.296,301.000 125.301 C 300.120 125.305,299.807 125.387,300.305 125.483 M277.432 127.113 L 276.664 128.200 277.732 127.230 C 278.854 126.211,278.993 125.992,278.500 126.013 C 278.335 126.019,277.854 126.514,277.432 127.113 M307.144 126.776 C 307.664 127.229,308.279 127.600,308.511 127.600 C 309.003 127.600,308.979 127.580,307.400 126.655 L 306.200 125.953 307.144 126.776 M199.247 155.600 C 199.751 156.370,202.477 159.427,205.305 162.393 C 208.133 165.360,211.049 168.690,211.786 169.793 C 212.523 170.897,213.727 172.340,214.463 172.999 L 215.800 174.198 214.563 172.799 C 213.883 172.030,212.907 170.770,212.393 170.000 C 211.238 168.267,205.786 162.088,203.039 159.400 C 201.916 158.300,200.397 156.680,199.664 155.800 C 198.435 154.325,198.403 154.309,199.247 155.600 M315.600 161.400 C 314.854 162.170,314.356 162.800,314.493 162.800 C 314.631 162.800,315.411 162.170,316.227 161.400 C 317.044 160.630,317.542 160.000,317.334 160.000 C 317.127 160.000,316.346 160.630,315.600 161.400 M305.200 165.200 C 304.210 165.858,303.145 166.397,302.833 166.398 C 302.522 166.399,302.377 166.511,302.513 166.646 C 302.907 167.041,305.155 166.109,306.461 165.010 C 308.096 163.634,307.397 163.739,305.200 165.200 M195.800 165.600 C 194.969 166.260,194.000 166.814,193.645 166.832 C 193.234 166.852,193.181 166.936,193.498 167.064 C 193.772 167.175,194.922 166.958,196.054 166.582 C 198.003 165.935,198.132 165.935,198.502 166.596 C 198.716 166.979,199.770 168.262,200.843 169.448 C 201.916 170.633,203.329 172.547,203.982 173.701 C 204.636 174.856,205.519 176.015,205.945 176.279 C 206.372 176.542,207.107 177.919,207.580 179.340 C 208.053 180.760,208.964 182.714,209.605 183.682 C 210.321 184.763,211.088 186.821,211.595 189.021 C 212.049 190.989,212.910 194.040,213.508 195.800 C 214.836 199.706,214.967 207.472,213.873 217.400 C 212.811 227.047,212.403 235.510,212.137 253.400 C 211.826 274.418,212.180 273.318,205.068 275.373 C 203.125 275.934,201.325 276.517,201.068 276.668 C 199.690 277.479,195.463 281.504,194.953 282.491 C 194.628 283.120,193.785 283.987,193.081 284.416 C 191.580 285.331,191.927 285.465,193.581 284.610 C 194.209 284.285,195.092 283.430,195.544 282.710 C 197.462 279.649,201.190 276.960,204.819 276.019 C 212.807 273.949,212.313 275.414,212.799 252.338 C 213.201 233.258,213.525 227.432,214.666 218.800 C 215.846 209.872,215.664 197.198,214.313 194.142 C 213.715 192.790,212.862 190.021,212.418 187.987 C 211.923 185.716,211.248 183.810,210.668 183.045 C 210.150 182.360,209.229 180.540,208.623 179.000 C 208.016 177.460,207.018 175.660,206.403 175.000 C 205.789 174.340,204.920 173.069,204.473 172.175 C 204.026 171.281,203.048 169.931,202.299 169.175 C 201.551 168.419,200.353 167.035,199.636 166.100 C 198.086 164.078,197.768 164.036,195.800 165.600 M185.911 167.893 C 186.851 167.978,188.291 167.977,189.111 167.891 C 189.930 167.805,189.160 167.736,187.400 167.737 C 185.640 167.739,184.970 167.809,185.911 167.893 M292.600 168.577 C 290.132 169.385,287.314 170.781,288.133 170.791 C 288.536 170.796,290.066 170.282,291.533 169.649 C 293.000 169.015,294.470 168.400,294.800 168.280 C 296.142 167.795,294.184 168.059,292.600 168.577 M235.178 171.500 L 233.800 173.000 235.300 171.622 C 236.696 170.338,236.984 170.000,236.678 170.000 C 236.612 170.000,235.937 170.675,235.178 171.500 M280.500 171.876 C 280.885 171.976,281.515 171.976,281.900 171.876 C 282.285 171.775,281.970 171.693,281.200 171.693 C 280.430 171.693,280.115 171.775,280.500 171.876 M275.200 172.604 C 273.770 172.895,271.941 173.414,271.136 173.757 C 268.827 174.741,266.485 175.153,260.745 175.588 C 257.805 175.811,251.942 176.254,247.715 176.571 C 239.057 177.222,236.923 177.828,235.828 179.945 C 234.933 181.677,235.049 181.841,236.202 180.470 C 237.368 179.085,240.728 178.216,246.400 177.834 C 248.270 177.708,251.150 177.348,252.800 177.034 C 254.450 176.720,258.140 176.265,261.000 176.024 C 265.875 175.614,270.391 174.720,277.000 172.859 C 280.181 171.963,279.101 171.810,275.200 172.604 M215.964 175.133 C 216.180 175.536,216.674 176.121,217.063 176.433 C 217.564 176.835,217.504 176.622,216.857 175.700 C 215.869 174.291,215.331 173.949,215.964 175.133 M230.378 176.300 L 229.000 177.800 230.500 176.422 C 231.896 175.138,232.184 174.800,231.878 174.800 C 231.812 174.800,231.137 175.475,230.378 176.300 M227.219 178.980 C 226.484 179.739,225.504 180.434,225.041 180.525 C 224.219 180.687,224.219 180.692,225.019 180.746 C 225.496 180.777,226.489 180.133,227.400 179.200 C 228.259 178.320,228.871 177.600,228.760 177.600 C 228.648 177.600,227.955 178.221,227.219 178.980 M233.474 184.700 C 232.818 185.651,232.131 187.629,231.597 190.103 C 231.134 192.250,230.189 195.215,229.498 196.693 C 227.938 200.025,227.742 203.376,227.731 226.800 L 227.723 242.600 228.026 224.600 C 228.363 204.559,228.659 200.862,230.223 197.146 C 230.810 195.750,231.617 192.762,232.017 190.506 C 232.428 188.178,233.072 185.928,233.506 185.302 C 234.541 183.807,234.880 183.200,234.678 183.200 C 234.585 183.200,234.043 183.875,233.474 184.700 M228.109 246.000 C 228.109 246.990,228.187 247.395,228.282 246.900 C 228.378 246.405,228.378 245.595,228.282 245.100 C 228.187 244.605,228.109 245.010,228.109 246.000 M228.487 249.600 C 228.483 250.150,228.624 251.050,228.800 251.600 C 229.231 252.944,229.231 251.492,228.800 249.800 C 228.526 248.722,228.494 248.702,228.487 249.600 M231.301 263.400 C 231.305 264.280,231.387 264.593,231.483 264.095 C 231.579 263.598,231.575 262.878,231.475 262.495 C 231.375 262.113,231.296 262.520,231.301 263.400 M232.568 271.548 C 233.417 272.921,240.832 276.901,241.429 276.304 C 241.526 276.207,240.839 275.902,239.903 275.625 C 238.966 275.348,237.660 274.730,237.000 274.250 C 234.754 272.619,232.307 271.127,232.568 271.548 M242.600 276.866 C 243.040 277.108,243.858 277.688,244.419 278.154 C 244.979 278.619,244.846 278.415,244.124 277.700 C 243.402 276.985,242.584 276.405,242.306 276.412 C 242.028 276.419,242.160 276.623,242.600 276.866 M246.000 279.379 C 246.000 279.489,246.540 279.859,247.200 280.200 C 247.860 280.541,248.400 280.731,248.400 280.621 C 248.400 280.511,247.860 280.141,247.200 279.800 C 246.540 279.459,246.000 279.269,246.000 279.379 M250.000 281.977 C 250.770 282.669,252.570 283.780,253.999 284.446 C 255.429 285.111,256.890 285.920,257.247 286.243 C 257.819 286.761,258.138 286.734,259.963 286.015 C 261.099 285.567,262.878 285.169,263.915 285.130 L 265.800 285.060 264.084 284.906 C 263.140 284.822,261.380 285.040,260.171 285.391 C 258.213 285.960,257.856 285.965,256.887 285.433 C 256.289 285.105,254.765 284.365,253.500 283.789 C 252.235 283.213,251.200 282.580,251.200 282.381 C 251.200 282.183,250.615 281.728,249.900 281.369 L 248.600 280.718 250.000 281.977 M267.700 285.331 C 268.745 285.631,269.916 286.162,270.301 286.510 C 270.686 286.859,272.171 287.673,273.601 288.320 C 276.607 289.679,280.436 293.036,284.014 297.449 C 286.743 300.815,286.990 301.298,287.606 304.475 C 287.848 305.727,288.485 307.347,289.020 308.075 C 292.696 313.077,292.967 324.143,289.535 329.099 C 288.658 330.365,287.492 332.058,286.942 332.863 C 286.002 334.240,282.940 336.000,281.486 336.000 C 281.175 336.000,279.745 336.624,278.309 337.386 C 276.819 338.176,274.159 339.108,272.117 339.553 C 270.147 339.983,267.470 340.893,266.168 341.575 C 261.852 343.835,247.755 345.147,235.264 344.451 C 230.719 344.198,220.430 343.818,212.400 343.607 C 192.875 343.093,191.171 342.973,181.200 341.403 C 176.470 340.658,170.800 339.927,168.600 339.779 C 162.062 339.338,158.203 338.593,156.717 337.483 C 155.992 336.943,154.410 336.188,153.200 335.805 C 151.990 335.422,150.550 334.836,150.000 334.503 C 147.788 333.161,150.130 335.056,152.718 336.702 C 157.414 339.689,158.093 339.903,164.400 340.388 C 171.669 340.947,175.630 341.503,177.748 342.260 C 181.282 343.525,187.758 344.009,206.400 344.405 C 217.056 344.631,227.904 345.074,231.800 345.443 C 240.215 346.238,247.160 346.237,251.831 345.439 C 253.794 345.103,257.300 344.640,259.623 344.409 C 264.668 343.907,266.066 343.540,267.973 342.219 C 268.923 341.560,270.935 340.898,273.866 340.280 C 277.149 339.588,278.636 339.073,279.534 338.317 C 280.203 337.754,282.017 336.908,283.564 336.439 C 286.374 335.585,289.370 332.611,291.539 328.521 C 293.798 324.263,293.036 312.800,290.175 308.000 C 289.454 306.790,288.739 304.990,288.587 304.000 C 288.241 301.751,287.489 299.892,286.535 298.928 C 286.131 298.519,285.019 297.198,284.064 295.993 C 281.720 293.033,276.824 289.024,274.498 288.159 C 273.454 287.772,271.880 286.953,271.000 286.341 C 270.091 285.708,268.623 285.133,267.600 285.007 L 265.800 284.786 267.700 285.331 M151.499 320.432 C 150.895 321.514,150.483 322.400,150.583 322.400 C 150.857 322.400,152.921 318.788,152.747 318.614 C 152.665 318.532,152.103 319.350,151.499 320.432 " stroke="none" fill="#a4cc91" fill-rule="evenodd"></path><path id="path4" d="M111.400 86.237 C 109.860 86.538,106.530 87.067,104.000 87.411 C 98.775 88.122,97.265 88.527,95.000 89.824 C 94.120 90.328,92.238 91.039,90.818 91.403 C 88.011 92.122,86.000 93.023,86.000 93.561 C 86.000 93.935,82.850 95.345,81.089 95.759 C 80.364 95.930,79.759 96.479,79.350 97.336 C 78.897 98.287,78.262 98.811,77.061 99.226 C 75.741 99.682,75.311 100.077,74.964 101.149 C 74.677 102.037,74.129 102.666,73.364 102.988 C 71.963 103.577,71.396 104.239,71.049 105.693 C 70.894 106.344,70.305 107.036,69.591 107.405 C 68.869 107.778,68.058 108.736,67.552 109.813 C 67.090 110.797,66.284 112.006,65.763 112.501 C 64.603 113.600,64.581 114.032,65.590 115.921 C 66.025 116.734,66.664 118.052,67.011 118.848 C 67.383 119.702,68.191 120.593,68.980 121.017 C 69.715 121.413,70.599 122.328,70.944 123.051 C 71.288 123.773,72.118 124.647,72.787 124.993 C 73.457 125.340,74.438 126.309,74.967 127.149 C 75.497 127.988,76.441 128.886,77.065 129.145 C 77.689 129.405,78.509 130.157,78.886 130.817 C 79.284 131.512,80.293 132.333,81.286 132.769 C 82.229 133.183,83.470 134.129,84.045 134.871 C 84.805 135.852,85.731 136.418,87.445 136.949 C 88.751 137.354,90.358 138.211,91.052 138.872 C 91.741 139.528,93.476 140.490,94.907 141.009 C 96.338 141.529,97.976 142.387,98.548 142.917 C 99.120 143.446,100.984 144.288,102.693 144.787 C 104.402 145.286,106.250 146.101,106.800 146.598 C 108.175 147.841,109.010 148.226,112.009 148.999 C 113.434 149.366,115.385 150.184,116.343 150.817 C 118.214 152.050,119.296 152.441,122.905 153.185 C 124.172 153.446,125.702 154.069,126.305 154.570 C 128.054 156.025,128.835 156.312,132.354 156.794 C 136.179 157.317,136.906 157.553,138.930 158.927 C 140.446 159.956,143.136 160.532,148.753 161.030 C 150.965 161.226,152.321 161.616,154.153 162.583 C 157.191 164.186,157.635 164.294,163.189 164.782 C 167.232 165.136,168.025 165.342,170.946 166.790 L 174.200 168.403 181.459 168.851 C 188.277 169.271,191.996 169.116,197.200 168.195 C 198.317 167.997,201.409 171.329,203.049 174.497 C 203.515 175.399,204.438 176.601,205.100 177.168 C 206.026 177.963,206.474 178.889,207.051 181.198 C 207.537 183.146,208.191 184.643,208.915 185.469 C 210.124 186.847,210.669 188.932,211.826 196.600 C 212.521 201.203,212.493 204.859,211.628 222.600 C 211.425 226.780,211.144 238.930,211.006 249.600 C 210.708 272.517,210.955 270.547,208.207 271.849 C 207.011 272.415,205.825 273.129,205.570 273.436 C 205.316 273.743,203.881 274.359,202.382 274.805 C 199.601 275.633,198.366 276.514,194.447 280.460 C 192.427 282.495,191.321 283.135,188.000 284.191 C 186.790 284.576,185.392 285.146,184.893 285.459 C 184.395 285.772,182.415 286.577,180.493 287.250 C 178.572 287.922,176.190 288.971,175.200 289.581 C 174.210 290.192,172.550 291.031,171.510 291.446 C 169.420 292.280,160.848 300.264,159.292 302.826 C 158.816 303.611,158.075 304.570,157.647 304.958 C 157.218 305.346,156.467 306.684,155.977 307.932 C 155.488 309.179,154.562 310.878,153.919 311.706 C 153.277 312.535,152.191 314.425,151.506 315.906 C 150.821 317.388,149.847 319.104,149.340 319.719 C 147.844 321.537,147.179 324.526,147.157 329.522 C 147.134 334.770,147.490 335.638,150.129 336.769 C 151.051 337.165,152.374 337.966,153.067 338.550 C 155.289 340.419,156.714 340.752,164.255 341.160 C 171.810 341.570,171.877 341.581,175.000 343.032 C 178.075 344.461,182.958 344.802,206.200 345.211 C 227.436 345.584,228.542 345.658,233.000 347.020 C 237.204 348.304,249.041 348.112,252.246 346.707 C 254.206 345.848,255.754 345.549,260.046 345.198 C 266.213 344.693,267.713 344.309,269.466 342.785 C 270.422 341.954,271.452 341.572,273.666 341.228 C 275.280 340.978,277.184 340.681,277.898 340.568 C 278.650 340.450,279.743 339.805,280.498 339.032 C 281.429 338.080,282.408 337.571,283.931 337.248 C 286.786 336.641,287.436 336.244,288.610 334.385 C 289.159 333.515,290.241 332.218,291.015 331.502 C 292.223 330.385,292.514 329.745,293.062 327.000 C 293.413 325.240,293.925 323.350,294.199 322.800 C 294.608 321.979,294.565 321.086,293.958 317.800 C 293.551 315.600,293.012 312.459,292.759 310.820 C 292.388 308.405,292.079 307.617,291.133 306.672 C 290.299 305.838,289.798 304.749,289.375 302.852 C 288.589 299.331,288.265 298.642,286.283 296.295 C 281.602 290.751,276.919 286.800,275.030 286.800 C 274.699 286.800,273.837 286.286,273.114 285.659 C 270.554 283.435,266.139 282.681,260.491 283.504 C 257.467 283.945,253.866 282.967,252.672 281.381 C 252.271 280.849,251.022 279.951,249.897 279.386 C 248.771 278.820,247.171 277.744,246.342 276.995 C 245.455 276.193,243.918 275.366,242.612 274.986 C 241.390 274.631,239.869 273.901,239.230 273.364 C 238.592 272.827,237.074 271.932,235.856 271.374 C 233.166 270.143,233.289 270.514,232.808 262.184 C 232.357 254.380,231.974 251.989,230.527 247.925 C 228.362 241.846,228.808 207.701,231.145 200.600 C 231.797 198.620,232.605 195.133,232.940 192.852 C 233.370 189.932,233.781 188.452,234.329 187.852 C 235.387 186.693,236.240 184.891,236.554 183.155 C 237.017 180.597,237.454 180.444,245.487 180.027 C 251.527 179.714,253.196 179.487,255.656 178.643 C 257.713 177.938,260.528 177.444,265.000 177.005 C 274.033 176.119,276.725 175.641,278.930 174.529 C 280.210 173.884,282.366 173.351,285.330 172.948 C 292.302 171.999,293.925 171.611,295.115 170.610 C 296.356 169.566,298.259 168.996,301.800 168.609 C 305.352 168.220,307.022 167.698,308.388 166.548 C 309.222 165.847,310.723 165.275,313.091 164.758 C 315.665 164.196,316.974 163.673,318.124 162.748 C 318.980 162.061,320.823 161.155,322.221 160.736 C 323.762 160.274,325.055 159.602,325.504 159.032 C 325.911 158.514,327.343 157.535,328.686 156.858 C 330.114 156.137,331.501 155.080,332.027 154.312 C 332.521 153.591,333.547 152.342,334.306 151.539 C 336.038 149.706,336.785 146.766,336.794 141.754 C 336.801 137.416,336.274 136.470,333.049 135.030 C 331.922 134.527,330.664 133.737,330.254 133.275 C 329.843 132.813,328.269 131.961,326.756 131.383 C 325.243 130.805,323.902 130.165,323.775 129.960 C 323.321 129.226,320.479 128.040,317.241 127.234 C 315.426 126.782,313.423 126.043,312.788 125.592 C 310.944 124.278,309.818 124.049,302.076 123.407 C 287.470 122.196,276.581 123.096,273.028 125.806 C 272.303 126.359,270.878 127.095,269.860 127.441 C 268.843 127.788,267.584 128.579,267.063 129.198 C 266.541 129.818,265.368 130.706,264.455 131.172 C 261.294 132.785,249.378 144.802,247.174 148.600 C 246.609 149.573,245.659 150.753,245.063 151.222 C 244.466 151.692,243.640 152.734,243.228 153.538 C 242.816 154.342,242.016 155.399,241.450 155.888 C 240.885 156.376,239.803 158.006,239.045 159.511 C 238.287 161.015,237.393 162.474,237.058 162.752 C 236.722 163.031,235.977 164.490,235.402 165.995 C 234.396 168.627,231.628 171.814,227.287 175.337 C 226.209 176.212,222.085 177.261,221.764 176.742 C 221.643 176.545,220.658 175.936,219.575 175.387 C 218.194 174.687,217.443 173.998,217.058 173.076 C 216.756 172.354,215.963 171.304,215.296 170.742 C 214.629 170.181,213.811 169.200,213.478 168.561 C 212.850 167.355,206.426 160.180,202.654 156.470 C 200.559 154.409,200.474 154.239,200.039 151.270 C 199.793 149.581,199.158 147.357,198.629 146.327 C 198.100 145.298,197.358 143.048,196.981 141.327 C 196.225 137.878,195.910 137.116,194.578 135.513 C 194.081 134.916,193.288 133.266,192.815 131.846 C 192.298 130.291,191.413 128.690,190.589 127.816 C 189.837 127.019,189.005 125.643,188.741 124.760 C 188.476 123.876,187.597 122.398,186.787 121.476 C 185.977 120.554,184.926 119.038,184.452 118.106 C 183.978 117.174,183.132 116.112,182.572 115.745 C 182.012 115.378,181.195 114.374,180.755 113.513 C 180.316 112.652,179.356 111.593,178.621 111.159 C 177.886 110.726,177.065 109.839,176.796 109.189 C 176.526 108.539,175.733 107.653,175.034 107.221 C 174.334 106.789,173.177 105.707,172.462 104.817 C 171.747 103.928,170.916 103.200,170.615 103.200 C 170.314 103.200,169.479 102.457,168.759 101.549 C 168.040 100.640,166.883 99.660,166.188 99.369 C 165.494 99.079,164.179 98.218,163.266 97.455 C 162.353 96.693,160.750 95.754,159.703 95.369 C 158.656 94.984,157.350 94.270,156.800 93.783 C 155.364 92.512,154.496 92.132,151.375 91.411 C 149.849 91.058,147.970 90.358,147.200 89.856 C 145.082 88.476,144.936 88.444,134.012 86.972 C 122.859 85.470,116.397 85.260,111.400 86.237 M133.400 89.221 C 138.404 89.594,139.249 89.767,141.342 90.849 C 143.426 91.927,145.696 92.555,150.458 93.371 C 151.260 93.508,152.594 94.159,153.422 94.818 C 154.251 95.476,155.845 96.282,156.965 96.607 C 158.102 96.938,159.702 97.824,160.590 98.615 C 161.465 99.394,163.052 100.339,164.117 100.716 C 165.321 101.141,166.431 101.894,167.050 102.704 C 167.598 103.421,168.720 104.351,169.544 104.772 C 170.368 105.192,171.256 106.005,171.518 106.579 C 171.779 107.153,172.631 108.000,173.411 108.460 C 174.191 108.920,175.087 109.795,175.403 110.405 C 175.718 111.015,176.701 112.088,177.588 112.790 C 178.475 113.493,179.200 114.322,179.200 114.634 C 179.200 114.946,179.894 115.876,180.742 116.700 C 181.591 117.525,182.679 118.973,183.160 119.918 C 183.641 120.863,184.650 122.317,185.402 123.150 C 186.155 123.983,187.121 125.482,187.549 126.482 C 187.978 127.481,188.970 129.140,189.754 130.167 C 190.538 131.194,191.457 132.971,191.796 134.117 C 192.135 135.263,192.924 136.920,193.550 137.800 C 194.870 139.658,195.307 140.942,196.206 145.600 C 197.470 152.147,200.598 158.800,202.412 158.800 C 202.806 158.800,211.085 168.071,212.600 170.209 C 217.318 176.867,221.231 180.400,223.888 180.400 L 225.868 180.400 231.344 175.100 C 236.466 170.143,236.842 169.675,237.164 167.871 C 237.403 166.526,237.885 165.573,238.754 164.723 C 239.439 164.053,240.000 163.278,240.000 163.001 C 240.000 161.949,242.095 157.977,242.868 157.564 C 243.312 157.326,244.025 156.341,244.452 155.375 C 244.880 154.409,245.862 153.136,246.635 152.546 C 247.408 151.957,248.256 151.065,248.520 150.564 C 250.286 147.214,264.133 133.621,266.915 132.508 C 267.802 132.153,268.676 131.426,269.023 130.756 C 269.348 130.127,270.016 129.534,270.507 129.440 C 275.568 128.467,276.213 128.248,277.338 127.123 C 280.208 124.253,302.604 124.338,308.688 127.242 C 310.590 128.150,312.459 128.665,315.054 128.997 C 318.484 129.436,318.818 129.563,320.076 130.896 C 321.164 132.050,321.911 132.421,323.953 132.823 C 325.449 133.117,326.940 133.706,327.606 134.266 C 328.224 134.786,329.781 135.670,331.065 136.230 C 332.349 136.790,333.670 137.392,334.000 137.567 C 334.901 138.046,335.359 141.756,334.876 144.666 C 334.249 148.451,330.691 153.482,327.400 155.239 C 326.080 155.943,324.460 157.092,323.800 157.792 C 322.878 158.770,322.030 159.176,320.144 159.544 C 318.286 159.906,317.336 160.355,316.244 161.385 C 314.617 162.919,314.501 162.964,310.512 163.604 C 308.396 163.944,307.240 164.374,306.186 165.211 C 305.346 165.879,303.885 166.520,302.674 166.752 C 301.533 166.971,299.227 167.415,297.548 167.739 C 295.870 168.063,293.260 168.868,291.748 169.527 C 289.939 170.317,287.224 171.011,283.800 171.559 C 280.940 172.018,277.610 172.678,276.400 173.026 C 270.755 174.652,265.773 175.622,261.000 176.024 C 258.140 176.265,254.450 176.720,252.800 177.034 C 251.150 177.348,248.270 177.708,246.400 177.834 C 239.203 178.319,235.200 179.862,235.200 182.152 C 235.200 182.422,234.641 183.525,233.957 184.603 C 233.030 186.066,232.534 187.584,232.003 190.586 C 231.611 192.798,230.809 195.753,230.220 197.153 C 228.524 201.181,228.263 205.128,228.230 227.200 C 228.199 248.228,228.245 248.941,229.993 254.600 C 230.955 257.716,231.130 258.838,231.588 264.849 C 231.799 267.604,232.089 270.165,232.232 270.540 C 232.656 271.643,238.020 275.008,240.862 275.954 C 242.305 276.434,243.912 277.281,244.433 277.835 C 244.954 278.390,246.690 279.566,248.290 280.450 C 249.891 281.333,251.200 282.210,251.200 282.399 C 251.200 282.588,252.235 283.213,253.500 283.789 C 254.765 284.365,256.289 285.105,256.887 285.433 C 257.858 285.966,258.217 285.959,260.250 285.368 C 263.888 284.311,268.698 284.711,270.894 286.255 C 271.832 286.915,273.454 287.772,274.498 288.159 C 276.824 289.024,281.720 293.033,284.064 295.993 C 285.019 297.198,286.131 298.519,286.535 298.928 C 287.489 299.892,288.241 301.751,288.587 304.000 C 288.739 304.990,289.454 306.790,290.175 308.000 C 293.036 312.800,293.798 324.263,291.539 328.521 C 289.370 332.611,286.374 335.585,283.564 336.439 C 282.017 336.908,280.203 337.754,279.534 338.317 C 278.636 339.073,277.149 339.588,273.866 340.280 C 270.935 340.898,268.923 341.560,267.973 342.219 C 266.066 343.540,264.668 343.907,259.623 344.409 C 257.300 344.640,253.794 345.103,251.831 345.439 C 247.160 346.237,240.215 346.238,231.800 345.443 C 227.904 345.074,217.056 344.631,206.400 344.405 C 187.758 344.009,181.282 343.525,177.748 342.260 C 175.630 341.503,171.669 340.947,164.400 340.388 C 158.056 339.900,157.469 339.712,152.498 336.572 C 148.901 334.300,148.756 334.026,148.755 329.485 C 148.754 325.564,150.605 320.902,154.029 316.200 C 154.670 315.320,155.720 313.790,156.362 312.800 C 157.005 311.810,157.972 310.460,158.512 309.800 C 159.052 309.140,160.042 307.520,160.710 306.200 C 161.681 304.284,164.790 300.168,166.686 298.288 C 170.066 294.938,173.136 292.800,174.567 292.800 C 174.896 292.800,176.658 292.015,178.483 291.056 C 180.316 290.092,182.695 289.180,183.800 289.018 C 186.319 288.648,188.316 287.823,189.600 286.623 C 190.150 286.109,191.365 285.305,192.300 284.836 C 193.259 284.355,194.413 283.333,194.947 282.492 C 195.761 281.209,199.643 277.516,201.068 276.670 C 201.325 276.518,203.125 275.934,205.068 275.373 C 212.180 273.318,211.826 274.418,212.137 253.400 C 212.403 235.510,212.811 227.047,213.873 217.400 C 214.967 207.472,214.836 199.706,213.508 195.800 C 212.910 194.040,212.049 190.989,211.595 189.021 C 211.088 186.821,210.321 184.763,209.605 183.682 C 208.964 182.714,208.053 180.760,207.580 179.340 C 207.107 177.919,206.372 176.542,205.945 176.279 C 205.519 176.015,204.636 174.856,203.982 173.701 C 203.329 172.547,201.916 170.633,200.843 169.448 C 199.770 168.262,198.716 166.979,198.502 166.596 C 198.137 165.945,197.982 165.940,196.156 166.530 C 189.564 168.659,178.540 168.225,172.926 165.616 C 171.558 164.980,169.056 164.262,167.326 164.010 C 160.142 162.959,159.149 162.734,156.732 161.613 C 155.032 160.825,153.017 160.295,150.600 160.001 C 145.669 159.402,143.235 158.845,141.692 157.965 C 140.126 157.070,137.226 156.254,133.342 155.613 C 131.339 155.283,129.863 154.743,128.410 153.807 C 127.047 152.928,125.437 152.314,123.705 152.013 C 120.904 151.525,119.270 150.848,118.419 149.822 C 118.131 149.476,116.884 148.914,115.648 148.574 C 111.894 147.543,109.853 146.720,108.720 145.781 C 108.127 145.289,106.261 144.422,104.574 143.855 C 102.887 143.288,100.942 142.394,100.253 141.869 C 99.564 141.344,97.830 140.496,96.400 139.985 C 94.970 139.474,93.150 138.481,92.355 137.779 C 91.561 137.077,89.730 136.109,88.287 135.629 C 86.576 135.060,85.441 134.416,85.024 133.781 C 84.673 133.245,83.482 132.348,82.378 131.789 C 81.273 131.229,80.171 130.335,79.928 129.801 C 79.684 129.267,78.784 128.366,77.927 127.799 C 77.069 127.232,76.169 126.332,75.927 125.799 C 75.684 125.266,74.806 124.381,73.975 123.831 C 73.144 123.281,72.355 122.488,72.222 122.070 C 72.089 121.651,71.107 120.572,70.039 119.671 C 66.622 116.791,66.969 112.402,70.860 109.262 C 71.499 108.747,72.379 107.625,72.815 106.771 C 73.251 105.916,74.124 104.949,74.756 104.623 C 75.387 104.296,76.275 103.399,76.730 102.629 C 77.192 101.846,78.153 100.980,78.911 100.663 C 79.656 100.351,80.701 99.558,81.233 98.899 C 81.919 98.050,83.013 97.446,85.000 96.820 C 86.632 96.307,88.301 95.462,89.000 94.796 C 89.959 93.884,90.918 93.520,93.774 92.989 C 97.974 92.207,98.922 91.884,100.804 90.590 C 103.147 88.979,120.422 88.253,133.400 89.221 " stroke="none" fill="#b6e4a1" fill-rule="evenodd"></path></g></svg>