<svg id="svg" version="1.1" xmlns="http://www.w3.org/2000/svg" xmlns:xlink="http://www.w3.org/1999/xlink" width="400" height="416" viewBox="0, 0, 400,416"><g id="svgg"><path id="path0" d="M129.133 101.569 C 118.646 101.696,109.997 101.890,109.912 102.000 C 109.827 102.110,109.438 102.710,109.048 103.333 C 108.657 103.957,107.750 104.713,107.031 105.013 L 105.723 105.559 105.464 109.480 C 105.062 115.547,105.161 138.118,105.592 138.800 C 106.203 139.766,309.216 139.544,310.694 138.575 L 311.705 137.913 311.462 122.856 C 311.163 104.278,311.262 104.765,307.218 102.058 C 306.177 101.361,175.837 101.003,129.133 101.569 M292.254 115.961 C 295.081 117.299,295.279 117.630,294.530 119.780 C 293.258 123.429,291.835 124.004,284.113 123.988 C 275.371 123.970,272.958 122.763,272.830 118.349 C 272.730 114.884,286.419 113.201,292.254 115.961 M133.337 116.677 C 135.458 117.743,135.483 117.868,134.194 120.954 C 133.306 123.079,130.591 124.326,128.834 123.418 C 126.478 122.199,125.525 118.586,127.161 117.070 C 129.412 114.984,129.906 114.952,133.337 116.677 M147.064 116.961 C 150.043 120.410,144.350 125.947,141.031 122.829 C 139.489 121.381,139.319 118.140,140.709 116.674 C 142.151 115.151,145.638 115.309,147.064 116.961 M159.588 116.587 C 160.841 117.921,160.562 121.775,159.128 122.938 C 156.175 125.332,150.481 119.983,153.010 117.189 C 154.486 115.558,158.293 115.209,159.588 116.587 M149.614 165.174 C 148.976 166.367,149.058 186.184,149.704 186.720 C 149.985 186.954,152.790 187.196,156.076 187.269 C 164.136 187.449,166.526 189.437,162.834 192.888 C 162.155 193.522,161.600 194.359,161.600 194.749 C 161.600 196.396,160.257 199.259,158.996 200.303 C 157.889 201.218,157.590 201.831,157.199 203.997 C 156.614 207.234,155.918 208.932,154.877 209.661 C 154.399 209.996,153.818 211.199,153.451 212.613 C 152.835 214.986,151.423 216.800,150.192 216.800 C 148.989 216.800,148.800 218.395,148.800 228.566 C 148.800 238.692,149.197 242.000,150.413 242.000 C 151.061 242.000,153.111 244.392,153.380 245.461 C 153.531 246.064,154.158 247.130,154.773 247.830 C 155.574 248.742,156.033 249.884,156.391 251.852 C 156.893 254.612,157.618 256.213,158.747 257.051 C 159.443 257.568,159.452 260.720,158.763 262.449 C 158.293 263.628,156.720 264.000,152.208 264.000 C 148.749 264.000,148.800 263.816,148.800 276.357 C 148.800 285.846,148.859 286.729,149.531 287.338 C 150.913 288.588,169.426 288.304,172.013 286.993 L 174.000 285.987 174.000 283.802 C 174.000 279.936,177.143 278.908,180.324 281.733 C 181.454 282.736,183.204 283.803,184.339 284.180 C 185.445 284.547,187.020 285.380,187.840 286.031 C 188.659 286.682,190.335 287.492,191.565 287.829 C 193.843 288.455,195.178 288.890,199.357 290.365 C 206.192 292.777,223.669 292.350,230.529 289.603 C 235.283 287.699,238.259 287.347,242.926 288.136 C 245.824 288.626,249.348 288.800,256.378 288.800 C 269.185 288.800,268.524 288.475,278.541 299.710 C 279.673 300.980,281.410 302.892,282.400 303.959 C 286.467 308.341,288.233 310.278,288.839 311.018 C 289.190 311.448,290.508 312.700,291.767 313.800 C 293.027 314.900,295.479 317.240,297.217 319.000 C 298.955 320.760,300.787 322.603,301.288 323.096 C 302.464 324.252,303.024 324.819,307.648 329.540 C 309.764 331.701,311.800 333.933,312.171 334.500 C 312.543 335.067,313.511 335.838,314.323 336.214 C 315.136 336.590,316.280 337.344,316.866 337.891 L 317.932 338.884 318.866 337.809 C 319.380 337.217,320.655 336.118,321.700 335.367 C 322.745 334.616,323.600 333.707,323.600 333.348 C 323.600 332.989,324.239 332.092,325.019 331.356 L 326.438 330.018 326.164 326.043 L 325.890 322.067 324.223 321.648 C 322.909 321.317,322.434 320.950,321.978 319.914 C 321.658 319.186,320.850 318.333,320.165 318.000 C 319.486 317.670,318.136 316.629,317.165 315.686 C 316.194 314.744,313.240 312.007,310.600 309.606 C 307.960 307.204,304.900 304.345,303.800 303.253 C 302.700 302.161,301.314 301.047,300.719 300.778 C 300.125 300.509,299.358 299.698,299.015 298.975 C 298.587 298.074,298.020 297.580,297.207 297.401 C 296.112 297.161,294.000 295.184,294.000 294.400 C 294.000 294.214,293.362 293.851,292.582 293.594 C 291.646 293.285,290.827 292.593,290.177 291.563 C 289.634 290.703,288.895 290.000,288.534 290.000 C 288.173 290.000,287.230 289.314,286.439 288.475 C 285.647 287.637,284.370 286.521,283.600 285.997 C 280.158 283.653,271.755 275.775,270.545 273.758 C 270.135 273.075,269.214 272.024,268.500 271.422 L 267.200 270.329 267.202 265.664 C 267.205 260.276,267.641 258.315,269.241 256.493 C 270.479 255.082,270.623 254.640,271.018 251.021 C 271.234 249.040,271.500 248.420,272.612 247.308 C 273.346 246.574,274.155 245.343,274.409 244.572 C 274.663 243.802,275.302 242.890,275.828 242.545 L 276.784 241.918 274.998 239.597 C 274.015 238.320,272.334 236.736,271.262 236.076 C 270.190 235.416,268.918 234.239,268.436 233.459 C 267.955 232.679,267.191 231.924,266.739 231.781 C 265.194 231.290,260.849 226.533,259.819 224.205 C 259.278 222.981,258.292 221.219,257.629 220.290 C 255.044 216.665,253.991 204.461,255.845 199.600 C 256.306 198.390,256.874 196.500,257.107 195.400 C 259.181 185.604,259.521 184.778,261.892 183.787 C 262.611 183.487,263.200 183.066,263.200 182.853 C 263.200 182.639,264.063 181.505,265.118 180.332 L 267.036 178.200 266.818 171.867 C 266.536 163.688,267.627 164.400,255.386 164.400 C 244.316 164.400,244.706 164.276,243.999 168.004 C 243.050 173.008,238.083 174.624,234.968 170.942 C 234.096 169.910,231.068 169.232,227.200 169.202 C 224.834 169.184,223.555 168.499,222.703 166.794 C 221.764 164.916,221.110 164.811,208.544 164.533 L 198.087 164.301 197.344 166.649 C 196.702 168.674,196.393 169.094,195.100 169.702 C 194.275 170.089,193.600 170.588,193.600 170.809 C 193.600 171.591,191.038 172.755,188.302 173.217 C 186.053 173.596,185.331 173.908,184.468 174.877 C 182.706 176.854,178.678 178.150,175.813 177.661 C 173.132 177.204,172.400 175.639,172.400 170.370 C 172.400 164.095,173.026 164.400,160.160 164.400 C 150.552 164.400,150.007 164.440,149.614 165.174 " stroke="none" fill="#7cc650" fill-rule="evenodd"></path><path id="path1" d="M246.000 1.000 L 246.000 2.000 237.300 2.040 C 226.785 2.088,226.713 2.103,226.243 4.318 L 225.886 6.000 220.572 6.000 C 214.594 6.000,214.000 6.237,214.000 8.629 L 214.000 10.000 209.300 10.040 C 203.078 10.093,202.688 10.218,202.243 12.318 L 201.886 14.000 198.423 14.000 C 194.479 14.000,194.000 14.268,194.000 16.480 L 194.000 18.000 189.300 18.040 C 183.078 18.093,182.688 18.218,182.243 20.318 L 181.886 22.000 179.243 22.040 C 175.207 22.101,174.661 22.349,174.243 24.318 L 173.886 26.000 171.243 26.040 C 167.207 26.101,166.661 26.349,166.243 28.318 L 165.886 30.000 163.243 30.040 C 159.216 30.101,158.660 30.352,158.247 32.298 C 157.901 33.932,157.863 33.963,156.047 34.080 L 154.200 34.200 154.078 36.100 L 153.956 38.000 150.458 38.000 C 146.476 38.000,146.000 38.265,146.000 40.480 L 146.000 42.000 143.300 42.040 C 139.204 42.100,138.662 42.344,138.243 44.318 C 137.903 45.922,137.819 46.000,136.423 46.000 C 134.564 46.000,134.000 46.578,134.000 48.480 L 134.000 50.000 131.300 50.040 C 127.204 50.100,126.662 50.344,126.243 52.318 C 125.903 53.922,125.819 54.000,124.423 54.000 C 122.564 54.000,122.000 54.578,122.000 56.480 L 122.000 58.000 119.300 58.040 C 115.204 58.100,114.662 58.344,114.243 60.318 C 113.903 61.922,113.819 62.000,112.423 62.000 C 110.569 62.000,110.000 62.577,110.000 64.458 L 110.000 65.956 108.100 66.078 L 106.200 66.200 106.078 68.100 L 105.956 70.000 102.607 70.000 C 98.765 70.000,98.000 70.437,98.000 72.629 C 98.000 73.950,97.944 74.000,96.480 74.000 C 94.569 74.000,94.000 74.564,94.000 76.458 L 94.000 77.956 92.100 78.078 L 90.200 78.200 90.078 80.100 L 89.956 82.000 87.278 82.040 C 83.205 82.101,82.661 82.346,82.243 84.318 C 81.912 85.880,81.793 86.000,80.572 86.000 C 78.883 86.000,78.000 86.903,78.000 88.629 C 78.000 89.924,77.924 90.000,76.629 90.000 C 74.886 90.000,74.000 90.886,74.000 92.629 C 74.000 93.950,73.944 94.000,72.480 94.000 C 70.569 94.000,70.000 94.564,70.000 96.458 L 70.000 97.956 68.100 98.078 L 66.200 98.200 66.079 100.079 L 65.958 101.958 64.079 102.079 L 62.200 102.200 62.079 104.079 L 61.958 105.958 60.079 106.079 L 58.200 106.200 58.079 108.079 L 57.958 109.958 56.079 110.079 L 54.200 110.200 54.079 112.079 L 53.958 113.958 52.079 114.079 L 50.200 114.200 50.079 116.079 L 49.958 117.958 48.079 118.079 L 46.200 118.200 46.079 120.079 L 45.958 121.958 44.079 122.079 L 42.200 122.200 42.078 124.100 C 41.958 125.967,41.933 126.000,40.607 126.000 C 38.885 126.000,38.000 126.892,38.000 128.629 C 38.000 129.924,37.924 130.000,36.629 130.000 C 34.437 130.000,34.000 130.765,34.000 134.607 L 34.000 137.956 32.100 138.078 L 30.200 138.200 30.079 140.079 L 29.958 141.958 28.079 142.079 L 26.200 142.200 26.078 144.100 C 25.958 145.967,25.933 146.000,24.607 146.000 C 22.438 146.000,22.000 146.773,22.000 150.607 L 22.000 153.956 20.100 154.078 L 18.200 154.200 18.086 158.079 L 17.972 161.957 16.086 162.079 L 14.200 162.200 14.078 164.100 C 13.958 165.967,13.933 166.000,12.607 166.000 C 10.237 166.000,10.000 166.600,10.000 172.607 L 10.000 177.956 8.100 178.078 L 6.200 178.200 6.086 182.100 L 5.971 186.000 4.614 186.000 C 2.122 186.000,2.000 186.403,2.000 194.629 L 2.000 202.000 1.000 202.000 L 0.000 202.000 0.000 230.000 L 0.000 258.000 1.000 258.000 L 2.000 258.000 2.040 264.700 C 2.090 273.065,2.148 273.297,4.318 273.757 L 6.000 274.114 6.040 278.757 C 6.093 284.919,6.221 285.312,8.318 285.757 L 10.000 286.114 10.000 289.428 C 10.000 293.232,10.442 294.000,12.629 294.000 L 14.000 294.000 14.000 297.520 C 14.000 301.525,14.263 302.000,16.480 302.000 L 18.000 302.000 18.000 305.371 C 18.000 309.237,18.434 310.000,20.629 310.000 L 22.000 310.000 22.040 312.700 C 22.100 316.787,22.347 317.339,24.298 317.753 C 25.932 318.099,25.963 318.137,26.080 319.953 L 26.200 321.800 28.100 321.922 L 30.000 322.044 30.000 325.393 C 30.000 329.235,30.437 330.000,32.629 330.000 C 33.950 330.000,34.000 330.056,34.000 331.520 C 34.000 333.431,34.564 334.000,36.458 334.000 L 37.956 334.000 38.078 335.900 L 38.200 337.800 40.100 337.922 L 42.000 338.044 42.040 340.722 C 42.101 344.795,42.346 345.339,44.318 345.757 C 45.880 346.088,46.000 346.207,46.000 347.428 C 46.000 349.117,46.903 350.000,48.629 350.000 C 49.924 350.000,50.000 350.076,50.000 351.371 C 50.000 353.114,50.886 354.000,52.629 354.000 C 53.924 354.000,54.000 354.076,54.000 355.371 C 54.000 357.114,54.886 358.000,56.629 358.000 C 57.924 358.000,58.000 358.076,58.000 359.371 C 58.000 361.114,58.886 362.000,60.629 362.000 C 61.924 362.000,62.000 362.076,62.000 363.371 C 62.000 365.097,62.883 366.000,64.572 366.000 C 65.793 366.000,65.912 366.120,66.243 367.682 C 66.661 369.654,67.205 369.899,71.278 369.960 L 73.956 370.000 74.078 371.900 L 74.200 373.800 76.100 373.922 L 78.000 374.044 78.000 375.542 C 78.000 377.436,78.569 378.000,80.480 378.000 C 81.944 378.000,82.000 378.050,82.000 379.371 C 82.000 381.563,82.765 382.000,86.607 382.000 L 89.956 382.000 90.078 383.900 L 90.200 385.800 92.047 385.920 C 93.863 386.037,93.901 386.068,94.247 387.702 C 94.661 389.653,95.213 389.900,99.300 389.960 L 102.000 390.000 102.000 391.371 C 102.000 393.566,102.763 394.000,106.629 394.000 L 110.000 394.000 110.000 395.371 C 110.000 397.566,110.763 398.000,114.629 398.000 L 118.000 398.000 118.000 399.371 C 118.000 401.558,118.768 402.000,122.572 402.000 L 125.886 402.000 126.243 403.682 C 126.688 405.782,127.078 405.907,133.300 405.960 L 138.000 406.000 138.000 407.371 C 138.000 409.763,138.594 410.000,144.572 410.000 L 149.886 410.000 150.243 411.682 C 150.713 413.897,150.785 413.912,161.300 413.960 L 170.000 414.000 170.000 415.000 L 170.000 416.000 208.000 416.000 L 246.000 416.000 246.000 415.000 L 246.000 414.000 251.520 414.000 C 257.684 414.000,258.000 413.879,258.000 411.520 L 258.000 410.000 262.700 409.960 C 268.922 409.907,269.312 409.782,269.757 407.682 L 270.114 406.000 272.757 405.960 C 276.784 405.899,277.340 405.648,277.753 403.702 C 278.099 402.068,278.137 402.037,279.953 401.920 L 281.800 401.800 281.922 399.900 L 282.044 398.000 285.393 398.000 C 289.227 398.000,290.000 397.562,290.000 395.393 C 290.000 394.067,290.033 394.042,291.900 393.922 L 293.800 393.800 293.921 391.921 L 294.042 390.042 295.921 389.921 L 297.800 389.800 297.922 387.900 L 298.044 386.000 300.722 385.960 C 304.795 385.899,305.339 385.654,305.757 383.682 C 306.088 382.120,306.207 382.000,307.428 382.000 C 309.117 382.000,310.000 381.097,310.000 379.371 C 310.000 378.076,310.076 378.000,311.371 378.000 C 313.114 378.000,314.000 377.114,314.000 375.371 C 314.000 374.076,314.076 374.000,315.371 374.000 C 317.097 374.000,318.000 373.117,318.000 371.428 C 318.000 370.207,318.120 370.088,319.682 369.757 C 321.654 369.339,321.899 368.795,321.960 364.722 L 322.000 362.044 323.900 361.922 L 325.800 361.800 325.921 359.921 L 326.042 358.042 327.921 357.921 L 329.800 357.800 329.922 355.900 C 330.042 354.033,330.067 354.000,331.393 354.000 C 333.562 354.000,334.000 353.227,334.000 349.393 L 334.000 346.044 335.900 345.922 L 337.800 345.800 337.922 343.900 C 338.042 342.033,338.067 342.000,339.393 342.000 C 341.562 342.000,342.000 341.227,342.000 337.393 L 342.000 334.044 343.900 333.922 L 345.800 333.800 345.914 329.921 L 346.028 326.043 347.914 325.921 L 349.800 325.800 349.922 323.900 C 350.042 322.033,350.067 322.000,351.393 322.000 C 353.565 322.000,354.000 321.228,354.000 317.371 L 354.000 314.000 355.371 314.000 C 357.566 314.000,358.000 313.237,358.000 309.371 L 358.000 306.000 359.371 306.000 C 361.566 306.000,362.000 305.237,362.000 301.371 L 362.000 298.000 363.371 298.000 C 365.765 298.000,366.000 297.410,366.000 291.393 L 366.000 286.044 367.900 285.922 L 369.800 285.800 369.914 281.900 L 370.029 278.000 371.386 278.000 C 373.765 278.000,374.000 277.405,374.000 271.371 L 374.000 266.000 375.520 266.000 C 377.878 266.000,378.000 265.682,378.000 259.542 L 378.000 254.044 379.900 253.922 L 381.800 253.800 381.914 249.954 L 382.028 246.108 383.696 245.754 C 385.850 245.297,385.910 245.056,385.960 236.700 L 386.000 230.000 387.520 230.000 C 389.876 230.000,390.000 229.679,390.000 223.577 L 390.000 218.114 391.682 217.757 C 393.897 217.287,393.912 217.215,393.960 206.700 L 394.000 198.000 395.520 198.000 C 398.040 198.000,398.000 198.200,398.000 185.520 L 398.000 174.000 399.000 174.000 L 400.000 174.000 400.000 142.000 L 400.000 110.000 399.000 110.000 L 398.000 110.000 398.000 100.480 C 398.000 89.975,398.006 90.000,395.520 90.000 L 394.000 90.000 394.000 84.480 C 394.000 78.316,393.879 78.000,391.520 78.000 L 390.000 78.000 389.960 73.300 C 389.907 67.078,389.782 66.688,387.682 66.243 L 386.000 65.886 385.960 63.243 C 385.899 59.216,385.648 58.660,383.702 58.247 C 382.068 57.901,382.037 57.863,381.920 56.047 L 381.800 54.200 379.900 54.078 L 378.000 53.956 378.000 50.607 C 378.000 46.773,377.562 46.000,375.393 46.000 C 374.067 46.000,374.042 45.967,373.922 44.100 L 373.800 42.200 371.921 42.079 L 370.042 41.958 369.921 40.079 L 369.800 38.200 367.921 38.079 L 366.042 37.958 365.921 36.079 L 365.800 34.200 363.921 34.079 L 362.042 33.958 361.921 32.079 L 361.800 30.200 359.921 30.079 L 358.042 29.958 357.921 28.079 L 357.800 26.200 355.900 26.078 L 354.000 25.956 354.000 24.458 C 354.000 22.564,353.431 22.000,351.520 22.000 C 350.056 22.000,350.000 21.950,350.000 20.629 C 350.000 18.437,349.235 18.000,345.393 18.000 L 342.044 18.000 341.922 16.100 L 341.800 14.200 337.921 14.086 L 334.043 13.972 333.921 12.086 L 333.800 10.200 329.921 10.086 L 326.043 9.972 325.921 8.086 L 325.800 6.200 321.900 6.086 L 318.000 5.971 318.000 4.614 C 318.000 2.122,317.597 2.000,309.371 2.000 L 302.000 2.000 302.000 1.000 L 302.000 0.000 274.000 0.000 L 246.000 0.000 246.000 1.000 M309.400 99.499 C 310.997 99.957,311.991 100.865,313.285 103.045 C 313.662 103.680,314.382 104.708,314.885 105.329 C 315.799 106.456,315.800 106.471,315.925 122.469 C 316.066 140.534,316.309 139.082,312.809 141.133 C 311.823 141.711,310.718 142.482,310.354 142.846 C 309.883 143.317,308.668 143.577,306.146 143.747 C 300.800 144.106,112.620 144.540,108.968 144.201 L 105.800 143.907 104.531 142.003 C 102.324 138.692,102.280 138.266,102.520 122.146 C 102.839 100.683,103.251 99.765,112.800 99.175 C 120.719 98.686,307.643 98.994,309.400 99.499 M175.283 159.686 C 176.728 160.633,177.093 162.162,177.354 168.356 C 177.587 173.900,177.777 174.713,178.547 173.465 C 178.796 173.061,179.180 172.475,179.400 172.162 C 179.620 171.848,181.150 171.218,182.800 170.761 C 184.852 170.192,186.030 169.626,186.528 168.972 C 187.223 168.058,191.524 166.400,193.199 166.400 C 194.006 166.400,194.399 165.638,194.402 164.067 C 194.413 158.960,194.876 158.800,209.593 158.800 C 223.359 158.800,223.771 158.874,224.978 161.552 C 225.506 162.723,226.037 163.284,226.765 163.442 C 228.861 163.896,230.229 164.450,231.598 165.397 C 232.691 166.154,233.613 166.394,235.783 166.484 L 238.565 166.600 239.021 163.873 C 239.839 158.975,240.224 158.858,255.713 158.824 C 270.232 158.792,271.990 159.798,271.998 168.146 C 272.001 171.287,273.736 174.598,274.625 173.159 C 275.149 172.312,277.613 171.595,283.684 170.523 C 294.511 168.611,306.469 170.149,310.636 173.990 C 311.562 174.844,313.052 175.917,313.947 176.373 C 314.841 176.829,315.765 177.560,315.998 177.997 C 316.232 178.434,316.985 179.082,317.671 179.437 C 318.749 179.994,322.206 183.305,325.986 187.400 C 326.595 188.060,327.499 189.410,327.995 190.400 C 328.491 191.390,329.510 193.201,330.259 194.425 C 334.085 200.676,334.104 219.552,330.290 225.076 C 329.711 225.914,328.846 227.500,328.367 228.600 C 327.888 229.700,326.799 231.320,325.947 232.200 C 325.095 233.080,323.129 235.115,321.579 236.723 C 319.883 238.481,318.062 239.945,317.007 240.397 C 316.043 240.810,314.477 241.907,313.527 242.835 C 312.577 243.762,311.045 244.858,310.122 245.270 C 309.198 245.681,307.922 246.540,307.285 247.177 C 305.426 249.035,303.502 249.364,294.400 249.376 C 285.367 249.388,283.992 249.140,282.251 247.187 C 280.011 244.672,277.620 245.647,277.605 249.080 C 277.593 252.044,276.731 254.531,275.187 256.060 C 272.942 258.282,272.434 270.000,274.582 270.000 C 275.605 270.000,277.113 271.612,277.369 272.978 C 277.593 274.172,277.825 274.406,279.001 274.627 C 280.555 274.918,281.126 275.463,281.554 277.063 C 281.782 277.917,282.170 278.243,283.216 278.457 C 284.686 278.758,286.000 280.052,286.000 281.200 C 286.000 281.700,286.429 281.991,287.446 282.182 C 288.393 282.360,289.516 283.068,290.700 284.236 C 291.695 285.217,293.069 286.327,293.754 286.704 C 295.513 287.672,296.800 288.846,296.800 289.484 C 296.800 289.783,297.618 290.379,298.618 290.808 C 299.988 291.395,300.582 291.937,301.030 293.011 C 301.358 293.794,301.935 294.530,302.313 294.646 C 303.735 295.084,304.223 295.513,305.025 297.035 C 305.530 297.994,306.185 298.649,306.717 298.727 C 307.628 298.860,309.200 300.556,309.200 301.406 C 309.200 301.681,309.849 302.400,310.642 303.005 C 311.436 303.610,312.335 304.705,312.642 305.438 C 312.948 306.171,313.604 306.977,314.099 307.229 C 314.595 307.480,315.900 308.567,317.000 309.645 C 318.100 310.722,319.665 312.255,320.477 313.052 C 321.289 313.849,322.549 314.862,323.277 315.303 C 325.259 316.505,330.224 321.686,331.170 323.540 C 332.266 325.689,332.218 326.454,330.900 327.842 C 330.295 328.479,329.440 329.720,329.000 330.600 C 328.560 331.480,327.654 332.554,326.986 332.987 C 326.318 333.421,325.508 334.321,325.186 334.987 C 324.864 335.654,324.042 336.479,323.360 336.820 C 322.679 337.161,321.401 338.196,320.522 339.120 C 318.468 341.279,315.343 341.143,314.620 338.862 C 314.489 338.451,313.671 337.835,312.802 337.494 C 311.690 337.057,311.022 336.454,310.547 335.459 C 310.151 334.628,309.383 333.842,308.686 333.553 C 307.930 333.240,307.245 332.496,306.802 331.506 C 306.361 330.519,305.612 329.704,304.753 329.276 C 304.009 328.904,303.100 328.000,302.734 327.266 C 302.368 326.532,301.468 325.632,300.734 325.266 C 299.965 324.882,299.098 323.983,298.688 323.143 C 298.270 322.290,297.488 321.485,296.797 321.199 C 296.045 320.887,295.370 320.147,294.931 319.152 C 294.404 317.957,293.923 317.506,292.865 317.214 C 292.107 317.005,291.107 316.491,290.643 316.072 C 288.925 314.521,286.925 314.402,261.523 314.345 C 248.035 314.315,232.590 314.180,227.200 314.045 L 217.400 313.800 228.400 313.281 C 248.687 312.323,264.329 312.005,268.211 312.472 C 274.035 313.173,281.857 312.580,283.092 311.344 L 284.060 310.377 283.198 309.679 C 282.724 309.295,282.209 308.361,282.054 307.604 C 281.825 306.481,281.547 306.181,280.551 305.977 C 278.750 305.609,278.496 305.354,278.202 303.610 C 277.963 302.200,277.784 301.996,276.581 301.770 C 275.028 301.479,274.624 301.073,274.223 299.404 C 273.899 298.051,273.390 297.615,272.124 297.606 C 271.078 297.599,270.723 297.101,270.417 295.214 L 270.187 293.800 255.594 293.600 C 239.774 293.383,239.487 293.342,238.729 291.169 C 238.232 289.743,237.703 289.677,237.208 290.979 C 236.215 293.589,227.091 294.364,205.600 293.662 C 194.570 293.301,193.752 293.137,192.020 290.935 C 191.318 290.042,190.716 289.799,188.567 289.540 C 185.337 289.151,184.044 288.540,183.196 287.000 C 182.666 286.039,182.184 285.749,180.768 285.541 C 179.795 285.398,178.749 285.218,178.443 285.141 C 178.036 285.038,177.747 285.798,177.370 287.963 C 176.984 290.185,176.595 291.187,175.819 291.963 L 174.783 293.000 162.114 293.116 C 148.071 293.246,147.654 293.185,146.363 290.843 C 145.926 290.049,145.110 288.770,144.551 288.000 L 143.533 286.600 143.667 276.000 C 143.846 261.709,144.941 259.168,151.047 258.864 C 154.543 258.690,154.812 258.503,154.538 256.434 C 154.166 253.626,154.013 253.290,152.992 253.034 C 151.756 252.723,150.987 251.093,150.532 247.813 C 150.209 245.494,150.160 245.419,148.801 245.144 C 144.837 244.341,144.000 241.370,144.000 228.101 L 144.000 217.756 146.251 215.027 C 147.488 213.526,148.827 212.213,149.225 212.109 C 150.104 211.879,150.800 210.032,150.800 207.927 C 150.800 205.845,151.657 203.916,153.026 202.920 C 153.904 202.280,154.262 201.554,154.659 199.604 C 155.251 196.704,156.049 195.314,157.421 194.792 C 159.851 193.868,158.122 192.978,153.325 192.682 C 148.766 192.401,148.422 192.214,146.180 188.812 L 144.362 186.053 144.481 175.526 L 144.600 165.000 145.778 162.448 C 147.509 158.697,147.106 158.786,161.819 158.902 C 172.769 158.988,174.361 159.081,175.283 159.686 M315.108 196.771 C 313.885 196.942,312.824 197.402,312.108 198.072 C 310.764 199.330,309.154 200.167,306.929 200.766 C 306.009 201.013,304.525 201.827,303.631 202.574 C 302.736 203.322,300.854 204.316,299.448 204.784 C 298.043 205.252,296.557 206.010,296.146 206.469 C 292.730 210.289,284.832 210.627,283.045 207.028 C 282.630 206.192,281.728 205.177,281.042 204.772 C 280.355 204.366,279.469 203.487,279.074 202.817 C 278.259 201.437,277.920 201.333,277.174 202.231 C 276.886 202.578,275.829 203.284,274.825 203.799 C 271.445 205.534,271.390 205.613,271.995 207.844 C 272.656 210.285,273.427 211.858,274.717 213.400 C 275.269 214.060,276.226 215.725,276.844 217.100 C 277.461 218.475,278.149 219.600,278.371 219.600 C 278.593 219.600,279.420 220.608,280.209 221.841 C 281.612 224.035,281.673 224.076,283.121 223.821 C 286.394 223.247,288.866 222.317,290.170 221.173 C 290.926 220.509,292.629 219.600,293.957 219.152 C 295.284 218.704,297.035 217.808,297.849 217.161 C 298.663 216.514,300.269 215.712,301.418 215.378 C 302.567 215.044,304.293 214.169,305.253 213.434 C 306.214 212.699,307.933 211.795,309.073 211.425 C 310.213 211.056,311.923 210.136,312.873 209.381 C 313.823 208.626,314.728 208.006,314.885 208.004 C 316.505 207.982,319.761 206.140,320.717 204.705 C 321.313 203.811,321.970 202.852,322.177 202.574 C 322.439 202.221,322.136 201.592,321.177 200.500 C 320.420 199.638,319.493 198.362,319.119 197.666 C 318.406 196.341,318.322 196.322,315.108 196.771 M161.905 313.772 C 162.031 313.897,153.148 313.972,142.167 313.937 C 131.185 313.903,123.100 313.768,124.200 313.637 C 126.721 313.338,161.596 313.463,161.905 313.772 M208.515 313.894 C 207.368 313.975,205.388 313.976,204.115 313.896 C 202.842 313.816,203.780 313.751,206.200 313.750 C 208.620 313.749,209.662 313.814,208.515 313.894 " stroke="none" fill="#fbfbfb" fill-rule="evenodd"></path><path id="path2" d="M114.000 100.677 C 108.062 100.893,105.093 102.967,104.653 107.207 C 103.975 113.738,104.111 137.970,104.832 139.156 C 105.910 140.929,102.106 140.872,209.800 140.731 L 309.800 140.600 311.600 139.385 C 313.975 137.781,314.127 136.643,313.840 122.600 C 313.526 107.274,312.323 102.313,308.639 101.148 C 307.146 100.677,126.068 100.238,114.000 100.677 M307.218 102.058 C 311.262 104.765,311.163 104.278,311.462 122.856 L 311.705 137.913 310.694 138.575 C 309.216 139.544,106.203 139.766,105.592 138.800 C 105.161 138.118,105.062 115.547,105.464 109.480 L 105.723 105.559 107.031 105.013 C 107.750 104.713,108.657 103.957,109.048 103.333 C 109.438 102.710,109.827 102.110,109.912 102.000 C 110.651 101.040,305.783 101.097,307.218 102.058 M275.803 115.653 C 272.572 116.963,272.239 117.665,273.363 120.800 C 274.705 124.547,290.219 125.586,293.289 122.135 C 294.145 121.173,295.145 118.386,294.894 117.661 C 293.978 115.012,280.802 113.627,275.803 115.653 M129.000 115.669 C 126.644 116.959,126.095 117.916,126.561 119.916 C 127.929 125.785,133.456 124.895,135.049 118.549 C 135.404 117.133,130.548 114.821,129.000 115.669 M140.709 116.674 C 139.319 118.140,139.489 121.381,141.031 122.829 C 144.350 125.947,150.043 120.410,147.064 116.961 C 145.638 115.309,142.151 115.151,140.709 116.674 M155.133 116.073 C 150.739 117.243,152.052 122.675,156.920 123.464 C 158.961 123.796,159.986 122.702,160.276 119.887 C 160.659 116.176,159.097 115.018,155.133 116.073 M199.631 161.545 L 197.462 161.800 196.619 164.400 C 195.514 167.807,195.419 167.934,193.310 168.839 C 192.319 169.263,191.026 169.954,190.438 170.373 C 189.849 170.792,188.166 171.523,186.698 171.998 C 185.230 172.472,183.438 173.292,182.715 173.820 C 176.885 178.080,174.828 176.880,174.792 169.200 C 174.755 161.618,174.733 161.606,160.480 161.603 L 149.561 161.600 148.789 163.300 C 148.089 164.843,148.017 165.998,148.009 175.804 L 148.000 186.608 149.016 187.704 C 149.987 188.751,150.204 188.800,153.839 188.800 C 157.050 188.800,161.200 189.376,161.200 189.821 C 161.200 191.654,159.736 196.092,158.710 197.370 C 158.017 198.233,157.023 200.123,156.502 201.570 C 155.980 203.016,155.129 204.830,154.611 205.600 C 154.093 206.370,153.172 208.675,152.566 210.721 C 151.651 213.810,151.254 214.586,150.232 215.286 C 147.539 217.129,147.618 216.732,147.611 228.400 C 147.603 240.608,147.732 241.356,150.174 243.357 C 151.350 244.321,152.167 245.430,152.638 246.700 C 153.026 247.745,153.684 249.096,154.100 249.702 C 154.517 250.309,155.274 252.019,155.783 253.502 C 156.292 254.986,156.944 256.772,157.231 257.472 C 158.326 260.134,156.608 261.600,152.394 261.600 C 150.154 261.600,149.987 261.670,148.920 263.069 L 147.800 264.537 147.498 274.569 C 147.153 286.055,147.198 286.548,148.758 288.419 L 149.911 289.800 159.885 289.919 C 173.288 290.079,174.940 289.479,175.479 284.257 C 175.829 280.862,177.400 280.052,179.554 282.155 C 180.357 282.939,182.180 284.051,183.607 284.626 C 185.033 285.202,186.560 285.994,187.000 286.386 C 188.208 287.464,189.185 287.885,192.606 288.802 C 194.325 289.262,196.197 289.969,196.766 290.373 C 200.718 293.175,226.297 293.037,231.930 290.183 C 235.556 288.346,238.059 288.148,242.536 289.346 C 246.271 290.346,246.962 290.400,256.100 290.400 C 264.020 290.400,266.110 290.520,267.869 291.074 C 270.178 291.802,270.245 291.854,273.742 295.655 C 280.024 302.482,283.564 306.264,285.251 307.950 C 286.269 308.968,287.399 310.385,287.761 311.100 C 288.124 311.815,288.604 312.400,288.827 312.400 C 289.051 312.400,290.100 313.210,291.159 314.200 C 292.217 315.190,293.229 316.000,293.408 316.000 C 293.587 316.000,295.134 317.485,296.846 319.300 C 298.558 321.115,300.334 322.960,300.793 323.400 C 301.251 323.840,302.115 324.717,302.713 325.349 C 303.311 325.981,304.340 327.015,305.000 327.648 C 305.660 328.280,306.327 328.933,306.482 329.099 C 311.581 334.540,316.919 339.200,318.054 339.200 C 318.602 339.200,320.111 337.791,326.018 331.765 C 326.684 331.086,327.420 329.826,327.654 328.965 C 327.888 328.104,328.326 327.122,328.628 326.781 C 329.532 325.763,327.693 321.721,325.635 320.200 C 324.742 319.540,323.654 318.529,323.219 317.954 C 322.783 317.379,321.926 316.699,321.314 316.443 C 320.701 316.188,319.802 315.366,319.316 314.618 C 318.829 313.870,317.936 313.020,317.330 312.729 C 316.725 312.438,315.822 311.594,315.324 310.854 C 314.825 310.113,313.828 309.213,313.109 308.854 C 312.389 308.494,311.440 307.524,311.000 306.697 C 310.560 305.871,309.848 305.082,309.418 304.944 C 308.987 304.807,307.817 303.924,306.818 302.983 C 303.842 300.182,300.715 297.444,298.826 295.985 C 297.850 295.232,296.658 294.252,296.177 293.808 C 295.696 293.363,293.999 291.920,292.407 290.600 C 290.815 289.280,288.829 287.513,287.994 286.674 C 287.159 285.835,285.648 284.624,284.638 283.983 C 283.627 283.342,282.800 282.636,282.800 282.414 C 282.800 282.192,282.041 281.531,281.114 280.946 C 278.240 279.131,272.481 273.245,271.411 271.027 C 270.873 269.912,270.066 268.460,269.619 267.800 C 268.321 265.885,268.477 262.066,269.962 259.449 C 270.601 258.322,271.498 256.176,271.955 254.679 C 272.413 253.183,273.420 250.674,274.193 249.103 C 274.967 247.533,275.600 246.044,275.600 245.794 C 275.600 242.632,290.357 242.129,292.019 245.235 C 292.785 246.666,296.258 246.301,297.993 244.607 C 299.677 242.963,301.973 242.400,306.999 242.400 L 310.288 242.400 310.525 240.101 C 310.828 237.168,310.506 236.860,308.054 237.742 C 305.794 238.555,304.462 238.343,303.168 236.966 C 302.318 236.061,301.989 236.000,297.968 236.000 L 293.674 236.000 292.000 234.000 L 290.326 232.000 286.032 232.000 C 282.011 232.000,281.682 231.939,280.832 231.034 C 280.333 230.502,279.491 229.959,278.962 229.826 C 278.433 229.693,278.000 229.408,278.000 229.192 C 278.000 228.977,277.761 228.800,277.470 228.800 C 276.826 228.800,275.200 227.134,275.200 226.474 C 275.200 226.213,275.023 226.000,274.808 226.000 C 274.592 226.000,274.305 225.561,274.171 225.026 C 274.036 224.490,273.088 223.260,272.063 222.292 C 266.565 217.102,264.000 213.758,264.000 211.778 C 264.000 210.190,263.782 209.655,262.600 208.347 C 261.225 206.826,261.200 206.734,261.197 203.299 C 261.192 196.775,262.026 189.600,262.790 189.600 C 263.678 189.600,265.074 188.067,265.407 186.726 C 265.579 186.034,266.076 185.512,266.807 185.257 C 269.051 184.475,270.515 179.194,269.160 176.766 C 268.826 176.168,268.536 173.819,268.397 170.600 C 268.219 166.457,267.998 165.014,267.309 163.500 L 266.445 161.600 255.636 161.600 L 244.828 161.600 243.471 162.792 C 242.611 163.546,241.791 164.867,241.235 166.393 C 240.124 169.439,238.825 170.304,236.696 169.414 C 235.942 169.099,233.204 168.479,230.610 168.035 C 225.475 167.157,225.091 166.947,223.190 163.985 C 222.520 162.941,221.573 161.955,221.086 161.795 C 219.935 161.416,202.455 161.213,199.631 161.545 M171.346 165.229 C 172.368 166.033,172.400 166.188,172.400 170.370 C 172.400 175.639,173.132 177.204,175.813 177.661 C 178.678 178.150,182.706 176.854,184.468 174.877 C 185.331 173.908,186.053 173.596,188.302 173.217 C 191.038 172.755,193.600 171.591,193.600 170.809 C 193.600 170.588,194.275 170.089,195.100 169.702 C 196.393 169.094,196.702 168.674,197.344 166.649 L 198.087 164.301 208.544 164.533 C 221.110 164.811,221.764 164.916,222.703 166.794 C 223.555 168.499,224.834 169.184,227.200 169.202 C 231.068 169.232,234.096 169.910,234.968 170.942 C 238.083 174.624,243.050 173.008,243.999 168.004 C 244.706 164.276,244.316 164.400,255.386 164.400 C 267.627 164.400,266.536 163.688,266.818 171.867 L 267.036 178.200 265.118 180.332 C 264.063 181.505,263.200 182.639,263.200 182.853 C 263.200 183.066,262.611 183.487,261.892 183.787 C 259.521 184.778,259.181 185.604,257.107 195.400 C 256.874 196.500,256.306 198.390,255.845 199.600 C 253.991 204.461,255.044 216.665,257.629 220.290 C 258.292 221.219,259.278 222.981,259.819 224.205 C 260.849 226.533,265.194 231.290,266.739 231.781 C 267.191 231.924,267.955 232.679,268.436 233.459 C 268.918 234.239,270.190 235.416,271.262 236.076 C 272.334 236.736,274.015 238.320,274.998 239.597 L 276.784 241.918 275.828 242.545 C 275.302 242.890,274.663 243.802,274.409 244.572 C 274.155 245.343,273.346 246.574,272.612 247.308 C 271.500 248.420,271.234 249.040,271.018 251.021 C 270.623 254.640,270.479 255.082,269.241 256.493 C 267.641 258.315,267.205 260.276,267.202 265.664 L 267.200 270.329 268.500 271.422 C 269.214 272.024,270.135 273.075,270.545 273.758 C 271.755 275.775,280.158 283.653,283.600 285.997 C 284.370 286.521,285.647 287.637,286.439 288.475 C 287.230 289.314,288.173 290.000,288.534 290.000 C 288.895 290.000,289.634 290.703,290.177 291.563 C 290.827 292.593,291.646 293.285,292.582 293.594 C 293.362 293.851,294.000 294.214,294.000 294.400 C 294.000 295.184,296.112 297.161,297.207 297.401 C 298.020 297.580,298.587 298.074,299.015 298.975 C 299.358 299.698,300.125 300.509,300.719 300.778 C 301.314 301.047,302.700 302.161,303.800 303.253 C 304.900 304.345,307.960 307.204,310.600 309.606 C 313.240 312.007,316.194 314.744,317.165 315.686 C 318.136 316.629,319.486 317.670,320.165 318.000 C 320.850 318.333,321.658 319.186,321.978 319.914 C 322.434 320.950,322.909 321.317,324.223 321.648 L 325.890 322.067 326.164 326.043 L 326.438 330.018 325.019 331.356 C 324.239 332.092,323.600 332.989,323.600 333.348 C 323.600 333.707,322.745 334.616,321.700 335.367 C 320.655 336.118,319.380 337.217,318.866 337.809 L 317.932 338.884 316.866 337.891 C 316.280 337.344,315.136 336.590,314.323 336.214 C 313.511 335.838,312.543 335.067,312.171 334.500 C 311.800 333.933,309.764 331.701,307.648 329.540 C 303.024 324.819,302.464 324.252,301.288 323.096 C 300.787 322.603,298.955 320.760,297.217 319.000 C 295.479 317.240,293.027 314.900,291.767 313.800 C 290.508 312.700,289.190 311.448,288.839 311.018 C 288.233 310.278,286.467 308.341,282.400 303.959 C 281.410 302.892,279.673 300.980,278.541 299.710 C 268.524 288.475,269.185 288.800,256.378 288.800 C 249.348 288.800,245.824 288.626,242.926 288.136 C 238.259 287.347,235.283 287.699,230.529 289.603 C 223.669 292.350,206.192 292.777,199.357 290.365 C 195.178 288.890,193.843 288.455,191.565 287.829 C 190.335 287.492,188.659 286.682,187.840 286.031 C 187.020 285.380,185.445 284.547,184.339 284.180 C 183.204 283.803,181.454 282.736,180.324 281.733 C 177.143 278.908,174.000 279.936,174.000 283.802 L 174.000 285.987 172.013 286.993 C 169.426 288.304,150.913 288.588,149.531 287.338 C 148.859 286.729,148.800 285.846,148.800 276.357 C 148.800 263.816,148.749 264.000,152.208 264.000 C 156.720 264.000,158.293 263.628,158.763 262.449 C 159.452 260.720,159.443 257.568,158.747 257.051 C 157.618 256.213,156.893 254.612,156.391 251.852 C 156.033 249.884,155.574 248.742,154.773 247.830 C 154.158 247.130,153.531 246.064,153.380 245.461 C 153.111 244.392,151.061 242.000,150.413 242.000 C 149.197 242.000,148.800 238.692,148.800 228.566 C 148.800 218.395,148.989 216.800,150.192 216.800 C 151.423 216.800,152.835 214.986,153.451 212.613 C 153.818 211.199,154.399 209.996,154.877 209.661 C 155.918 208.932,156.614 207.234,157.199 203.997 C 157.590 201.831,157.889 201.218,158.996 200.303 C 160.257 199.259,161.600 196.396,161.600 194.749 C 161.600 194.359,162.155 193.522,162.834 192.888 C 166.526 189.437,164.136 187.449,156.076 187.269 C 152.790 187.196,149.985 186.954,149.704 186.720 C 149.058 186.184,148.976 166.367,149.614 165.174 C 150.277 163.935,169.764 163.985,171.346 165.229 " stroke="none" fill="#acdc8d" fill-rule="evenodd"></path><path id="path3" d="M112.800 99.175 C 103.251 99.765,102.839 100.683,102.520 122.146 C 102.280 138.266,102.324 138.692,104.531 142.003 L 105.800 143.907 108.968 144.201 C 112.620 144.540,300.800 144.106,306.146 143.747 C 308.668 143.577,309.883 143.317,310.354 142.846 C 310.718 142.482,311.823 141.711,312.809 141.133 C 316.309 139.082,316.066 140.534,315.925 122.469 C 315.800 106.471,315.799 106.456,314.885 105.329 C 314.382 104.708,313.662 103.680,313.285 103.045 C 311.991 100.865,310.997 99.957,309.400 99.499 C 307.643 98.994,120.719 98.686,112.800 99.175 M297.600 100.351 C 309.863 100.674,309.948 100.696,311.811 104.012 C 313.948 107.817,314.192 109.935,314.196 124.682 C 314.200 139.623,314.499 138.183,311.000 140.090 L 309.400 140.961 207.662 140.981 L 105.925 141.000 104.945 139.800 L 103.966 138.600 104.083 122.400 C 104.218 103.739,104.237 103.654,108.800 101.149 C 110.535 100.197,266.747 99.536,297.600 100.351 M148.178 159.350 C 147.272 159.754,146.651 160.556,145.778 162.448 L 144.600 165.000 144.481 175.526 L 144.362 186.053 146.180 188.812 C 148.422 192.214,148.766 192.401,153.325 192.682 C 158.122 192.978,159.851 193.868,157.421 194.792 C 156.049 195.314,155.251 196.704,154.659 199.604 C 154.262 201.554,153.904 202.280,153.026 202.920 C 151.657 203.916,150.800 205.845,150.800 207.927 C 150.800 210.032,150.104 211.879,149.225 212.109 C 148.827 212.213,147.488 213.526,146.251 215.027 L 144.000 217.756 144.000 228.101 C 144.000 241.370,144.837 244.341,148.801 245.144 C 150.160 245.419,150.209 245.494,150.532 247.813 C 150.987 251.093,151.756 252.723,152.992 253.034 C 154.013 253.290,154.166 253.626,154.538 256.434 C 154.812 258.503,154.543 258.690,151.047 258.864 C 144.941 259.168,143.846 261.709,143.667 276.000 L 143.533 286.600 144.551 288.000 C 145.110 288.770,145.926 290.049,146.363 290.843 C 147.654 293.185,148.071 293.246,162.114 293.116 L 174.783 293.000 175.819 291.963 C 176.595 291.187,176.984 290.185,177.370 287.963 C 177.747 285.798,178.036 285.038,178.443 285.141 C 178.749 285.218,179.795 285.398,180.768 285.541 C 182.184 285.749,182.666 286.039,183.196 287.000 C 184.044 288.540,185.337 289.151,188.567 289.540 C 190.716 289.799,191.318 290.042,192.020 290.935 C 193.752 293.137,194.570 293.301,205.600 293.662 C 227.091 294.364,236.215 293.589,237.208 290.979 C 237.703 289.677,238.232 289.743,238.729 291.169 C 239.487 293.342,239.774 293.383,255.594 293.600 L 270.187 293.800 270.417 295.214 C 270.723 297.101,271.078 297.599,272.124 297.606 C 273.390 297.615,273.899 298.051,274.223 299.404 C 274.624 301.073,275.028 301.479,276.581 301.770 C 277.784 301.996,277.963 302.200,278.202 303.610 C 278.496 305.354,278.750 305.609,280.551 305.977 C 281.547 306.181,281.825 306.481,282.054 307.604 C 282.209 308.361,282.724 309.295,283.198 309.679 L 284.060 310.377 283.092 311.344 C 281.857 312.580,274.035 313.173,268.211 312.472 C 264.329 312.005,248.687 312.323,228.400 313.281 L 217.400 313.800 227.200 314.045 C 232.590 314.180,248.035 314.315,261.523 314.345 C 286.925 314.402,288.925 314.521,290.643 316.072 C 291.107 316.491,292.107 317.005,292.865 317.214 C 293.923 317.506,294.404 317.957,294.931 319.152 C 295.370 320.147,296.045 320.887,296.797 321.199 C 297.488 321.485,298.270 322.290,298.688 323.143 C 299.098 323.983,299.965 324.882,300.734 325.266 C 301.468 325.632,302.368 326.532,302.734 327.266 C 303.100 328.000,304.009 328.904,304.753 329.276 C 305.612 329.704,306.361 330.519,306.802 331.506 C 307.245 332.496,307.930 333.240,308.686 333.553 C 309.383 333.842,310.151 334.628,310.547 335.459 C 311.022 336.454,311.690 337.057,312.802 337.494 C 313.671 337.835,314.489 338.451,314.620 338.862 C 315.343 341.143,318.468 341.279,320.522 339.120 C 321.401 338.196,322.679 337.161,323.360 336.820 C 324.042 336.479,324.864 335.654,325.186 334.987 C 325.508 334.321,326.318 333.421,326.986 332.987 C 327.654 332.554,328.560 331.480,329.000 330.600 C 329.440 329.720,330.295 328.479,330.900 327.842 C 332.218 326.454,332.266 325.689,331.170 323.540 C 330.224 321.686,325.259 316.505,323.277 315.303 C 322.549 314.862,321.289 313.849,320.477 313.052 C 319.665 312.255,318.100 310.722,317.000 309.645 C 315.900 308.567,314.595 307.480,314.099 307.229 C 313.604 306.977,312.948 306.171,312.642 305.438 C 312.335 304.705,311.436 303.610,310.642 303.005 C 309.849 302.400,309.200 301.681,309.200 301.406 C 309.200 300.556,307.628 298.860,306.717 298.727 C 306.185 298.649,305.530 297.994,305.025 297.035 C 304.223 295.513,303.735 295.084,302.313 294.646 C 301.935 294.530,301.358 293.794,301.030 293.011 C 300.582 291.937,299.988 291.395,298.618 290.808 C 297.618 290.379,296.800 289.783,296.800 289.484 C 296.800 288.846,295.513 287.672,293.754 286.704 C 293.069 286.327,291.695 285.217,290.700 284.236 C 289.516 283.068,288.393 282.360,287.446 282.182 C 286.429 281.991,286.000 281.700,286.000 281.200 C 286.000 280.052,284.686 278.758,283.216 278.457 C 282.170 278.243,281.782 277.917,281.554 277.063 C 281.126 275.463,280.555 274.918,279.001 274.627 C 277.825 274.406,277.593 274.172,277.369 272.978 C 277.113 271.612,275.605 270.000,274.582 270.000 C 272.434 270.000,272.942 258.282,275.187 256.060 C 276.731 254.531,277.593 252.044,277.605 249.080 C 277.620 245.647,280.011 244.672,282.251 247.187 C 283.992 249.140,285.367 249.388,294.400 249.376 C 303.502 249.364,305.426 249.035,307.285 247.177 C 307.922 246.540,309.198 245.681,310.122 245.270 C 311.045 244.858,312.577 243.762,313.527 242.835 C 314.477 241.907,316.043 240.810,317.007 240.397 C 318.062 239.945,319.883 238.481,321.579 236.723 C 323.129 235.115,325.095 233.080,325.947 232.200 C 326.799 231.320,327.888 229.700,328.367 228.600 C 328.846 227.500,329.711 225.914,330.290 225.076 C 334.104 219.552,334.085 200.676,330.259 194.425 C 329.510 193.201,328.491 191.390,327.995 190.400 C 327.499 189.410,326.595 188.060,325.986 187.400 C 322.206 183.305,318.749 179.994,317.671 179.437 C 316.985 179.082,316.232 178.434,315.998 177.997 C 315.765 177.560,314.841 176.829,313.947 176.373 C 313.052 175.917,311.562 174.844,310.636 173.990 C 306.469 170.149,294.511 168.611,283.684 170.523 C 277.613 171.595,275.149 172.312,274.625 173.159 C 273.736 174.598,272.001 171.287,271.998 168.146 C 271.990 159.798,270.232 158.792,255.713 158.824 C 240.224 158.858,239.839 158.975,239.021 163.873 L 238.565 166.600 235.783 166.484 C 233.613 166.394,232.691 166.154,231.598 165.397 C 230.229 164.450,228.861 163.896,226.765 163.442 C 226.037 163.284,225.506 162.723,224.978 161.552 C 223.771 158.874,223.359 158.800,209.593 158.800 C 194.876 158.800,194.413 158.960,194.402 164.067 C 194.399 165.638,194.006 166.400,193.199 166.400 C 191.524 166.400,187.223 168.058,186.528 168.972 C 186.030 169.626,184.852 170.192,182.800 170.761 C 181.150 171.218,179.620 171.848,179.400 172.162 C 179.180 172.475,178.796 173.061,178.547 173.465 C 177.777 174.713,177.587 173.900,177.354 168.356 C 177.093 162.162,176.728 160.633,175.283 159.686 C 173.857 158.751,150.177 158.457,148.178 159.350 M172.460 161.538 C 174.508 162.208,175.200 164.087,175.200 168.982 C 175.200 176.137,176.604 177.336,181.340 174.225 C 182.826 173.249,184.977 172.140,186.121 171.761 C 192.124 169.771,195.410 167.392,196.252 164.430 C 197.280 160.808,196.583 161.000,208.714 161.000 C 222.039 161.000,221.776 160.948,223.730 163.982 C 225.464 166.674,225.547 166.713,232.167 167.997 C 234.568 168.462,236.861 169.019,237.263 169.233 C 238.721 170.014,240.076 168.544,241.491 164.646 C 242.706 161.298,243.109 161.200,255.632 161.200 C 265.373 161.200,266.331 161.261,266.927 161.920 C 268.208 163.335,268.800 165.971,268.800 170.263 C 268.800 177.271,269.914 178.268,276.558 177.207 C 279.776 176.693,280.433 176.393,281.605 174.903 L 282.473 173.800 291.614 173.800 L 300.756 173.800 302.078 175.075 C 303.684 176.625,304.794 177.069,307.953 177.426 C 310.149 177.675,310.455 177.827,311.157 179.017 C 311.659 179.868,312.617 180.631,313.867 181.176 C 314.930 181.639,316.628 182.869,317.640 183.909 C 318.653 184.949,319.927 186.100,320.472 186.467 C 321.017 186.834,322.071 188.319,322.813 189.767 C 323.556 191.215,324.307 192.400,324.482 192.400 C 325.172 192.400,326.400 194.054,326.400 194.984 C 326.400 197.073,327.771 200.532,328.845 201.150 C 330.780 202.264,330.900 217.094,328.991 219.200 C 327.759 220.559,326.400 223.690,326.400 225.169 C 326.400 226.030,326.102 226.577,325.370 227.056 C 324.804 227.427,323.727 228.691,322.975 229.865 C 322.224 231.039,321.458 232.000,321.272 232.000 C 321.085 232.000,319.868 233.327,318.567 234.948 C 316.535 237.480,315.909 237.990,314.140 238.556 C 312.356 239.127,311.997 239.424,311.457 240.774 C 310.672 242.735,310.785 242.677,306.836 243.172 C 304.162 243.507,303.061 243.870,301.103 245.059 C 297.635 247.166,291.651 247.304,288.694 245.345 C 286.990 244.217,286.499 244.104,282.330 243.884 C 277.046 243.605,276.869 243.691,275.582 247.154 C 275.123 248.389,274.470 249.828,274.131 250.351 C 273.792 250.874,272.999 252.827,272.369 254.691 C 271.739 256.555,270.768 258.895,270.212 259.890 C 267.006 265.627,270.544 271.761,282.965 282.000 C 285.573 284.149,288.779 286.867,292.400 289.997 C 296.042 293.146,297.846 294.661,299.800 296.212 C 300.900 297.085,302.430 298.364,303.200 299.055 C 303.970 299.746,305.723 301.321,307.097 302.556 C 308.470 303.790,309.763 304.800,309.971 304.800 C 310.179 304.800,310.753 305.520,311.248 306.400 C 311.743 307.280,312.295 308.000,312.476 308.000 C 312.657 308.000,313.929 309.079,315.303 310.399 C 316.676 311.718,318.700 313.611,319.800 314.605 C 320.900 315.598,322.643 317.174,323.673 318.106 C 324.703 319.038,325.973 320.097,326.496 320.460 C 327.018 320.823,328.007 322.253,328.693 323.638 L 329.941 326.155 328.970 327.308 C 328.437 327.942,328.000 328.794,328.000 329.200 C 328.000 329.606,327.423 330.516,326.718 331.221 C 326.012 331.926,324.936 333.290,324.326 334.252 C 323.717 335.213,323.019 336.000,322.776 336.000 C 322.533 336.000,321.429 336.900,320.324 338.000 C 317.942 340.369,318.096 340.344,316.084 338.700 C 315.209 337.985,313.930 337.092,313.242 336.716 C 312.555 336.340,311.633 335.424,311.194 334.680 C 310.755 333.935,309.953 333.125,309.412 332.878 C 308.872 332.632,307.974 331.709,307.417 330.827 C 306.860 329.945,305.902 328.963,305.288 328.646 C 304.674 328.328,303.925 327.608,303.624 327.044 C 303.322 326.481,302.216 325.295,301.164 324.409 C 300.113 323.522,299.148 322.467,299.020 322.063 C 298.892 321.659,298.314 321.075,297.737 320.766 C 297.159 320.457,296.262 319.532,295.743 318.710 C 295.225 317.889,294.095 316.857,293.234 316.417 C 292.372 315.978,291.294 315.094,290.838 314.454 C 290.382 313.813,289.548 313.173,288.985 313.032 C 288.260 312.850,287.736 312.251,287.192 310.982 C 286.707 309.850,286.056 309.050,285.427 308.810 C 284.878 308.602,283.991 307.737,283.456 306.888 C 282.920 306.040,282.013 305.038,281.440 304.663 C 280.866 304.287,279.941 303.257,279.384 302.375 C 278.827 301.492,277.928 300.568,277.386 300.321 C 276.844 300.074,275.950 299.103,275.399 298.163 C 274.848 297.222,274.072 296.350,273.673 296.223 C 273.275 296.097,272.400 295.214,271.729 294.262 C 269.676 291.349,268.465 291.088,255.800 290.822 C 245.970 290.615,244.713 290.509,241.800 289.642 C 238.082 288.534,234.971 288.855,232.400 290.611 C 229.854 292.350,227.544 292.600,214.000 292.600 C 200.414 292.600,197.989 292.335,195.962 290.630 C 195.236 290.019,193.638 289.416,191.543 288.963 C 189.155 288.447,187.907 287.942,186.955 287.107 C 186.236 286.476,184.512 285.520,183.124 284.983 C 181.443 284.332,180.179 283.513,179.340 282.531 C 177.603 280.499,176.250 281.232,175.873 284.409 C 175.227 289.866,173.961 290.354,160.400 290.366 C 149.304 290.375,149.531 290.419,148.052 287.993 C 147.244 286.667,147.203 286.097,147.201 276.087 C 147.200 262.453,147.611 261.200,152.088 261.200 C 155.425 261.200,157.881 259.299,156.770 257.576 C 156.566 257.259,156.043 255.830,155.609 254.400 C 155.174 252.970,154.374 251.148,153.830 250.351 C 153.286 249.555,152.717 248.385,152.564 247.751 C 152.073 245.704,151.211 244.419,149.630 243.372 C 147.396 241.894,147.200 240.673,147.200 228.200 L 147.200 217.555 149.231 215.607 C 151.022 213.890,151.395 213.234,152.383 210.054 C 153.000 208.071,153.874 205.977,154.327 205.402 C 154.779 204.827,155.521 203.241,155.976 201.878 C 156.730 199.618,157.149 198.830,159.298 195.637 C 159.761 194.949,159.996 193.822,159.998 192.290 C 160.001 189.394,159.611 189.200,153.794 189.200 L 149.641 189.200 148.620 187.862 L 147.600 186.524 147.600 175.922 C 147.600 162.255,147.861 161.364,151.945 161.081 C 156.731 160.748,171.018 161.067,172.460 161.538 M316.087 191.606 C 315.194 192.005,314.280 192.676,314.055 193.097 C 313.785 193.601,312.851 194.031,311.323 194.355 C 307.878 195.085,306.916 195.553,306.425 196.740 C 306.040 197.669,305.556 197.907,302.787 198.530 C 299.759 199.210,299.552 199.327,298.818 200.764 C 298.075 202.221,297.943 202.292,295.522 202.542 C 292.848 202.818,291.103 203.753,290.854 205.042 C 290.643 206.134,290.060 206.387,287.735 206.394 L 285.670 206.400 285.391 204.749 C 284.676 200.515,282.195 198.614,277.400 198.625 C 273.912 198.633,272.099 199.247,271.396 200.657 C 270.687 202.079,269.942 202.800,269.180 202.800 C 266.217 202.800,266.134 208.952,269.059 211.711 C 269.779 212.391,270.483 213.498,270.624 214.173 C 270.980 215.888,271.873 217.171,273.010 217.604 C 273.594 217.826,274.076 218.413,274.227 219.086 C 274.856 221.902,275.795 223.730,276.974 224.437 C 277.648 224.842,278.560 225.852,279.001 226.681 C 280.533 229.568,283.517 229.777,286.340 227.197 C 287.237 226.377,288.494 225.783,290.140 225.401 C 292.511 224.850,294.000 223.777,294.000 222.620 C 294.000 222.324,295.156 221.921,296.900 221.608 C 300.276 221.002,301.493 220.364,301.830 219.025 C 302.041 218.182,302.435 217.997,304.936 217.567 C 308.519 216.950,309.163 216.625,309.667 215.181 C 309.984 214.271,310.384 213.970,311.535 213.774 C 315.998 213.016,316.990 212.621,317.597 211.363 C 318.120 210.281,318.570 210.031,321.197 209.363 C 324.980 208.402,325.644 207.379,325.637 202.525 C 325.630 198.327,324.911 196.426,322.941 195.398 C 321.981 194.896,321.147 194.050,320.720 193.143 C 319.779 191.144,318.251 190.637,316.087 191.606 M319.119 197.666 C 319.493 198.362,320.420 199.638,321.177 200.500 C 322.136 201.592,322.439 202.221,322.177 202.574 C 321.970 202.852,321.313 203.811,320.717 204.705 C 319.761 206.140,316.505 207.982,314.885 208.004 C 314.728 208.006,313.823 208.626,312.873 209.381 C 311.923 210.136,310.213 211.056,309.073 211.425 C 307.933 211.795,306.214 212.699,305.253 213.434 C 304.293 214.169,302.567 215.044,301.418 215.378 C 300.269 215.712,298.663 216.514,297.849 217.161 C 297.035 217.808,295.284 218.704,293.957 219.152 C 292.629 219.600,290.926 220.509,290.170 221.173 C 288.866 222.317,286.394 223.247,283.121 223.821 C 281.673 224.076,281.612 224.035,280.209 221.841 C 279.420 220.608,278.593 219.600,278.371 219.600 C 278.149 219.600,277.461 218.475,276.844 217.100 C 276.226 215.725,275.269 214.060,274.717 213.400 C 273.427 211.858,272.656 210.285,271.995 207.844 C 271.390 205.613,271.445 205.534,274.825 203.799 C 275.829 203.284,276.886 202.578,277.174 202.231 C 277.920 201.333,278.259 201.437,279.074 202.817 C 279.469 203.487,280.355 204.366,281.042 204.772 C 281.728 205.177,282.630 206.192,283.045 207.028 C 284.832 210.627,292.730 210.289,296.146 206.469 C 296.557 206.010,298.043 205.252,299.448 204.784 C 300.854 204.316,302.736 203.322,303.631 202.574 C 304.525 201.827,306.009 201.013,306.929 200.766 C 309.154 200.167,310.764 199.330,312.108 198.072 C 313.109 197.135,314.692 196.679,317.719 196.453 C 318.148 196.422,318.712 196.910,319.119 197.666 M124.200 313.637 C 123.100 313.768,131.185 313.903,142.167 313.937 C 153.148 313.972,162.031 313.897,161.905 313.772 C 161.596 313.463,126.721 313.338,124.200 313.637 M204.115 313.896 C 205.388 313.976,207.368 313.975,208.515 313.894 C 209.662 313.814,208.620 313.749,206.200 313.750 C 203.780 313.751,202.842 313.816,204.115 313.896 " stroke="none" fill="#bce6a0" fill-rule="evenodd"></path><path id="path4" d="M171.700 100.300 C 193.425 100.357,228.975 100.357,250.700 100.300 C 272.425 100.243,254.650 100.196,211.200 100.196 C 167.750 100.196,149.975 100.243,171.700 100.300 M112.300 100.693 C 113.235 100.777,114.765 100.777,115.700 100.693 C 116.635 100.609,115.870 100.540,114.000 100.540 C 112.130 100.540,111.365 100.609,112.300 100.693 M303.700 100.687 C 304.305 100.778,305.295 100.778,305.900 100.687 C 306.505 100.595,306.010 100.520,304.800 100.520 C 303.590 100.520,303.095 100.595,303.700 100.687 M106.378 103.072 L 105.000 104.545 106.273 103.572 C 107.333 102.762,108.272 101.600,107.866 101.600 C 107.806 101.600,107.137 102.263,106.378 103.072 M311.545 104.300 C 313.387 107.964,313.732 111.200,313.768 125.134 L 313.800 137.667 312.758 138.534 C 312.184 139.010,311.374 139.628,310.958 139.906 C 310.541 140.184,310.740 140.142,311.400 139.814 C 314.416 138.312,314.200 139.476,314.196 124.682 C 314.192 110.070,313.954 107.934,311.905 104.151 C 310.352 101.284,310.084 101.395,311.545 104.300 M104.177 120.400 C 104.177 126.890,104.232 129.545,104.299 126.300 C 104.366 123.055,104.366 117.745,104.299 114.500 C 104.232 111.255,104.177 113.910,104.177 120.400 M105.149 140.100 C 105.452 140.486,106.170 140.776,106.749 140.746 L 107.800 140.691 106.800 140.507 C 106.250 140.406,105.530 140.116,105.200 139.862 C 104.678 139.460,104.671 139.491,105.149 140.100 M298.321 140.699 C 300.588 140.770,304.188 140.770,306.321 140.698 C 308.455 140.626,306.600 140.568,302.200 140.568 C 297.800 140.568,296.055 140.627,298.321 140.699 M151.732 141.100 C 175.015 141.157,212.995 141.157,236.132 141.100 C 259.269 141.043,240.220 140.996,193.800 140.996 C 147.380 140.996,128.449 141.043,151.732 141.100 M151.945 161.081 C 147.861 161.364,147.600 162.255,147.600 175.922 L 147.600 186.524 148.620 187.862 L 149.641 189.200 153.794 189.200 C 159.611 189.200,160.001 189.394,159.998 192.290 C 159.996 193.822,159.761 194.949,159.298 195.637 C 157.149 198.830,156.730 199.618,155.976 201.878 C 155.521 203.241,154.779 204.827,154.327 205.402 C 153.874 205.977,153.000 208.071,152.383 210.054 C 151.395 213.234,151.022 213.890,149.231 215.607 L 147.200 217.555 147.200 228.200 C 147.200 240.673,147.396 241.894,149.630 243.372 C 151.211 244.419,152.073 245.704,152.564 247.751 C 152.717 248.385,153.286 249.555,153.830 250.351 C 154.374 251.148,155.174 252.970,155.609 254.400 C 156.043 255.830,156.566 257.259,156.770 257.576 C 157.881 259.299,155.425 261.200,152.088 261.200 C 147.866 261.200,147.170 262.863,147.279 272.687 L 147.359 279.800 147.579 272.167 C 147.856 262.608,148.315 261.600,152.394 261.600 C 156.608 261.600,158.326 260.134,157.231 257.472 C 156.944 256.772,156.292 254.986,155.783 253.502 C 155.274 252.019,154.517 250.309,154.100 249.702 C 153.684 249.096,153.026 247.745,152.638 246.700 C 152.167 245.430,151.350 244.321,150.174 243.357 C 147.732 241.356,147.603 240.608,147.611 228.400 C 147.618 216.732,147.539 217.129,150.232 215.286 C 151.254 214.586,151.651 213.810,152.566 210.721 C 153.172 208.675,154.093 206.370,154.611 205.600 C 155.129 204.830,155.980 203.016,156.502 201.570 C 157.023 200.123,158.017 198.233,158.710 197.370 C 159.736 196.092,161.200 191.654,161.200 189.821 C 161.200 189.376,157.050 188.800,153.839 188.800 C 150.204 188.800,149.987 188.751,149.016 187.704 L 148.000 186.608 148.009 175.804 C 148.017 165.998,148.089 164.843,148.789 163.300 L 149.561 161.600 160.480 161.603 C 174.733 161.606,174.755 161.618,174.792 169.200 C 174.828 176.880,176.885 178.080,182.715 173.820 C 183.438 173.292,185.230 172.472,186.698 171.998 C 188.166 171.523,189.849 170.792,190.438 170.373 C 191.026 169.954,192.329 169.259,193.331 168.829 C 195.070 168.084,196.424 166.438,196.384 165.120 C 196.376 164.834,196.133 165.140,195.846 165.800 C 195.064 167.593,190.789 170.213,186.121 171.761 C 184.977 172.140,182.826 173.249,181.340 174.225 C 176.604 177.336,175.200 176.137,175.200 168.982 C 175.200 164.087,174.508 162.208,172.460 161.538 C 171.018 161.067,156.731 160.748,151.945 161.081 M211.000 161.185 C 221.581 161.517,221.457 161.486,223.493 164.401 C 225.249 166.917,226.127 167.431,229.200 167.746 C 231.191 167.949,231.248 167.935,229.800 167.594 C 225.518 166.587,225.341 166.482,223.746 164.018 C 221.800 161.013,222.311 161.136,211.200 161.006 L 201.800 160.895 211.000 161.185 M197.281 161.702 C 197.052 161.978,196.758 162.743,196.629 163.402 C 196.415 164.486,196.444 164.466,196.930 163.200 C 197.432 161.890,197.607 161.785,199.633 161.565 L 201.800 161.330 199.749 161.265 C 198.517 161.226,197.532 161.401,197.281 161.702 M243.594 161.942 C 242.482 162.534,242.029 163.161,241.354 165.042 C 240.380 167.754,238.643 169.789,237.651 169.379 C 236.247 168.797,235.477 168.792,236.732 169.372 C 238.799 170.328,240.118 169.456,241.235 166.393 C 241.791 164.867,242.611 163.546,243.471 162.792 L 244.828 161.600 255.636 161.600 L 266.445 161.600 267.309 163.500 C 267.998 165.014,268.219 166.457,268.397 170.600 C 268.536 173.819,268.826 176.168,269.160 176.766 C 270.515 179.194,269.051 184.475,266.807 185.257 C 266.076 185.512,265.579 186.034,265.407 186.726 C 265.074 188.067,263.678 189.600,262.790 189.600 C 262.026 189.600,261.192 196.775,261.197 203.299 C 261.200 206.734,261.225 206.826,262.600 208.347 C 263.782 209.655,264.000 210.190,264.000 211.778 C 264.000 213.758,266.565 217.102,272.063 222.292 C 273.088 223.260,274.036 224.490,274.171 225.026 C 274.305 225.561,274.592 226.000,274.808 226.000 C 275.023 226.000,275.200 226.239,275.200 226.530 C 275.200 227.174,276.866 228.800,277.526 228.800 C 277.787 228.800,278.000 228.977,278.000 229.192 C 278.000 229.408,278.433 229.693,278.962 229.826 C 279.491 229.959,280.333 230.502,280.832 231.034 C 281.682 231.939,282.011 232.000,286.032 232.000 L 290.326 232.000 292.000 234.000 L 293.674 236.000 297.968 236.000 C 301.989 236.000,302.318 236.061,303.168 236.966 C 304.462 238.343,305.794 238.555,308.054 237.742 C 310.506 236.860,310.828 237.168,310.525 240.101 L 310.288 242.400 306.999 242.400 C 301.973 242.400,299.677 242.963,297.993 244.607 C 296.258 246.301,292.785 246.666,292.019 245.235 C 290.357 242.129,275.600 242.632,275.600 245.794 C 275.600 246.044,274.967 247.533,274.193 249.103 C 273.420 250.674,272.413 253.183,271.955 254.679 C 271.498 256.176,270.601 258.322,269.962 259.449 C 268.477 262.066,268.321 265.885,269.619 267.800 C 270.066 268.460,270.873 269.912,271.411 271.027 C 272.481 273.245,278.240 279.131,281.114 280.946 C 282.041 281.531,282.800 282.192,282.800 282.414 C 282.800 282.636,283.627 283.342,284.638 283.983 C 285.648 284.624,287.159 285.835,287.994 286.674 C 288.829 287.513,290.815 289.280,292.407 290.600 C 293.999 291.920,295.696 293.363,296.177 293.808 C 296.658 294.252,297.850 295.232,298.826 295.985 C 300.715 297.444,303.842 300.182,306.818 302.983 C 307.817 303.924,309.013 304.814,309.475 304.960 C 309.936 305.107,310.538 305.767,310.811 306.427 C 311.324 307.665,312.968 309.208,313.754 309.189 C 313.999 309.184,313.720 308.881,313.133 308.517 C 312.546 308.152,311.679 307.167,311.207 306.327 C 310.735 305.487,310.179 304.800,309.971 304.800 C 309.763 304.800,308.470 303.790,307.097 302.556 C 305.723 301.321,303.970 299.746,303.200 299.055 C 302.430 298.364,300.900 297.085,299.800 296.212 C 297.846 294.661,296.042 293.146,292.400 289.997 C 288.779 286.867,285.573 284.149,282.965 282.000 C 270.544 271.761,267.006 265.627,270.212 259.890 C 270.768 258.895,271.739 256.555,272.369 254.691 C 272.999 252.827,273.792 250.874,274.131 250.351 C 274.470 249.828,275.123 248.389,275.582 247.154 C 276.869 243.691,277.046 243.605,282.330 243.884 C 286.499 244.104,286.990 244.217,288.694 245.345 C 291.651 247.304,297.635 247.166,301.103 245.059 C 303.061 243.870,304.162 243.507,306.836 243.172 C 310.785 242.677,310.672 242.735,311.457 240.774 C 311.997 239.424,312.356 239.127,314.140 238.556 C 315.909 237.990,316.535 237.480,318.567 234.948 C 319.868 233.327,321.085 232.000,321.272 232.000 C 321.458 232.000,322.224 231.039,322.975 229.865 C 323.727 228.691,324.804 227.427,325.370 227.056 C 326.102 226.577,326.400 226.030,326.400 225.169 C 326.400 223.690,327.759 220.559,328.991 219.200 C 330.900 217.094,330.780 202.264,328.845 201.150 C 327.771 200.532,326.400 197.073,326.400 194.984 C 326.400 194.054,325.172 192.400,324.482 192.400 C 324.307 192.400,323.556 191.215,322.813 189.767 C 322.071 188.319,321.017 186.834,320.472 186.467 C 319.927 186.100,318.653 184.949,317.640 183.909 C 316.628 182.869,314.930 181.639,313.867 181.176 C 312.617 180.631,311.659 179.868,311.157 179.017 C 310.455 177.827,310.149 177.675,307.953 177.426 C 304.794 177.069,303.684 176.625,302.078 175.075 L 300.756 173.800 291.614 173.800 L 282.473 173.800 281.605 174.903 C 280.433 176.393,279.776 176.693,276.558 177.207 C 269.914 178.268,268.800 177.271,268.800 170.263 C 268.800 165.971,268.208 163.335,266.927 161.920 C 265.920 160.807,245.690 160.826,243.594 161.942 M320.720 193.143 C 321.147 194.050,321.981 194.896,322.941 195.398 C 324.911 196.426,325.630 198.327,325.637 202.525 C 325.644 207.379,324.980 208.402,321.197 209.363 C 318.570 210.031,318.120 210.281,317.597 211.363 C 316.990 212.621,315.998 213.016,311.535 213.774 C 310.384 213.970,309.984 214.271,309.667 215.181 C 309.163 216.625,308.519 216.950,304.936 217.567 C 302.435 217.997,302.041 218.182,301.830 219.025 C 301.493 220.364,300.276 221.002,296.900 221.608 C 295.156 221.921,294.000 222.324,294.000 222.620 C 294.000 223.777,292.511 224.850,290.140 225.401 C 288.494 225.783,287.237 226.377,286.340 227.197 C 283.517 229.777,280.533 229.568,279.001 226.681 C 278.560 225.852,277.648 224.842,276.974 224.437 C 275.795 223.730,274.856 221.902,274.227 219.086 C 274.076 218.413,273.594 217.826,273.010 217.604 C 271.873 217.171,270.980 215.888,270.624 214.173 C 270.483 213.498,269.779 212.391,269.059 211.711 C 266.134 208.952,266.217 202.800,269.180 202.800 C 269.942 202.800,270.687 202.079,271.396 200.657 C 272.099 199.247,273.912 198.633,277.400 198.625 C 282.195 198.614,284.676 200.515,285.391 204.749 L 285.670 206.400 287.735 206.394 C 290.060 206.387,290.643 206.134,290.854 205.042 C 291.103 203.753,292.848 202.818,295.522 202.542 C 297.943 202.292,298.075 202.221,298.818 200.764 C 299.552 199.327,299.759 199.210,302.787 198.530 C 305.556 197.907,306.040 197.669,306.425 196.740 C 306.916 195.553,307.878 195.085,311.323 194.355 C 312.851 194.031,313.785 193.601,314.055 193.097 C 315.410 190.565,319.520 190.593,320.720 193.143 M176.758 281.399 C 175.878 281.877,175.679 282.322,175.479 284.259 C 174.940 289.479,173.287 290.079,159.885 289.919 L 149.911 289.800 148.689 288.400 C 147.573 287.121,147.531 287.104,148.204 288.200 C 149.550 290.394,149.443 290.375,160.400 290.366 C 173.961 290.354,175.227 289.866,175.873 284.409 C 176.250 281.232,177.603 280.499,179.340 282.531 C 180.179 283.513,181.443 284.332,183.124 284.983 C 184.512 285.520,186.236 286.476,186.955 287.107 C 187.907 287.942,189.155 288.447,191.543 288.963 C 193.638 289.416,195.236 290.019,195.962 290.630 C 199.481 293.590,228.059 293.576,232.400 290.611 C 234.971 288.855,238.082 288.534,241.800 289.642 C 244.713 290.509,245.970 290.615,255.800 290.822 C 268.465 291.088,269.676 291.349,271.729 294.262 C 272.400 295.214,273.275 296.097,273.673 296.223 C 274.072 296.350,274.848 297.222,275.399 298.163 C 275.950 299.103,276.844 300.074,277.386 300.321 C 277.928 300.568,278.827 301.492,279.384 302.375 C 279.941 303.257,280.866 304.287,281.440 304.663 C 282.013 305.038,282.920 306.040,283.456 306.888 C 283.991 307.737,284.878 308.602,285.427 308.810 C 286.056 309.050,286.707 309.850,287.192 310.982 C 287.736 312.251,288.260 312.850,288.985 313.032 C 289.548 313.173,290.382 313.813,290.838 314.454 C 291.294 315.094,292.372 315.978,293.234 316.417 C 294.095 316.857,295.225 317.889,295.743 318.710 C 296.262 319.532,297.159 320.457,297.737 320.766 C 298.314 321.075,298.892 321.659,299.020 322.063 C 299.148 322.467,300.113 323.522,301.164 324.409 C 302.216 325.295,303.322 326.481,303.624 327.044 C 303.925 327.608,304.674 328.328,305.288 328.646 C 305.902 328.963,306.860 329.945,307.417 330.827 C 307.974 331.709,308.872 332.632,309.412 332.878 C 309.953 333.125,310.755 333.935,311.194 334.680 C 311.633 335.424,312.555 336.340,313.242 336.716 C 313.930 337.092,315.209 337.985,316.084 338.700 C 318.082 340.332,318.083 340.332,319.895 338.375 C 320.723 337.481,321.877 336.496,322.459 336.186 C 323.041 335.876,324.081 334.672,324.769 333.511 C 325.456 332.350,325.700 331.832,325.310 332.361 C 324.627 333.285,323.028 334.914,319.947 337.827 C 319.148 338.582,318.296 339.200,318.054 339.200 C 316.919 339.200,311.581 334.540,306.482 329.099 C 306.327 328.933,305.660 328.280,305.000 327.648 C 304.340 327.015,303.311 325.981,302.713 325.349 C 302.115 324.717,301.251 323.840,300.793 323.400 C 300.334 322.960,298.558 321.115,296.846 319.300 C 295.134 317.485,293.587 316.000,293.408 316.000 C 293.229 316.000,292.217 315.190,291.159 314.200 C 290.100 313.210,289.051 312.400,288.827 312.400 C 288.604 312.400,288.124 311.815,287.761 311.100 C 287.399 310.385,286.269 308.968,285.251 307.950 C 283.564 306.264,280.024 302.482,273.742 295.655 C 270.245 291.854,270.178 291.802,267.869 291.074 C 266.110 290.520,264.020 290.400,256.100 290.400 C 246.962 290.400,246.271 290.346,242.536 289.346 C 238.059 288.148,235.556 288.346,231.930 290.183 C 226.297 293.037,200.718 293.175,196.766 290.373 C 196.197 289.969,194.325 289.262,192.606 288.802 C 189.181 287.884,188.204 287.463,187.000 286.383 C 186.560 285.989,185.012 285.193,183.561 284.615 C 182.057 284.016,180.345 282.969,179.582 282.182 C 178.062 280.613,178.155 280.639,176.758 281.399 M316.088 311.813 C 316.686 312.443,317.247 312.877,317.335 312.779 C 317.423 312.680,316.933 312.165,316.247 311.634 L 315.000 310.669 316.088 311.813 M319.104 314.380 C 319.707 315.249,320.436 316.058,320.724 316.177 C 321.012 316.296,320.586 315.585,319.776 314.597 C 317.958 312.378,317.645 312.277,319.104 314.380 M323.155 317.800 C 323.625 318.460,324.742 319.540,325.635 320.200 C 327.693 321.721,329.532 325.763,328.628 326.781 C 327.973 327.520,327.095 330.512,327.631 330.181 C 327.834 330.055,328.000 329.617,328.000 329.207 C 328.000 328.797,328.437 327.942,328.970 327.308 L 329.941 326.155 328.693 323.638 C 328.007 322.253,327.009 320.823,326.477 320.460 C 325.944 320.097,324.786 319.080,323.903 318.200 C 322.648 316.948,322.485 316.861,323.155 317.800 " stroke="none" fill="#b4dc94" fill-rule="evenodd"></path></g></svg>